<svg width="2058" height="800" viewBox="0 0 2058 800" fill="none" xmlns="http://www.w3.org/2000/svg">
<g clip-path="url(#clip0_637_5841)">
<path d="M2115.82 -148.124L1955.75 -148.124L1955.75 -322.876L1781.75 -322.876L1781.75 -497.937L1646.76 -497.938L1646.76 -673L1339.01 -673L1339.01 -497.938L1001.23 -497.938L1001.23 -322.876L721.957 -322.876L721.957 -148.124L395.938 -148.124L395.938 26.9377L-66.0001 26.9377L-66.0002 202L2331 202L2331 26.9381L2115.82 26.938L2115.82 -148.124Z" fill="#FF003D"/>
<path d="M2065.82 -46.7236L1905.75 -46.7236L1905.75 -221.276L1731.75 -221.276L1731.75 -396.138L1596.76 -396.138L1596.76 -571L1289.01 -571L1289.01 -396.138L951.225 -396.138L951.225 -221.276L671.957 -221.276L671.957 -46.7238L345.938 -46.7239L345.938 128.138L-116 128.138L-116 303L2281 303L2281 128.138L2065.82 128.138L2065.82 -46.7236Z" fill="#00FFCE"/>
<path d="M2092.82 -9.12368L1932.75 -9.12371L1932.75 -183.876L1758.75 -183.876L1758.75 -358.937L1623.76 -358.938L1623.76 -534L1316.01 -534L1316.01 -358.938L978.225 -358.938L978.225 -183.876L698.957 -183.876L698.957 -9.12392L372.938 -9.12398L372.938 165.938L-89.0001 165.938L-89.0002 341L2308 341L2308 165.938L2092.82 165.938L2092.82 -9.12368Z" fill="#0043FF"/>
<path d="M2034.82 74.8763L1874.75 74.8763L1874.75 -99.8757L1700.75 -99.8758L1700.75 -274.937L1565.76 -274.938L1565.76 -450L1258.01 -450L1258.01 -274.938L920.225 -274.938L920.225 -99.8759L640.957 -99.876L640.957 74.8761L314.938 74.876L314.938 249.938L-147 249.938L-147 425L2250 425L2250 249.938L2034.82 249.938L2034.82 74.8763Z" fill="#FFE1F4"/>
<path d="M2087.91 244.876L1927.91 244.876L1927.91 70.1243L1753.98 70.1242L1753.98 -104.937L1619.05 -104.938L1619.05 -280L1311.42 -280L1311.42 -104.938L973.78 -104.938L973.78 70.1241L694.629 70.124L694.628 244.876L368.745 244.876L368.745 419.938L-93.0001 419.938L-93.0002 595L2303 595L2303 419.938L2087.91 419.938L2087.91 244.876Z" fill="#FF7300"/>
<path d="M1887.82 390.876L1727.75 390.876L1727.75 216.124L1553.75 216.124L1553.75 41.0625L1418.76 41.0625L1418.76 -134L1111.01 -134L1111.01 41.0624L773.225 41.0624L773.225 216.124L493.957 216.124L493.957 390.876L167.938 390.876L167.938 565.938L-294 565.938L-294 741L2103 741L2103 565.938L1887.82 565.938L1887.82 390.876Z" fill="white"/>
<path d="M-281.821 249.124L-121.753 249.124L-121.753 423.876L52.248 423.876L52.248 598.938L187.238 598.938L187.238 774L494.99 774L494.99 598.938L832.775 598.938L832.775 423.876L1112.04 423.876L1112.04 249.124L1438.06 249.124L1438.06 74.0623L1900 74.0623L1900 -101L-497 -101L-497 74.0621L-281.821 74.0622L-281.821 249.124Z" fill="#FF003D"/>
<path d="M1288.12 584.821L1288.12 424.753L1462.88 424.753L1462.88 250.752L1637.94 250.752L1637.94 115.762L1813 115.762L1813 -191.99L1637.94 -191.99L1637.94 -529.775L1462.88 -529.775L1462.88 -809.043L1288.12 -809.043L1288.12 -1135.06L1113.06 -1135.06L1113.06 -1597L938 -1597L938 800L1113.06 800L1113.06 584.821L1288.12 584.821Z" fill="#00FF6D"/>
<path d="M-231.821 147.724L-71.7529 147.724L-71.7529 322.276L102.248 322.276L102.248 497.138L237.238 497.138L237.238 672L544.99 672L544.99 497.138L882.775 497.138L882.775 322.276L1162.04 322.276L1162.04 147.724L1488.06 147.724L1488.06 -27.1377L1950 -27.1377L1950 -202L-447 -202L-447 -27.1379L-231.821 -27.1379L-231.821 147.724Z" fill="#00FFCE"/>
<path d="M-258.821 110.124L-98.7529 110.124L-98.7529 284.876L75.248 284.876L75.248 459.938L210.238 459.938L210.238 635L517.99 635L517.99 459.938L855.775 459.938L855.775 284.876L1135.04 284.876L1135.04 110.124L1461.06 110.124L1461.06 -64.9377L1923 -64.9377L1923 -240L-474 -240L-474 -64.9379L-258.821 -64.9378L-258.821 110.124Z" fill="#0043FF"/>
<path d="M1149.12 561.821L1149.12 401.753L1323.88 401.753L1323.88 227.752L1498.94 227.752L1498.94 92.7621L1674 92.7621L1674 -214.99L1498.94 -214.99L1498.94 -552.775L1323.88 -552.775L1323.88 -832.043L1149.12 -832.043L1149.12 -1158.06L974.062 -1158.06L974.062 -1620L799 -1620L799 777L974.062 777L974.062 561.821L1149.12 561.821Z" fill="#0043FF"/>
<path d="M-200.821 26.1239L-40.7529 26.1239L-40.7529 200.876L133.248 200.876L133.248 375.938L268.238 375.938L268.238 551L575.99 551L575.99 375.938L913.775 375.938L913.775 200.876L1193.04 200.876L1193.04 26.124L1519.06 26.124L1519.06 -148.938L1981 -148.938L1981 -324L-416 -324L-416 -148.938L-200.821 -148.938L-200.821 26.1239Z" fill="#FFE1F4"/>
<path d="M-253.911 -143.876L-93.9094 -143.876L-93.9094 30.8759L80.0188 30.8759L80.0188 205.938L214.952 205.938L214.952 381L522.576 381L522.576 205.938L860.22 205.938L860.22 30.876L1139.37 30.876L1139.37 -143.876L1465.25 -143.876L1465.25 -318.938L1927 -318.938L1927 -494L-469 -494L-469 -318.938L-253.911 -318.938L-253.911 -143.876Z" fill="#FF7300"/>
<path d="M-231.821 -244.876L-71.7529 -244.876L-71.7529 -70.1241L102.248 -70.1241L102.248 104.938L237.238 104.938L237.238 280L544.99 280L544.99 104.938L882.775 104.938L882.775 -70.124L1162.04 -70.124L1162.04 -244.876L1488.06 -244.876L1488.06 -419.938L1950 -419.938L1950 -595L-447 -595L-447 -419.938L-231.821 -419.938L-231.821 -244.876Z" fill="#00FF6D"/>
<path d="M184.926 220.907L322.49 220.907L322.49 371.094L472.028 371.094L472.028 521.547L588.039 521.547L852.524 521.546L1142.82 521.547L1142.82 371.094L1382.82 371.094L1382.82 220.907L1663.01 220.907L1663.01 70.4539L2060 70.454L2060 -80L5.25889e-05 -80.0002L3.94358e-05 70.4538L184.926 70.4538L184.926 220.907Z" fill="black"/>
</g>
<defs>
<clipPath id="clip0_637_5841">
<rect width="2058" height="800" fill="white"/>
</clipPath>
</defs>
</svg>
