<svg width="2411" height="328" viewBox="0 0 2411 328" fill="none" xmlns="http://www.w3.org/2000/svg">
<path d="M1687.6 119.28L1655.77 119.28V135.242H1671.36V151.346H1639.68V167.485H1623.36L1623.48 167.599V151.753H1591.48V199.492H1607.06V215.529H1575.39V199.614H1559.06L1559.17 199.728C1559.13 188.988 1559.09 178.248 1559.05 167.51H1574.92V151.782H1559.16V167.629C1553.77 167.582 1548.38 167.537 1542.98 167.494L1543.09 167.612V151.768H1526.91V167.607L1527.02 167.489L1494.78 167.614V135.232L1510.67 135.232V119.628H1478.56V151.634H1462.95V167.51H1494.89V199.618H1462.62L1462.73 199.732V183.713H1446.74V151.707H1414.58V135.661H1366.35V151.326H1350.09V199.734L1350.21 199.624H1334.19V183.852H1302.14V199.514H1317.94V215.8L1318.06 215.686H1302.07V231.58H1286V200.017L1269.95 200.017V215.695H1253.67L1253.78 215.809V183.907H1237.59V215.808L1237.7 215.694H1221.67V199.906H1205.69V215.694H1189.37L1189.48 215.808V183.497H1221.5V167.515H1253.65V151.449H1269.51V135.491H1253.67V119.628H1237.94V135.377H1253.79C1253.78 140.771 1253.78 146.168 1253.77 151.569H1221.62V167.634H1205.31V151.71H1189.33V167.503H1173.3L1173.41 167.613V151.714C1157.08 151.714 1141.01 151.714 1124.95 151.714C1125 146.257 1125.04 140.804 1125.08 135.356H1156.98V87.549L1093.21 87.549C1093.21 93.0716 1093.21 98.2767 1093.21 103.477C1087.75 103.43 1082.3 103.385 1076.85 103.341V87.2754H1044.7V55.4025L996.755 55.4025V86.9692H1012.79V71.3766H1028.78V87.1637H1044.81V103.229H1076.96V119.115H1093.09V103.375L1140.99 103.375V119.441H1125.2V135.461H1093.24V151.592H1125.05V183.384H1109.19V167.87H1093.11V183.685H1060.79V167.824H1045.06V183.577H1060.91V199.589H1044.92V215.431L1012.91 215.431V199.742H1028.49V183.789H1012.55V151.444L1060.53 151.444V119.576H1044.68V135.11L1028.55 135.11V119.637H1012.67V151.567C1007.28 151.525 1001.88 151.479 996.493 151.432L996.603 151.55V135.491H980.427V119.628H964.691V135.377H980.545C980.503 140.767 980.461 146.156 980.419 151.546L980.53 151.436H964.344V167.612L964.454 167.494H948.274L948.384 167.612V119.212H932.162V103.531H916.054V119.573H900.33V135.529H916.125V151.545L916.235 151.427H867.897V167.618L868.015 167.508H852.17V183.684H868.017L867.899 183.573C867.899 194.318 867.896 205.062 867.89 215.804L868.004 215.69H851.963V199.898H819.9V215.504L803.766 215.504V199.826H787.831V183.844L819.459 183.844V167.718L803.866 167.718V135.365H787.542L787.652 135.483V119.637H771.465V135.479L771.575 135.365H755.39V151.541L755.501 151.427H707.374V167.492H691.279V183.424H643.089V231.756H626.803L626.918 231.874V215.699H610.729L610.843 215.809V199.492H627.011V167.457H674.76V151.71H610.699V183.565H594.659L594.77 183.679V167.422L578.445 167.422V151.436H546.437L546.551 151.546V135.229H562.341V119.628H530.366V151.546L530.477 151.432H514.466V199.451H482.405V183.789H498.022V167.688H482.388V151.418H466.076L466.191 151.532C466.148 146.151 466.106 140.767 466.065 135.381H514.058V103.484H498.236V119.475H466.174V135.495H434.08V199.463H418.108V167.624H401.783V151.757H386.051V167.51H401.901V183.479H385.692V199.732L385.806 199.618C380.414 199.622 375.022 199.625 369.63 199.627L369.744 199.745V167.845H353.556V199.746L353.67 199.628L337.486 199.628L337.597 199.746V183.9H321.411V199.742L321.522 199.624H289.25V231.863L289.364 231.749H273.382V199.628H257.118L257.229 199.746V167.621H241.043C241.095 162.265 241.147 156.915 241.2 151.571C251.857 151.579 262.513 151.587 273.168 151.592V183.295H305.565V167.457H321.406V151.454H337.274V103.361H321.42V71.4268H305.676V103.247H321.534C321.53 119.352 321.525 135.457 321.518 151.561H305.253V135.732H289.207V151.714C283.642 151.714 278.351 151.714 273.065 151.705C273.107 140.905 273.147 130.111 273.183 119.323H289.05V87.5315H273.294V119.432H225.313V135.642H241.324C241.324 141.276 241.324 146.476 241.324 151.675C235.94 151.675 230.561 151.675 225.088 151.675V167.621H208.785V151.429H160.676L160.79 151.54V135.251H144.534V119.298H128.87L128.87 87.0118H144.442C144.442 81.3775 144.442 76.1775 144.442 70.9787C155.115 70.9787 165.776 70.9787 176.878 70.9787V86.9189H208.744V71.0841H192.816V55.056C198.098 55.0518 203.387 55.0518 208.683 55.056V39.3229L192.93 39.3229V55.1702L144.56 55.1702V71.0804H112.364V103.395H96.3822V151.545L96.4965 151.431H64.5683V119.399H80.1733V103.434H64.3436V87.4261L48.3883 87.4261V135.486H32.0939V119.36H0L0 55.0975C5.37536 55.0724 10.749 55.0497 16.1211 55.0297L16.1211 86.9604H31.8654L31.8654 55.1401L16.0068 55.1401L16.0068 39.0317H0L0 0C803.667 0 1607.33 0 2411 0V135.424H2395.2V151.49H2411V167.555H2379.01V151.741H2362.71V183.662L2362.82 183.548H2314.65V167.697H2298.67V151.427H2250.21L2250.32 151.545V135.702H2234.14V151.541L2234.25 151.431H2218.06V167.607L2218.17 167.489C2212.78 167.531 2207.4 167.573 2202.01 167.614C2202.01 162.33 2202.01 157.051 2202.01 151.747H2186.27V167.5H2202.12C2202.12 183.546 2202.12 199.596 2202.12 215.65L2202.24 215.524C2196.8 215.575 2191.37 215.627 2185.93 215.681L2186.04 215.791V183.9H2153.88V199.581H2137.93V231.749H2121.63L2121.75 231.863V215.848H2105.83V199.883H2121.62V183.578H2137.44V151.714C2121.2 151.714 2105.28 151.714 2089.35 151.714C2089.35 146.333 2089.35 140.956 2089.35 135.483H2073.4V119.178H2089.32V103.539H2041.58V151.431H2057.44V167.278H2073.4V151.436C2078.75 151.487 2084.11 151.539 2089.45 151.592V167.756H2121.73V183.696C2089.55 183.696 2057.37 183.696 2025.19 183.696V167.824H2009.46V183.577H2025.31V215.449H2009.3V199.628H1993.04L1993.15 199.746V151.757H1976.84V167.621L1928.74 167.621V135.489H1912.67V119.637H1896.7V135.484H1880.83V167.708H1896.59V183.683L1896.7 183.565H1864.61V215.529H1848.63V183.725H1832.51V167.752H1816.22V135.382H1832.53V119.243H1848.18V103.577H1816.33V135.495H1800.47V183.484H1815.97V231.748H1784.09L1784.2 231.862V215.897H1799.96V199.628H1768.01L1768.12 199.746V183.475H1751.8V151.557L1719.8 151.557V135.695H1704.06V151.444H1719.91C1719.87 156.834 1719.83 162.223 1719.79 167.613L1719.9 167.503H1687.64L1687.76 167.613C1687.74 152.925 1687.72 138.24 1687.69 123.558C1687.69 122.098 1687.55 120.634 1687.48 119.18C1692.79 119.18 1698.09 119.18 1703.83 119.18V103.15H1719.65V87.4511C1708.81 87.4511 1698.16 87.4511 1687.51 87.4511C1687.56 82.0064 1687.59 76.5632 1687.63 71.1218H1703.51V55.3899H1687.74V71.2322L1671.88 71.2322V87.3294L1687.62 87.3294C1687.61 97.9771 1687.6 108.628 1687.6 119.281M1109.11 39.1032H1093.25V54.81H1109V38.989H1124.86V23.2558L1109.11 23.2558V39.1032ZM1269.84 39.1032H1253.98V54.81H1269.73V38.989H1285.6V23.2558H1269.84L1269.84 39.1032ZM2330.59 39.1032V23.2307H2314.85V38.984H2330.7V54.8314H2346.42V39.0982L2330.59 39.1032ZM417.953 71.2347L401.733 71.2347V87.1486H385.984V103.393H401.753V135.23H417.942V119.246H433.915V103.252H449.786V87.5189H434.029V103.366C423.23 103.417 412.439 103.464 401.656 103.506C401.64 98.019 401.627 92.5336 401.619 87.0495L417.841 87.0495V71.118H433.713V55.3899H417.954L417.953 71.2347ZM1639.53 87.3005H1623.67V103.006H1639.41V87.1851H1655.28V71.4569H1639.53L1639.53 87.3005ZM1880.63 87.3005H1864.77V103.006H1880.51V87.1851H1896.39V71.4569H1880.63L1880.63 87.3005ZM1944.93 87.2917C1939.54 87.2917 1934.15 87.2917 1928.76 87.2917V71.4318L1913.02 71.4318V87.1813L1928.87 87.1813V103.24H1944.94V151.195H1961.05V119.598H1977.15V135.097H1993.26V119.246H2025.17V87.1851L2041.04 87.1851V71.4569L2025.28 71.4569V87.2993H2008.97V103.069H1992.99V87.2905H1960.89V71.4394H1944.92L1944.93 87.2917ZM642.755 103.506V87.5403L626.909 87.5403V103.366H611.05V135.128H626.795V103.247L642.852 103.386V119.034H658.799V103.514C653.314 103.514 648.028 103.514 642.75 103.506M498.319 55.0297V70.8933H514.054V55.1401H498.204V23.2307H482.476V55.0259C487.945 55.0259 493.129 55.0259 498.317 55.0259M803.711 71.0917V86.9554H819.446V71.2109H803.596V39.2978H787.868V71.0967L803.711 71.0917ZM1623.45 55.1602L1591.52 55.1602V70.8795H1623.34V55.051H1639.21V39.3229H1623.45L1623.45 55.1602ZM1414.5 87.1587V103.022H1430.23V87.2742H1414.38V71.4268H1382.6V87.1637H1414.5M2169.94 103.366H2153.65V119.48L2137.99 119.48V135.149H2169.83V103.252L2185.89 103.391V135.217H2202.11V119.209H2217.92V103.519C2207.08 103.519 2196.43 103.519 2185.79 103.507V87.5415H2169.94V103.366ZM835.857 119.432H820.034V151.163H851.662V135.326H835.749V119.319L883.765 119.319V103.571L835.864 103.571L835.857 119.432ZM1607.38 119.293V135.156H1639.18V119.407H1607.26V87.5403H1591.12V103.388H1575.5V135.213H1591.34V119.293H1607.38ZM610.831 55.0297V70.8933L642.632 70.8933V55.1401H610.72V39.3404L562.781 39.3404V55.1828H578.822V70.9448H594.799V55.0259C600.436 55.0259 605.633 55.0259 610.834 55.0259M2330.68 151.42V167.288H2346.42V151.537H2330.56V135.276H2346.66V119.289H2362.96V135.217H2378.92V119.209H2394.74V103.268L2362.68 103.268V87.2955H2346.66V71.4318H2314.86V87.1813H2346.77C2346.77 97.9219 2346.77 108.663 2346.77 119.403H2314.43V103.607H2298.68V135.466H2314.67V151.423H2330.68M1784.19 87.2993H1736.16V103.425H1752.06V119.403H1736.18V135.131L1751.94 135.131V119.289H1784.07V87.1851L1799.94 87.1851V71.4569L1784.19 71.4569V87.2993ZM1237.84 103.006H1285.67V71.4017H1253.59V87.3206H1237.84V103.006ZM1318.12 119.378V135.193H1349.88V119.145L1333.93 119.145V87.4901H1317.83V103.422H1302.19V119.378H1318.12ZM1527.14 135.119H1558.9V103.218H1542.87V87.4436H1527.14V135.119ZM932.052 71.423L868.261 71.423V87.0369L932.052 87.0369V71.423ZM2250.57 103.477V119.476L2266.41 119.476V135.12H2282.21V103.475L2250.57 103.477ZM1205.78 135.106H1221.36V87.4135L1205.78 87.4135V135.106ZM2234.29 86.9529H2250.49V70.9875L2266.06 70.9875V55.4238H2234.29V86.9529ZM1848.72 167.231H1864.29V135.602H1848.72V167.231ZM1783.86 135.749H1768.28V167.378H1783.86V135.749ZM1302.17 167.294H1333.79V151.68H1302.17V167.294ZM2121.51 71.3716H2105.85V103.015H2121.51V71.3716ZM1478.56 87.5051L1446.92 87.5051V103.076L1478.56 103.076V87.5051ZM2073.18 55.4175L2057.6 55.4175V87.047H2073.18V55.4175ZM2363 70.8921H2378.55V39.2262H2363V70.8921ZM96.2479 39.2639L80.6254 39.2639L80.6254 70.8607H96.2466L96.2479 39.2639ZM1366.39 54.8991H1382.08V23.2345L1366.39 23.2345V54.8991ZM1269.95 183.315L1285.67 183.315V167.794L1269.95 167.794V183.315ZM2154.02 167.282H2169.59V151.698H2154.02V167.282ZM723.123 119.573H707.472V135.144H723.123V119.573ZM385.569 119.585H369.948V135.128H385.569V119.585ZM1366.31 119.116H1382.03V103.611H1366.31V119.116ZM1494.98 102.993H1510.7V87.4599H1494.98V102.993ZM1173.53 103.006H1189.1V87.4424H1173.53V103.006ZM723.472 103.09H739.136V87.5051H723.47L723.472 103.09ZM562.877 103.09H578.405V87.3796H562.874L562.877 103.09ZM482.008 87.4549H466.387V102.997H482.008V87.4549ZM659.206 86.9943H674.811V71.4657H659.206V86.9943ZM337.865 87.0106H353.362V71.3138H337.863L337.865 87.0106ZM2298.24 55.3861L2282.74 55.3861V71.0891H2298.24V55.3861ZM2202.12 70.9197H2217.84V55.415H2202.12L2202.12 70.9197ZM1559.03 55.4326H1543.31V70.857H1559.03V55.4326ZM1510.97 70.9109H1526.68V55.4238H1510.97V70.9109ZM1494.49 55.3133L1479 55.3133V71.0126H1494.49L1494.49 55.3133ZM1334.29 70.9022L1349.86 70.9022V55.2882H1334.29V70.9022ZM1205.3 55.356H1189.73V70.9699H1205.3V55.356ZM1125.36 70.9022H1140.91V55.2882L1125.36 55.2882L1125.36 70.9022ZM980.323 55.4188H964.62V70.9059H980.326L980.323 55.4188ZM755.66 70.9109H771.231V55.2757H755.66V70.9109ZM2121.91 54.8351H2137.46V39.2212H2121.91V54.8351ZM2041 39.23H2025.48V54.9418H2041V39.23ZM1719.91 54.8439H1735.62V39.3568H1719.91V54.8439ZM1398.68 54.8941H1414.21V39.1823H1398.68V54.8941ZM1302.1 54.7962L1317.82 54.7962V39.2639L1302.1 39.2639V54.7962ZM1076.73 39.245L1061.09 39.245V54.8088L1076.73 54.8088L1076.73 39.245ZM884.188 54.9016L899.873 54.9016V39.2978L884.193 39.2978L884.188 54.9016ZM819.932 54.859H835.537V39.3316H819.937L819.932 54.859ZM659.214 54.8464L674.792 54.8464V39.2049L659.219 39.2049L659.214 54.8464ZM2185.8 23.2521H2170.23V38.8158L2185.8 38.8158V23.2521ZM1478.91 38.8371L1494.59 38.8371V23.2307L1478.91 23.2307V38.8371ZM867.763 23.1981L852.158 23.1981V38.7279H867.763V23.1981ZM337.617 38.7769H353.327V23.286H337.617V38.7769Z" fill="black"/>
<path d="M626.803 231.757V247.765H562.611V263.755H546.647V215.83H530.628V183.81H546.554V167.502L546.436 167.613H562.761V199.475H578.734V183.679H594.774L594.66 183.564C594.703 194.309 594.745 205.053 594.786 215.795H562.831V231.532H594.663V215.682L610.843 215.808L610.728 215.697V231.873H626.912L626.803 231.757Z" fill="black"/>
<path d="M112.741 183.811V167.752H96.4933V151.427L96.3828 151.545H128.768V167.334H144.75V151.545H160.79L160.676 151.435V167.718H176.909V183.637H208.707V199.842H192.825V231.878L192.936 231.76H176.899V247.662H161.049V215.86H176.581V199.889H160.836V183.849H144.864V199.412H128.743V183.704C123.181 183.704 117.896 183.704 112.609 183.704L112.735 183.815" fill="black"/>
<path d="M1735.97 215.69H1704.07V231.728H1719.62V247.651H1703.94V263.878H1687.65L1687.77 263.993C1687.76 242.541 1687.76 221.087 1687.77 199.633L1687.65 199.743H1719.9V167.498L1719.79 167.612H1735.86V215.809L1735.97 215.69Z" fill="black"/>
<path d="M257.119 199.628C257.114 215.729 257.11 231.831 257.106 247.934L257.22 247.82H209.141V263.68H192.936V231.762L192.825 231.876H209.123V215.957H225.08V231.537H241.04V199.637C246.436 199.67 251.833 199.707 257.229 199.747L257.119 199.628Z" fill="black"/>
<path d="M2250.21 151.429V167.41H2282.34V183.667L2282.46 183.556H2266.44V199.467H2250.49V183.777H2218.17V167.496L2218.06 167.614H2234.25V151.434L2234.14 151.548H2250.32L2250.21 151.429Z" fill="black"/>
<path d="M755.221 167.367V183.421H771.244V199.535H755.641V215.682H739.325L739.439 215.796V199.771H723.513V167.472C734.077 167.472 744.708 167.472 755.348 167.472L755.222 167.362" fill="black"/>
<path d="M1510.94 296.016H1494.91V264.098H1479.06V232.101H1494.66V247.812H1510.8L1510.67 247.702C1510.73 263.845 1510.78 279.989 1510.83 296.135L1510.94 296.016Z" fill="black"/>
<path d="M2378.67 199.911H2394.61V263.672H2379.02V232.042H2363.06V215.914H2378.77C2378.77 210.355 2378.77 205.072 2378.77 199.784L2378.66 199.91" fill="black"/>
<path d="M980.25 199.5V215.542H996.266V231.778H980.569V247.593H964.468V231.942H948.635V215.845H964.256V199.605C969.809 199.605 975.09 199.605 980.377 199.605L980.252 199.495" fill="black"/>
<path d="M1687.76 199.635H1639.75V183.767H1655.36V167.611H1687.76L1687.64 167.5V199.744L1687.76 199.635Z" fill="black"/>
<path d="M385.692 199.733H401.715V215.715H417.713V247.972C407.116 247.972 396.497 247.969 385.857 247.963L385.982 248.077L385.804 199.629L385.692 199.733Z" fill="black"/>
<path d="M996.493 151.427V199.499C991.046 199.499 985.653 199.499 980.254 199.499L980.379 199.609C980.379 194.439 980.379 189.278 980.379 183.711H964.454V167.494L964.344 167.612H980.528V151.431L980.417 151.545H996.602L996.493 151.427Z" fill="black"/>
<path d="M1559.07 199.62V215.585H1543.17V231.754H1526.92L1527.03 231.864V215.886H1511.14V199.734H1559.18L1559.07 199.62Z" fill="black"/>
<path d="M1173.41 215.691H1157.37V183.761H1141.52V167.609H1173.42L1173.3 167.499V215.809L1173.41 215.691Z" fill="black"/>
<path d="M1976.95 215.709V231.717H2008.93V247.561H1961.25V215.824H1977.07L1976.95 215.709Z" fill="black"/>
<path d="M1173.29 231.776V263.673H1157.32V247.984H1141.5V231.891H1173.39L1173.29 231.776Z" fill="black"/>
<path d="M128.633 247.819C123.245 247.819 117.856 247.819 112.466 247.819L112.58 247.934V216.025H144.437V231.631H128.519V247.939L128.633 247.819Z" fill="black"/>
<path d="M112.466 247.815V263.682H80.6094V232.028H96.2696V247.929H112.581L112.466 247.815Z" fill="black"/>
<path d="M1977.07 199.628H1928.74L1928.85 199.746C1928.82 194.352 1928.78 188.955 1928.74 183.555H1976.96V199.746L1977.07 199.628Z" fill="black"/>
<path d="M2330.7 247.929V199.991H2346.44V247.812H2330.59L2330.7 247.929Z" fill="black"/>
<path d="M1832.29 247.841V295.78H1816.55V247.959H1832.41L1832.29 247.841Z" fill="black"/>
<path d="M1382.53 215.943V200.021H1430.21V215.835C1414.35 215.835 1398.38 215.835 1382.41 215.835L1382.54 215.946" fill="black"/>
<path d="M626.795 279.974V295.808H578.906V280.088H626.909L626.795 279.974Z" fill="black"/>
<path d="M80.3213 183.691L112.733 183.806L112.607 183.7C112.607 188.883 112.607 194.065 112.607 199.526H96.6596V215.466H80.4356V183.577L80.3213 183.691Z" fill="black"/>
<path d="M867.89 215.8H899.823V247.638H884.15V231.99H868.004V215.686L867.89 215.8Z" fill="black"/>
<path d="M948.271 167.496V183.347H916.233V151.429L916.122 151.547H932.391V167.612H948.381L948.271 167.496Z" fill="black"/>
<path d="M2201.98 279.974V295.812H2154.09V280.082H2202.09L2201.98 279.974Z" fill="black"/>
<path d="M2282.35 247.842V263.68H2250.5V232.024H2266.16V247.956H2282.46L2282.35 247.842Z" fill="black"/>
<path d="M1366.45 167.594H1382.23V151.704H1398.07V183.363H1366.45V167.594Z" fill="black"/>
<path d="M1253.67 231.887H1269.52V263.879H1253.67L1253.78 263.993C1253.79 253.253 1253.79 242.512 1253.78 231.771L1253.67 231.887Z" fill="black"/>
<path d="M690.94 199.868H675.361V231.494H690.94V199.868Z" fill="black"/>
<path d="M1028.51 232.044H1012.87V263.658H1028.51V232.044Z" fill="black"/>
<path d="M739.325 215.682V231.533H707.493V215.796H739.434L739.325 215.682Z" fill="black"/>
<path d="M931.97 200.011H916.392V231.637H931.97V200.011Z" fill="black"/>
<path d="M1607.14 232.015H1591.52V263.645H1607.14V232.015Z" fill="black"/>
<path d="M1912.49 296.363H1896.82V328.006H1912.49V296.363Z" fill="black"/>
<path d="M449.768 232.142H434.189V263.772H449.768V232.142Z" fill="black"/>
<path d="M289.251 231.866H305.324V263.99L305.439 263.88H289.365V231.748L289.251 231.862" fill="black"/>
<path d="M1189.24 232.044H1221.36V247.565H1189.34C1189.34 242.463 1189.34 237.193 1189.34 231.917L1189.23 232.043" fill="black"/>
<path d="M1092.8 215.977L1109.11 215.825L1108.99 215.711V247.578H1092.91C1092.91 237.061 1092.91 226.456 1092.91 215.85L1092.79 215.976" fill="black"/>
<path d="M948.134 248.111H916.447V263.657H948.134V248.111Z" fill="black"/>
<path d="M2185.8 248.086H2154.06V263.684H2185.8V248.086Z" fill="black"/>
<path d="M2202.09 280.089V248.188H2217.85V279.975H2201.98L2202.09 280.089Z" fill="black"/>
<path d="M128.519 247.926H144.377V279.743H128.633V247.812L128.519 247.926Z" fill="black"/>
<path d="M2057.15 264.213H2025.54V279.827H2057.15V264.213Z" fill="black"/>
<path d="M498.208 247.843V279.724H482.464V247.957H498.322L498.208 247.843Z" fill="black"/>
<path d="M1109.11 215.825V199.97H1140.94V215.707H1108.99L1109.11 215.821" fill="black"/>
<path d="M2298.71 232.006C2298.61 221.265 2298.51 210.525 2298.41 199.784L2298.3 199.91H2314.23V231.899C2309.14 231.899 2303.86 231.899 2298.58 231.891L2298.71 232.005" fill="black"/>
<path d="M1928.74 199.628C1928.74 210.373 1928.73 221.119 1928.72 231.867L1928.84 231.753H1912.79V199.637L1912.67 199.747H1928.85L1928.74 199.628Z" fill="black"/>
<path d="M1430.23 264.136H1398.6V279.767H1430.23V264.136Z" fill="black"/>
<path d="M2073.39 215.709V231.543H2041.58V215.824H2073.5L2073.39 215.709Z" fill="black"/>
<path d="M337.485 199.626V231.532H321.52V199.626L321.409 199.744H337.594L337.485 199.626Z" fill="black"/>
<path d="M2185.93 215.686V231.537H2154.09V215.8H2186.04L2185.92 215.686" fill="black"/>
<path d="M1365.98 264.234H1334.27V279.811H1365.98V264.234Z" fill="black"/>
<path d="M498.322 247.959V232.115H514.079V247.843H498.208L498.322 247.959Z" fill="black"/>
<path d="M369.732 247.817H353.903V232.085H369.618V247.933L369.732 247.817Z" fill="black"/>
<path d="M2218.06 215.711V231.562H2202.22C2202.22 226.157 2202.22 220.847 2202.22 215.538L2202.12 215.664C2207.47 215.715 2212.81 215.769 2218.16 215.828L2218.06 215.711Z" fill="black"/>
<path d="M1751.93 215.7V231.538H1735.98V215.691L1735.87 215.809H1752.05L1751.93 215.7Z" fill="black"/>
<path d="M1639.2 216.058H1623.49V231.482H1639.2V216.058Z" fill="black"/>
<path d="M1366.04 215.978C1371.54 215.965 1377.03 215.953 1382.52 215.94L1382.4 215.83C1382.4 221.016 1382.4 226.198 1382.4 231.597H1366.15C1366.15 226.414 1366.15 221.135 1366.15 215.851L1366.04 215.976" fill="black"/>
<path d="M1317.94 215.8H1333.79V231.553H1318.06V215.686L1317.94 215.8" fill="black"/>
<path d="M1253.79 231.772H1237.7V215.693L1237.59 215.807H1253.77L1253.66 215.693C1253.66 221.091 1253.67 226.488 1253.67 231.884L1253.79 231.77" fill="black"/>
<path d="M1173.4 231.89C1173.4 226.492 1173.4 221.093 1173.4 215.693L1173.29 215.811H1189.48L1189.37 215.693C1189.32 221.142 1189.28 226.59 1189.24 232.039L1189.35 231.913C1183.99 231.87 1178.64 231.824 1173.29 231.774L1173.4 231.888" fill="black"/>
<path d="M1060.91 231.862V215.825H1076.96L1076.85 215.711V231.748H1060.79L1060.91 231.862Z" fill="black"/>
<path d="M2218.17 215.825V199.977H2233.92V215.705H2218.05L2218.17 215.825Z" fill="black"/>
<path d="M2073.51 215.823V199.975H2089.26V215.703H2073.39L2073.51 215.817" fill="black"/>
<path d="M1977.07 215.825C1977.07 210.428 1977.07 205.028 1977.08 199.628L1976.97 199.746H1993.15L1993.04 199.628V215.711H1976.95L1977.07 215.825Z" fill="black"/>
<path d="M1896.43 199.5V215.55H1880.9V199.609C1886.02 199.609 1891.29 199.609 1896.56 199.609L1896.43 199.499" fill="black"/>
<path d="M1768.01 199.626V215.702H1751.93L1752.05 215.812V199.746H1768.12L1768.01 199.626Z" fill="black"/>
<path d="M1462.62 199.62V215.462H1446.87V199.734H1462.74L1462.62 199.62Z" fill="black"/>
<path d="M1350.09 199.734H1366.05V215.97L1366.15 215.845C1360.97 215.845 1355.8 215.845 1350.2 215.845V199.62L1350.09 199.734" fill="black"/>
<path d="M1076.96 215.826V200H1092.81C1092.81 205.22 1092.81 210.593 1092.81 215.974L1092.91 215.848C1087.56 215.805 1082.2 215.759 1076.85 215.709L1076.97 215.823" fill="black"/>
<path d="M369.631 199.626V215.469H353.667V199.626L353.557 199.744H369.742L369.631 199.626Z" fill="black"/>
<path d="M2362.71 183.67H2378.67C2378.67 189.149 2378.67 194.524 2378.67 199.906L2378.78 199.781C2373.6 199.781 2368.44 199.781 2362.83 199.781V183.556L2362.71 183.67Z" fill="black"/>
<path d="M2282.34 183.67H2298.31C2298.31 189.149 2298.31 194.524 2298.31 199.906L2298.41 199.781C2293.24 199.781 2288.07 199.781 2282.46 199.781V183.556L2282.35 183.67" fill="black"/>
<path d="M1912.79 199.636C1907.34 199.594 1901.88 199.552 1896.43 199.511L1896.56 199.621C1896.61 194.266 1896.65 188.915 1896.71 183.567L1896.6 183.685C1901.99 183.647 1907.39 183.608 1912.78 183.567C1912.75 188.965 1912.71 194.362 1912.67 199.758L1912.79 199.648" fill="black"/>
<path d="M1623.36 167.486V183.328H1607.6V167.6H1623.47L1623.36 167.486Z" fill="black"/>
<path d="M1542.98 167.496V183.338H1527.02V167.496L1526.91 167.614H1543.09L1542.98 167.496Z" fill="black"/>
<path d="M1430.23 167.747H1414.68V183.361H1430.23V167.747Z" fill="black"/>
<path d="M980.147 312.366H964.572V327.924H980.147V312.366Z" fill="black"/>
<path d="M417.604 312.344H402.029V327.946H417.604V312.344Z" fill="black"/>
<path d="M867.898 167.61H883.748V183.566H867.898L868.016 183.677V167.5L867.898 167.61Z" fill="black"/>
<path d="M369.415 312.32H353.818V327.976H369.415V312.32Z" fill="black"/>
<path d="M80.4348 183.575H64.585V167.818H80.3205V183.686L80.4348 183.572" fill="black"/>
<path d="M2394.64 296.406H2379.07V311.973H2394.64V296.406Z" fill="black"/>
<path d="M2346.42 296.406H2330.71V311.893H2346.42V296.406Z" fill="black"/>
<path d="M2234.13 296.04V311.861H2218.39V296.15H2234.24L2234.13 296.04Z" fill="black"/>
<path d="M1767.83 296.345H1752.15V311.95H1767.83V296.345Z" fill="black"/>
<path d="M1607.04 296.406H1591.47V311.973H1607.04V296.406Z" fill="black"/>
<path d="M1510.82 296.132H1526.67V311.885H1510.94V296.014L1510.82 296.128" fill="black"/>
<path d="M1141.04 296.291H1125.37V311.876H1141.04V296.291Z" fill="black"/>
<path d="M771.455 151.435V167.376C765.982 167.376 760.608 167.376 755.225 167.376L755.35 167.481C755.397 162.126 755.448 156.776 755.502 151.432L755.392 151.55H771.575L771.455 151.435Z" fill="black"/>
<path d="M546.547 167.501H530.474V151.436L530.363 151.55H546.547L546.433 151.439V167.612L546.547 167.501Z" fill="black"/>
<path d="M466.077 151.419V167.262H450.32V151.534H466.191L466.077 151.419Z" fill="black"/>
<path d="M482.003 296.315H466.398V311.845H482.003V296.315Z" fill="black"/>
<path d="M224.779 296.363H209.128V311.935H224.779V296.363Z" fill="black"/>
<path d="M2234.24 296.153V280.309H2250V296.037H2234.12L2234.24 296.151" fill="black"/>
<path d="M1800.01 280.278H1784.44V295.892H1800.01V280.278Z" fill="black"/>
<path d="M1735.69 280.278H1720.14V295.892H1735.69V280.278Z" fill="black"/>
<path d="M1462.63 280.079H1478.46V295.813H1462.74V279.97L1462.63 280.079Z" fill="black"/>
<path d="M964.192 280.262H948.473V295.766H964.192V280.262Z" fill="black"/>
<path d="M787.538 135.363V151.438H771.465L771.579 151.548V135.367L771.469 135.481H787.649L787.538 135.363Z" fill="black"/>
<path d="M787.34 280.165H771.846V295.864H787.34V280.165Z" fill="black"/>
<path d="M755.165 280.194H739.587V295.838H755.165V280.194Z" fill="black"/>
<path d="M722.975 280.092H707.48V295.795H722.975V280.092Z" fill="black"/>
<path d="M530.108 280.092H514.592V295.804H530.108V280.092Z" fill="black"/>
<path d="M417.861 280.079H433.69V295.813H417.976V279.97L417.861 280.079Z" fill="black"/>
<path d="M321.279 280.24H337.339V295.765H321.391C321.391 290.646 321.391 285.38 321.391 280.112L321.281 280.237" fill="black"/>
<path d="M272.964 280.194H257.384V295.838H272.964V280.194Z" fill="black"/>
<path d="M2121.51 264.246H2105.93V279.797H2121.51V264.246Z" fill="black"/>
<path d="M2008.95 264.2H1993.38V279.844H2008.95V264.2Z" fill="black"/>
<path d="M1944.69 264.234H1929.12V279.81H1944.69V264.234Z" fill="black"/>
<path d="M1687.65 263.882V279.724H1671.89V263.995H1687.77L1687.65 263.88" fill="black"/>
<path d="M1559.07 264.019H1574.89V279.752H1559.18V263.905L1559.07 264.019Z" fill="black"/>
<path d="M1462.74 279.972H1446.89V264.218H1462.63V280.085L1462.74 279.971" fill="black"/>
<path d="M1253.67 263.882V279.724H1237.91V263.995H1253.79L1253.67 263.88" fill="black"/>
<path d="M996.34 264.139H980.748V279.706H996.34V264.139Z" fill="black"/>
<path d="M899.882 264.213H884.332V279.827H899.882V264.213Z" fill="black"/>
<path d="M867.673 264.275H851.963V279.763H867.673V264.275Z" fill="black"/>
<path d="M626.909 280.088V264.25H642.666V279.979H626.799L626.913 280.093" fill="black"/>
<path d="M417.975 279.972H402.125V264.218H417.861V280.085L417.975 279.972Z" fill="black"/>
<path d="M369.461 263.763V279.812H353.933V263.872C359.05 263.872 364.319 263.872 369.588 263.872L369.462 263.762" fill="black"/>
<path d="M305.324 263.995H321.288C321.288 269.473 321.288 274.849 321.288 280.231L321.394 280.106C316.218 280.106 311.045 280.106 305.446 280.106V263.882L305.324 263.995Z" fill="black"/>
<path d="M2330.58 247.815V263.658H2314.83V247.926H2330.7L2330.58 247.812" fill="black"/>
<path d="M1896.61 247.952H1912.44V263.685H1896.72V247.838L1896.61 247.952Z" fill="black"/>
<path d="M1848.25 248.106H1864.3V263.627H1848.36C1848.36 258.513 1848.36 253.246 1848.36 247.979L1848.25 248.105" fill="black"/>
<path d="M1767.85 247.698V263.747H1752.31V247.807C1757.43 247.807 1762.7 247.807 1767.97 247.807L1767.84 247.696" fill="black"/>
<path d="M1655.31 248.031H1639.79V263.743H1655.31V248.031Z" fill="black"/>
<path d="M1559.18 263.902H1543.33V248.149H1559.07V264.016L1559.18 263.902Z" fill="black"/>
<path d="M819.585 248.195H803.866V263.716H819.585V248.195Z" fill="black"/>
<path d="M771.231 248.065H755.66V263.701H771.231V248.065Z" fill="black"/>
<path d="M722.996 248.082H707.459V263.679H722.996V248.082Z" fill="black"/>
<path d="M369.617 247.927C375.069 247.97 380.523 248.017 385.98 248.067L385.854 247.956C385.854 253.102 385.854 258.248 385.854 263.771C380.187 263.771 374.825 263.771 369.458 263.771L369.584 263.881C369.63 258.526 369.679 253.173 369.728 247.823L369.614 247.937" fill="black"/>
<path d="M257.105 247.926H272.955V263.679H257.22V247.817L257.105 247.931" fill="black"/>
<path d="M2282.46 247.955V231.999C2287.94 231.999 2293.32 231.999 2298.7 231.999L2298.58 231.888C2298.58 237.062 2298.58 242.232 2298.58 247.836H2282.35L2282.46 247.955Z" fill="black"/>
<path d="M2121.63 231.75V247.592H2105.88V231.864H2121.75L2121.63 231.75Z" fill="black"/>
<path d="M1928.73 231.867H1944.58V247.617H1928.84V231.753L1928.73 231.867Z" fill="black"/>
<path d="M1896.72 247.84H1880.87V232.089H1896.61V247.953L1896.72 247.838" fill="black"/>
<path d="M1832.41 247.955V232.124H1848.25C1848.25 237.344 1848.25 242.716 1848.25 248.098L1848.36 247.972C1843 247.929 1837.65 247.883 1832.3 247.833L1832.41 247.955Z" fill="black"/>
<path d="M1784.09 231.748V247.705C1778.61 247.705 1773.23 247.705 1767.85 247.705L1767.97 247.81C1767.97 242.64 1767.97 237.471 1767.97 231.87H1784.21L1784.09 231.748Z" fill="black"/>
<path d="M1526.92 231.748V247.705C1521.44 247.705 1516.06 247.705 1510.67 247.705L1510.8 247.81C1510.8 242.64 1510.8 237.471 1510.8 231.87H1527.04L1526.92 231.756" fill="black"/>
<path d="M1446.41 232.048H1430.79V247.726H1446.41V232.048Z" fill="black"/>
<path d="M1414.25 232.053H1398.65V247.583H1414.25V232.053Z" fill="black"/>
<path d="M1060.79 231.75V247.592H1045.03V231.864H1060.91L1060.79 231.75Z" fill="black"/>
<path d="M241.153 167.502H224.969V199.746H241.153V167.502Z" fill="black"/>
<path d="M1961 87.1724H1944.82V103.349H1961V87.1724Z" fill="black"/>
<path d="M1928.85 167.502H1912.67V183.678H1928.85V167.502Z" fill="black"/>
<path d="M1912.78 135.369H1896.59V151.207H1912.78V135.369Z" fill="black"/>
<path d="M2073.51 135.369H2057.33V151.545H2073.51V135.369Z" fill="black"/>
</svg>
