<svg width="320" height="103" viewBox="0 0 320 103" fill="none" xmlns="http://www.w3.org/2000/svg">
<path d="M0 0H302V90H0V0Z" fill="#00FF6D"/>
<path fill-rule="evenodd" clip-rule="evenodd" d="M300 2H2V88H300V2ZM0 0V90H302V0H0Z" fill="#0043FF"/>
<path d="M18 13H320V103H18V13Z" fill="#00FF6D"/>
<path fill-rule="evenodd" clip-rule="evenodd" d="M318 15H20V101H318V15ZM18 13V103H320V13H18Z" fill="#0043FF"/>
<path d="M223.638 67.9999H220.15V52.1919H223.574V54.0479H224.118C224.353 53.3866 224.748 52.9066 225.302 52.6079C225.857 52.2879 226.54 52.1279 227.35 52.1279H229.238V55.2639H227.254C226.188 55.2639 225.313 55.5519 224.63 56.1279C223.969 56.7039 223.638 57.5893 223.638 58.7839V67.9999Z" fill="#0043FF"/>
<path d="M208.726 68.4481C207.147 68.4481 205.75 68.1175 204.534 67.4561C203.339 66.7735 202.411 65.8241 201.75 64.6081C201.088 63.3708 200.758 61.9308 200.758 60.2881V59.9041C200.758 58.2615 201.088 56.8321 201.75 55.6161C202.411 54.3788 203.328 53.4295 204.502 52.7681C205.696 52.0855 207.072 51.7441 208.63 51.7441C210.166 51.7441 211.499 52.0855 212.63 52.7681C213.782 53.4295 214.678 54.3681 215.318 55.5841C215.958 56.7788 216.278 58.1868 216.278 59.8081V61.0881H204.31C204.352 62.3895 204.8 63.4348 205.654 64.2241C206.507 64.9921 207.563 65.3761 208.822 65.3761C210.038 65.3761 210.944 65.1095 211.542 64.5761C212.139 64.0428 212.598 63.4348 212.918 62.7521L215.83 64.2241C215.51 64.8215 215.062 65.4508 214.486 66.1121C213.931 66.7521 213.184 67.3068 212.246 67.7761C211.328 68.2241 210.155 68.4481 208.726 68.4481ZM204.342 58.4321H212.726C212.64 57.3228 212.224 56.4481 211.478 55.8081C210.731 55.1468 209.771 54.8161 208.598 54.8161C207.403 54.8161 206.432 55.1468 205.686 55.8081C204.96 56.4481 204.512 57.3228 204.342 58.4321Z" fill="#0043FF"/>
<path d="M186.831 68H182.447C181.466 68 180.676 67.7014 180.079 67.104C179.482 66.5067 179.183 65.7067 179.183 64.704V55.136H174.959V52.192H179.183V47.04H182.703V52.192H186.319V55.136H182.703V64.096C182.703 64.736 183.002 65.056 183.599 65.056H186.831V68ZM197.199 68H192.847C191.844 68 191.044 67.7014 190.447 67.104C189.871 66.5067 189.583 65.7067 189.583 64.704V55.136H186.319V52.192H189.583V47.04H193.071V52.192H197.711V55.136H193.071V64.096C193.071 64.736 193.38 65.056 193.999 65.056H197.199V68Z" fill="#0043FF"/>
<path d="M171.701 67.9997H168.213V52.1917H171.701V67.9997ZM169.941 50.1437C169.28 50.1437 168.725 49.9303 168.277 49.5037C167.829 49.0557 167.605 48.4903 167.605 47.8077C167.605 47.1037 167.829 46.5383 168.277 46.1117C168.725 45.685 169.28 45.4717 169.941 45.4717C170.624 45.4717 171.189 45.685 171.637 46.1117C172.085 46.5383 172.309 47.1037 172.309 47.8077C172.309 48.4903 172.085 49.0557 171.637 49.5037C171.189 49.9303 170.624 50.1437 169.941 50.1437Z" fill="#0043FF"/>
<path d="M150.389 67.9994H144.533L141.973 52.1914H145.461L147.285 65.6314H147.797L150.357 52.1914H156.021L158.549 65.6314H159.061L160.885 52.1914H164.405L161.845 67.9994H155.989L153.429 54.5594H152.917L150.389 67.9994Z" fill="#0043FF"/>
<path d="M135.265 67.9996H131.585V48.9276H124.801V45.5996H142.017V48.9276H135.265V67.9996Z" fill="#0043FF"/>
<path d="M85.9583 55.1663V53.7497H87.375V52.333H88.7917V50.9163H90.2083V49.4997H91.625V48.083H93.0417V46.6663H94.4583V45.2497H95.875V43.833H91.625V45.2497H90.2083V46.6663H88.7917V48.083H87.375V49.4997H85.9583V50.9163H84.5417V52.333H81.7083V50.9163H80.2917V49.4997H78.875V46.6663H77.4583V45.2497H76.0417V43.833H66.125V45.2497H67.5417V46.6663H68.9583V48.083H70.375V50.9163H71.7917V52.333H73.2083V55.1663H74.625V56.583H76.0417V59.4163H77.4583V60.833H76.0417V62.2497H74.625V63.6663H73.2083V65.083H71.7917V66.4997H70.375V67.9163H68.9583V69.333H67.5417V70.7497H66.125V72.1663H70.375V70.7497H71.7917V69.333H73.2083V67.9163H74.625V66.4997H76.0417V65.083H77.4583V63.6663H80.2917V65.083H81.7083V66.4997H83.125V69.333H84.5417V70.7497H85.9583V72.1663H95.875V70.7497H94.4583V69.333H93.0417V67.9163H91.625V65.083H90.2083V63.6663H88.7917V60.833H87.375V59.4163H85.9583V56.583H84.5417V55.1663H85.9583ZM85.9583 60.833V62.2497H87.375V65.083H88.7917V66.4997H90.2083V69.333H85.9583V66.4997H84.5417V65.083H83.125V63.6663H81.7083V60.833H80.2917V59.4163H78.875V57.9997H77.4583V55.1663H76.0417V53.7497H74.625V50.9163H73.2083V49.4997H71.7917V46.6663H76.0417V48.083H77.4583V50.9163H78.875V52.333H80.2917V55.1663H81.7083V56.583H83.125V57.9997H84.5417V60.833H85.9583Z" fill="#0043FF"/>
</svg>
