<svg width="45" height="45" viewBox="0 0 45 45" fill="none" xmlns="http://www.w3.org/2000/svg">
<path d="M40.724 20.3618V14.8086H38.8729V11.1064H37.0218V9.25536H33.3197V7.4043H27.7665V9.25536H16.6601V7.4043H11.1069V9.25536H7.40476V11.1064H5.5537V14.8086H3.70263V20.3618H1.85156V33.3192H5.5537V35.1703H9.25583V37.0214H12.958V33.3192H11.1069V31.4682H14.809V33.3192H16.6601V35.1703H27.7665V33.3192H29.6176V31.4682H33.3197V33.3192H31.4686V37.0214H35.1708V35.1703H38.8729V33.3192H42.575V20.3618H40.724ZM16.6601 27.766H12.958V25.915H11.1069V22.2128H12.958V20.3618H16.6601V22.2128H18.5112V25.915H16.6601V27.766ZM33.3197 25.915H31.4686V27.766H27.7665V25.915H25.9154V22.2128H27.7665V20.3618H31.4686V22.2128H33.3197V25.915Z" fill="#0000A8"/>
</svg>
