<svg width="112" height="94" viewBox="0 0 112 94" fill="none" xmlns="http://www.w3.org/2000/svg">
<g clip-path="url(#clip0_714_5393)">
<path d="M56.6862 94C63.1295 94 68.3529 88.7701 68.3529 82.3187C68.3529 75.8673 63.1295 70.6375 56.6862 70.6375C50.2429 70.6375 45.0195 75.8673 45.0195 82.3187C45.0195 88.7701 50.2429 94 56.6862 94Z" fill="#FF36AE"/>
<path d="M53.116 81.3568C55.1627 81.3568 56.8219 79.6956 56.8219 77.6463C56.8219 75.5971 55.1627 73.9358 53.116 73.9358C51.0693 73.9358 49.4102 75.5971 49.4102 77.6463C49.4102 79.6956 51.0693 81.3568 53.116 81.3568Z" fill="#FFE1F4"/>
<path d="M53.116 91.5263C55.1627 91.5263 56.8219 89.865 56.8219 87.8158C56.8219 85.7665 55.1627 84.1052 53.116 84.1052C51.0693 84.1052 49.4102 85.7665 49.4102 87.8158C49.4102 89.865 51.0693 91.5263 53.116 91.5263Z" fill="#FFE1F4"/>
<path d="M62.9989 86.3041C65.0456 86.3041 66.7047 84.6428 66.7047 82.5936C66.7047 80.5443 65.0456 78.8831 62.9989 78.8831C60.9521 78.8831 59.293 80.5443 59.293 82.5936C59.293 84.6428 60.9521 86.3041 62.9989 86.3041Z" fill="#FFE1F4"/>
<path d="M49.276 62.117C55.7194 62.117 60.9427 56.8871 60.9427 50.4357C60.9427 43.9843 55.7194 38.7544 49.276 38.7544C42.8327 38.7544 37.6094 43.9843 37.6094 50.4357C37.6094 56.8871 42.8327 62.117 49.276 62.117Z" fill="#FF36AE"/>
<path d="M45.7059 49.4738C47.7526 49.4738 49.4118 47.8125 49.4118 45.7633C49.4118 43.714 47.7526 42.0527 45.7059 42.0527C43.6592 42.0527 42 43.714 42 45.7633C42 47.8125 43.6592 49.4738 45.7059 49.4738Z" fill="#FFE1F4"/>
<path d="M45.7059 59.6432C47.7526 59.6432 49.4118 57.982 49.4118 55.9327C49.4118 53.8834 47.7526 52.2222 45.7059 52.2222C43.6592 52.2222 42 53.8834 42 55.9327C42 57.982 43.6592 59.6432 45.7059 59.6432Z" fill="#FFE1F4"/>
<path d="M55.5887 54.4211C57.6354 54.4211 59.2946 52.7598 59.2946 50.7105C59.2946 48.6613 57.6354 47 55.5887 47C53.542 47 51.8828 48.6613 51.8828 50.7105C51.8828 52.7598 53.542 54.4211 55.5887 54.4211Z" fill="#FFE1F4"/>
<path d="M85.7839 58.2691C92.2272 58.2691 97.4505 53.0392 97.4505 46.5878C97.4505 40.1364 92.2272 34.9065 85.7839 34.9065C79.3405 34.9065 74.1172 40.1364 74.1172 46.5878C74.1172 53.0392 79.3405 58.2691 85.7839 58.2691Z" fill="#FF36AE"/>
<path d="M82.2137 45.6259C84.2604 45.6259 85.9196 43.9646 85.9196 41.9154C85.9196 39.8661 84.2604 38.2048 82.2137 38.2048C80.167 38.2048 78.5078 39.8661 78.5078 41.9154C78.5078 43.9646 80.167 45.6259 82.2137 45.6259Z" fill="#FFE1F4"/>
<path d="M82.2137 55.7953C84.2604 55.7953 85.9196 54.1341 85.9196 52.0848C85.9196 50.0355 84.2604 48.3743 82.2137 48.3743C80.167 48.3743 78.5078 50.0355 78.5078 52.0848C78.5078 54.1341 80.167 55.7953 82.2137 55.7953Z" fill="#FFE1F4"/>
<path d="M92.0965 50.5732C94.1432 50.5732 95.8024 48.9119 95.8024 46.8626C95.8024 44.8134 94.1432 43.1521 92.0965 43.1521C90.0498 43.1521 88.3906 44.8134 88.3906 46.8626C88.3906 48.9119 90.0498 50.5732 92.0965 50.5732Z" fill="#FFE1F4"/>
<path d="M100.335 29.6841C106.778 29.6841 112.001 24.4542 112.001 18.0028C112.001 11.5514 106.778 6.32153 100.335 6.32153C93.8913 6.32153 88.668 11.5514 88.668 18.0028C88.668 24.4542 93.8913 29.6841 100.335 29.6841Z" fill="#FF36AE"/>
<path d="M96.7645 17.0409C98.8112 17.0409 100.47 15.3797 100.47 13.3304C100.47 11.2811 98.8112 9.61987 96.7645 9.61987C94.7178 9.61987 93.0586 11.2811 93.0586 13.3304C93.0586 15.3797 94.7178 17.0409 96.7645 17.0409Z" fill="#FFE1F4"/>
<path d="M96.7645 27.2104C98.8112 27.2104 100.47 25.5491 100.47 23.4998C100.47 21.4506 98.8112 19.7893 96.7645 19.7893C94.7178 19.7893 93.0586 21.4506 93.0586 23.4998C93.0586 25.5491 94.7178 27.2104 96.7645 27.2104Z" fill="#FFE1F4"/>
<path d="M106.647 21.9882C108.694 21.9882 110.353 20.3269 110.353 18.2777C110.353 16.2284 108.694 14.5671 106.647 14.5671C104.601 14.5671 102.941 16.2284 102.941 18.2777C102.941 20.3269 104.601 21.9882 106.647 21.9882Z" fill="#FFE1F4"/>
<path d="M60.2565 28.0352C66.6998 28.0352 71.9232 22.8053 71.9232 16.3539C71.9232 9.9025 66.6998 4.67261 60.2565 4.67261C53.8132 4.67261 48.5898 9.9025 48.5898 16.3539C48.5898 22.8053 53.8132 28.0352 60.2565 28.0352Z" fill="#FF36AE"/>
<path d="M56.6864 15.392C58.7331 15.392 60.3922 13.7307 60.3922 11.6815C60.3922 9.63221 58.7331 7.97095 56.6864 7.97095C54.6396 7.97095 52.9805 9.63221 52.9805 11.6815C52.9805 13.7307 54.6396 15.392 56.6864 15.392Z" fill="#FFE1F4"/>
<path d="M56.6864 25.5614C58.7331 25.5614 60.3922 23.9002 60.3922 21.8509C60.3922 19.8016 58.7331 18.1404 56.6864 18.1404C54.6396 18.1404 52.9805 19.8016 52.9805 21.8509C52.9805 23.9002 54.6396 25.5614 56.6864 25.5614Z" fill="#FFE1F4"/>
<path d="M66.5692 20.3393C68.6159 20.3393 70.275 18.678 70.275 16.6287C70.275 14.5795 68.6159 12.9182 66.5692 12.9182C64.5225 12.9182 62.8633 14.5795 62.8633 16.6287C62.8633 18.678 64.5225 20.3393 66.5692 20.3393Z" fill="#FFE1F4"/>
<path d="M27.862 23.3626C34.3053 23.3626 39.5286 18.1327 39.5286 11.6813C39.5286 5.22989 34.3053 0 27.862 0C21.4187 0 16.1953 5.22989 16.1953 11.6813C16.1953 18.1327 21.4187 23.3626 27.862 23.3626Z" fill="#FF36AE"/>
<path d="M24.2918 10.7194C26.3385 10.7194 27.9977 9.05813 27.9977 7.00887C27.9977 4.9596 26.3385 3.29834 24.2918 3.29834C22.2451 3.29834 20.5859 4.9596 20.5859 7.00887C20.5859 9.05813 22.2451 10.7194 24.2918 10.7194Z" fill="#FFE1F4"/>
<path d="M24.2918 20.8888C26.3385 20.8888 27.9977 19.2276 27.9977 17.1783C27.9977 15.129 26.3385 13.4678 24.2918 13.4678C22.2451 13.4678 20.5859 15.129 20.5859 17.1783C20.5859 19.2276 22.2451 20.8888 24.2918 20.8888Z" fill="#FFE1F4"/>
<path d="M34.1746 15.6667C36.2213 15.6667 37.8805 14.0054 37.8805 11.9561C37.8805 9.90686 36.2213 8.24561 34.1746 8.24561C32.1279 8.24561 30.4688 9.90686 30.4688 11.9561C30.4688 14.0054 32.1279 15.6667 34.1746 15.6667Z" fill="#FFE1F4"/>
<path d="M11.6667 89.3274C18.11 89.3274 23.3333 84.0975 23.3333 77.6461C23.3333 71.1947 18.11 65.9648 11.6667 65.9648C5.22334 65.9648 0 71.1947 0 77.6461C0 84.0975 5.22334 89.3274 11.6667 89.3274Z" fill="#FF36AE"/>
<path d="M8.09651 76.6842C10.1432 76.6842 11.8024 75.023 11.8024 72.9737C11.8024 70.9244 10.1432 69.2632 8.09651 69.2632C6.04981 69.2632 4.39062 70.9244 4.39062 72.9737C4.39062 75.023 6.04981 76.6842 8.09651 76.6842Z" fill="#FFE1F4"/>
<path d="M8.09651 86.8537C10.1432 86.8537 11.8024 85.1924 11.8024 83.1431C11.8024 81.0939 10.1432 79.4326 8.09651 79.4326C6.04981 79.4326 4.39062 81.0939 4.39062 83.1431C4.39062 85.1924 6.04981 86.8537 8.09651 86.8537Z" fill="#FFE1F4"/>
<path d="M17.9793 81.6315C20.026 81.6315 21.6852 79.9702 21.6852 77.921C21.6852 75.8717 20.026 74.2104 17.9793 74.2104C15.9326 74.2104 14.2734 75.8717 14.2734 77.921C14.2734 79.9702 15.9326 81.6315 17.9793 81.6315Z" fill="#FFE1F4"/>
<path d="M90.1784 91.2515C96.6217 91.2515 101.845 86.0216 101.845 79.5702C101.845 73.1188 96.6217 67.8889 90.1784 67.8889C83.7351 67.8889 78.5117 73.1188 78.5117 79.5702C78.5117 86.0216 83.7351 91.2515 90.1784 91.2515Z" fill="#FF36AE"/>
<path d="M86.6082 78.6083C88.6549 78.6083 90.3141 76.947 90.3141 74.8978C90.3141 72.8485 88.6549 71.1873 86.6082 71.1873C84.5615 71.1873 82.9023 72.8485 82.9023 74.8978C82.9023 76.947 84.5615 78.6083 86.6082 78.6083Z" fill="#FFE1F4"/>
<path d="M86.6082 88.7777C88.6549 88.7777 90.3141 87.1165 90.3141 85.0672C90.3141 83.0179 88.6549 81.3567 86.6082 81.3567C84.5615 81.3567 82.9023 83.0179 82.9023 85.0672C82.9023 87.1165 84.5615 88.7777 86.6082 88.7777Z" fill="#FFE1F4"/>
<path d="M96.491 83.5556C98.5377 83.5556 100.197 81.8943 100.197 79.845C100.197 77.7958 98.5377 76.1345 96.491 76.1345C94.4443 76.1345 92.7852 77.7958 92.7852 79.845C92.7852 81.8943 94.4443 83.5556 96.491 83.5556Z" fill="#FFE1F4"/>
<path d="M20.7253 53.5965C27.1686 53.5965 32.3919 48.3666 32.3919 41.9152C32.3919 35.4638 27.1686 30.2339 20.7253 30.2339C14.2819 30.2339 9.05859 35.4638 9.05859 41.9152C9.05859 48.3666 14.2819 53.5965 20.7253 53.5965Z" fill="#FF36AE"/>
<path d="M17.1551 40.9533C19.2018 40.9533 20.861 39.292 20.861 37.2428C20.861 35.1935 19.2018 33.5322 17.1551 33.5322C15.1084 33.5322 13.4492 35.1935 13.4492 37.2428C13.4492 39.292 15.1084 40.9533 17.1551 40.9533Z" fill="#FFE1F4"/>
<path d="M17.1551 51.1227C19.2018 51.1227 20.861 49.4615 20.861 47.4122C20.861 45.3629 19.2018 43.7017 17.1551 43.7017C15.1084 43.7017 13.4492 45.3629 13.4492 47.4122C13.4492 49.4615 15.1084 51.1227 17.1551 51.1227Z" fill="#FFE1F4"/>
<path d="M27.0379 45.9005C29.0846 45.9005 30.7438 44.2393 30.7438 42.19C30.7438 40.1408 29.0846 38.4795 27.0379 38.4795C24.9912 38.4795 23.332 40.1408 23.332 42.19C23.332 44.2393 24.9912 45.9005 27.0379 45.9005Z" fill="#FFE1F4"/>
</g>
<defs>
<clipPath id="clip0_714_5393">
<rect width="112" height="94" fill="white"/>
</clipPath>
</defs>
</svg>
