<svg width="91" height="47" viewBox="0 0 91 47" fill="none" xmlns="http://www.w3.org/2000/svg">
<g clip-path="url(#clip0_714_5385)">
<path d="M83.3499 0H1.40497C0.629027 0 0 0.66276 0 1.48031V45.5197C0 46.3372 0.629027 47 1.40497 47H83.3499C84.1259 47 84.7549 46.3372 84.7549 45.5197V1.48031C84.7549 0.66276 84.1259 0 83.3499 0Z" fill="#00FF6D"/>
<path d="M21.346 7.05005H7.65107C6.87512 7.05005 6.24609 7.71281 6.24609 8.53036V38.9397C6.24609 39.7573 6.87512 40.42 7.65107 40.42H21.346C22.122 40.42 22.751 39.7573 22.751 38.9397V8.53036C22.751 7.71281 22.122 7.05005 21.346 7.05005Z" fill="#0043FF"/>
<path d="M40.971 7.05005H27.2761C26.5001 7.05005 25.8711 7.71281 25.8711 8.53036V38.9397C25.8711 39.7573 26.5001 40.42 27.2761 40.42H40.971C41.747 40.42 42.376 39.7573 42.376 38.9397V8.53036C42.376 7.71281 41.747 7.05005 40.971 7.05005Z" fill="#0043FF"/>
<path d="M89.5963 14.5701H59.8425C59.0665 14.5701 58.4375 15.2328 58.4375 16.0504V31.8898C58.4375 32.7073 59.0665 33.3701 59.8425 33.3701H89.5963C90.3722 33.3701 91.0012 32.7073 91.0012 31.8898V16.0504C91.0012 15.2328 90.3722 14.5701 89.5963 14.5701Z" fill="#00FF6D"/>
<path d="M68.0111 12.2385L58.3555 25.1654H64.7481L60.9652 33.2886L70.4277 20.6689L64.7481 21.0205L68.0111 12.2385Z" fill="#0043FF"/>
</g>
<defs>
<clipPath id="clip0_714_5385">
<rect width="91" height="47" fill="white"/>
</clipPath>
</defs>
</svg>
