<svg width="2411" height="328" viewBox="0 0 2411 328" fill="none" xmlns="http://www.w3.org/2000/svg">
<path d="M723.402 208.72L755.228 208.72L755.228 192.758L739.636 192.758L739.636 176.653L771.323 176.653L771.323 160.515L787.638 160.515L787.524 160.401L787.524 176.247L819.52 176.247L819.52 128.508L803.937 128.508L803.937 112.471L835.611 112.471L835.611 128.386L851.936 128.386L851.825 128.272C851.868 139.012 851.91 149.752 851.951 160.49L836.083 160.49L836.083 176.218L851.84 176.218L851.84 160.371C857.232 160.417 862.624 160.463 868.016 160.506L867.906 160.388L867.906 176.232L884.09 176.232L884.09 160.393L883.979 160.511L916.221 160.386L916.221 192.768L900.329 192.768L900.329 208.372L932.444 208.372L932.444 176.366L948.053 176.366L948.053 160.49L916.107 160.49L916.107 128.382L948.379 128.382L948.265 128.268L948.265 144.287L964.259 144.287L964.259 176.293L996.421 176.293L996.421 192.339L1044.65 192.339L1044.65 176.674L1060.91 176.674L1060.91 128.265L1060.79 128.376L1076.81 128.376L1076.81 144.148L1108.86 144.148L1108.86 128.486L1093.06 128.486L1093.06 112.2L1092.94 112.314L1108.93 112.314L1108.93 96.4201L1125 96.4201L1125 127.983L1141.05 127.983L1141.05 112.305L1157.33 112.305L1157.22 112.191L1157.22 144.093L1173.41 144.093L1173.41 112.192L1173.3 112.306L1189.33 112.306L1189.33 128.093L1205.31 128.093L1205.31 112.306L1221.63 112.306L1221.52 112.192L1221.52 144.503L1189.5 144.503L1189.5 160.485L1157.35 160.485L1157.35 176.551L1141.49 176.551L1141.49 192.508L1157.33 192.508L1157.33 208.372L1173.06 208.372L1173.06 192.623L1157.21 192.623C1157.22 187.229 1157.22 181.832 1157.23 176.431L1189.38 176.431L1189.38 160.366L1205.69 160.366L1205.69 176.29L1221.67 176.29L1221.67 160.497L1237.7 160.497L1237.59 160.387L1237.59 176.286C1253.92 176.286 1269.99 176.286 1286.05 176.286C1286 181.743 1285.96 187.196 1285.92 192.644L1254.02 192.644L1254.02 240.451L1317.79 240.451C1317.79 234.928 1317.79 229.723 1317.79 224.523C1323.25 224.57 1328.7 224.615 1334.15 224.659L1334.15 240.725L1366.3 240.725L1366.3 272.597L1414.24 272.597L1414.24 241.031L1398.21 241.031L1398.21 256.623L1382.22 256.623L1382.22 240.836L1366.19 240.836L1366.19 224.77L1334.04 224.77L1334.04 208.885L1317.91 208.885L1317.91 224.625L1270.01 224.625L1270.01 208.559L1285.8 208.559L1285.8 192.539L1317.76 192.539L1317.76 176.407L1285.95 176.407L1285.95 144.616L1301.81 144.616L1301.81 160.13L1317.89 160.13L1317.89 144.315L1350.21 144.315L1350.21 160.176L1365.94 160.176L1365.94 144.423L1350.09 144.423L1350.09 128.411L1366.08 128.411L1366.08 112.569L1398.09 112.569L1398.09 128.258L1382.51 128.258L1382.51 144.211L1398.45 144.211L1398.45 176.556L1350.47 176.556L1350.47 208.424L1366.32 208.424L1366.32 192.89L1382.45 192.89L1382.45 208.363L1398.33 208.363L1398.33 176.433C1403.72 176.475 1409.12 176.52 1414.51 176.568L1414.4 176.45L1414.4 192.508L1430.57 192.508L1430.57 208.372L1446.31 208.372L1446.31 192.623L1430.46 192.623C1430.5 187.233 1430.54 181.844 1430.58 176.454L1430.47 176.564L1446.66 176.564L1446.66 160.388L1446.55 160.506L1462.73 160.506L1462.62 160.388L1462.62 208.788L1478.84 208.788L1478.84 224.469L1494.95 224.469L1494.95 208.427L1510.67 208.427L1510.67 192.471L1494.88 192.471L1494.88 176.455L1494.76 176.573L1543.1 176.573L1543.1 160.382L1542.98 160.492L1558.83 160.492L1558.83 144.316L1542.98 144.316L1543.1 144.427C1543.1 133.682 1543.1 122.938 1543.11 112.196L1543 112.31L1559.04 112.31L1559.04 128.102L1591.1 128.102L1591.1 112.496L1607.23 112.496L1607.23 128.174L1623.17 128.174L1623.17 144.156L1591.54 144.156L1591.54 160.281L1607.13 160.281L1607.13 192.635L1623.46 192.635L1623.35 192.517L1623.35 208.363L1639.54 208.363L1639.54 192.521L1639.42 192.635L1655.61 192.635L1655.61 176.459L1655.5 176.573L1703.63 176.573L1703.63 160.507L1719.72 160.507L1719.72 144.576L1767.91 144.576L1767.91 96.2444L1784.2 96.2444L1784.08 96.1264L1784.08 112.301L1800.27 112.301L1800.16 112.191L1800.16 128.508L1783.99 128.508L1783.99 160.543L1736.24 160.543L1736.24 176.29L1800.3 176.29L1800.3 144.435L1816.34 144.435L1816.23 144.321L1816.23 160.578L1832.55 160.578L1832.55 176.564L1864.56 176.564L1864.45 176.454L1864.45 192.771L1848.66 192.771L1848.66 208.372L1880.63 208.372L1880.63 176.454L1880.52 176.568L1896.53 176.568L1896.53 128.549L1928.6 128.549L1928.6 144.211L1912.98 144.211L1912.98 160.312L1928.61 160.312L1928.61 176.582L1944.92 176.582L1944.81 176.468C1944.85 181.849 1944.89 187.233 1944.93 192.619L1896.94 192.619L1896.94 224.516L1912.76 224.516L1912.76 208.525L1944.83 208.525L1944.83 192.505L1976.92 192.505L1976.92 128.537L1992.89 128.537L1992.89 160.376L2009.22 160.376L2009.22 176.243L2024.95 176.243L2024.95 160.49L2009.1 160.49L2009.1 144.521L2025.31 144.521L2025.31 128.268L2025.19 128.382C2030.59 128.378 2035.98 128.375 2041.37 128.373L2041.26 128.255L2041.26 160.155L2057.44 160.155L2057.44 128.254L2057.33 128.372L2073.51 128.372L2073.4 128.254L2073.4 144.1L2089.59 144.1L2089.59 128.258L2089.48 128.376L2121.75 128.376L2121.75 96.1365L2121.64 96.2507L2137.62 96.2507L2137.62 128.372L2153.88 128.372L2153.77 128.254L2153.77 160.379L2169.96 160.379C2169.91 165.735 2169.85 171.085 2169.8 176.429C2159.14 176.421 2148.49 176.413 2137.83 176.408L2137.83 144.705L2105.43 144.705L2105.43 160.543L2089.59 160.543L2089.59 176.546L2073.73 176.546L2073.73 224.639L2089.58 224.639L2089.58 256.573L2105.32 256.573L2105.32 224.753L2089.47 224.753C2089.47 208.648 2089.48 192.543 2089.48 176.439L2105.75 176.439L2105.75 192.267L2121.79 192.267L2121.79 176.286C2127.36 176.286 2132.65 176.286 2137.94 176.295C2137.89 187.095 2137.85 197.889 2137.82 208.677L2121.95 208.677L2121.95 240.469L2137.71 240.469L2137.71 208.568L2185.69 208.568L2185.69 192.358L2169.68 192.358C2169.68 186.724 2169.68 181.523 2169.68 176.325C2175.06 176.325 2180.44 176.325 2185.91 176.325L2185.91 160.379L2202.21 160.379L2202.21 176.571L2250.32 176.571L2250.21 176.46L2250.21 192.749L2266.47 192.749L2266.47 208.702L2282.13 208.702L2282.13 240.988L2266.56 240.988C2266.56 246.622 2266.56 251.823 2266.56 257.021C2255.88 257.021 2245.22 257.021 2234.12 257.021L2234.12 241.081L2202.26 241.081L2202.26 256.916L2218.18 256.916L2218.18 272.944C2212.9 272.948 2207.61 272.948 2202.32 272.944L2202.32 288.677L2218.07 288.677L2218.07 272.83L2266.44 272.83L2266.44 256.92L2298.64 256.92L2298.64 224.605L2314.62 224.605L2314.62 176.455L2314.5 176.569L2346.43 176.569L2346.43 208.601L2330.83 208.601L2330.83 224.566L2346.66 224.566L2346.66 240.574L2362.61 240.574L2362.61 192.514L2378.91 192.514L2378.91 208.64L2411 208.64L2411 272.903C2405.62 272.928 2400.25 272.95 2394.88 272.97L2394.88 241.04L2379.13 241.04L2379.13 272.86L2394.99 272.86L2394.99 288.968L2411 288.968L2411 328C1607.33 328 803.667 328 0 328L1.18391e-05 192.576L15.7996 192.576L15.7996 176.51L1.32436e-05 176.51L1.46481e-05 160.445L31.9922 160.445L31.9922 176.259L48.2903 176.259L48.2903 144.337L48.1758 144.452L96.3484 144.452L96.3484 160.303L112.33 160.303L112.33 176.573L160.79 176.573L160.679 176.455L160.679 192.297L176.863 192.297L176.863 176.459L176.749 176.569L192.938 176.569L192.938 160.393L192.827 160.511C198.215 160.468 203.604 160.427 208.995 160.386C208.995 165.67 208.995 170.949 208.995 176.253L224.73 176.253L224.73 160.5L208.876 160.5C208.876 144.454 208.876 128.404 208.876 112.35L208.765 112.476C214.199 112.425 219.634 112.372 225.072 112.319L224.958 112.208L224.958 144.1L257.123 144.1L257.123 128.418L273.071 128.418L273.071 96.2506L289.365 96.2506L289.251 96.1363L289.251 112.152L305.172 112.152L305.172 128.117L289.381 128.117L289.381 144.421L273.559 144.421L273.559 176.286C289.803 176.286 305.725 176.286 321.647 176.286C321.647 181.666 321.647 187.043 321.647 192.517L337.604 192.517L337.604 208.821L321.678 208.821L321.677 224.46L369.418 224.46L369.418 176.569L353.559 176.569L353.559 160.722L337.604 160.722L337.604 176.564C332.246 176.513 326.894 176.461 321.547 176.407L321.547 160.244L289.275 160.244L289.275 144.303C321.449 144.303 353.626 144.304 385.805 144.304L385.805 160.176L401.541 160.176L401.541 144.423L385.691 144.423L385.691 112.551L401.698 112.551L401.698 128.372L417.963 128.372L417.849 128.254L417.849 176.243L434.161 176.243L434.161 160.379L482.255 160.379L482.255 192.511L498.329 192.511L498.329 208.363L514.298 208.363L514.298 192.516L530.169 192.516L530.169 160.291L514.407 160.291L514.407 144.317L514.296 144.435L546.394 144.435L546.394 112.471L562.371 112.471L562.371 144.275L578.492 144.275L578.492 160.248L594.782 160.248L594.782 192.617L578.47 192.617L578.47 208.757L562.818 208.757L562.818 224.423L594.671 224.423L594.671 192.505L610.529 192.505L610.529 144.516L595.031 144.516L595.031 96.2519L626.913 96.2519L626.798 96.1376L626.798 112.103L611.038 112.103L611.038 128.372L642.987 128.372L642.877 128.254L642.877 144.524L659.201 144.524L659.201 176.443L691.202 176.443L691.202 192.305L706.938 192.305L706.938 176.556L691.088 176.556C691.131 171.166 691.173 165.776 691.214 160.387L691.099 160.497L723.358 160.497L723.24 160.387C723.261 175.074 723.285 189.76 723.311 204.442C723.311 205.902 723.451 207.365 723.522 208.82C718.21 208.82 712.908 208.82 707.169 208.82L707.169 224.849L691.347 224.849L691.347 240.549C702.186 240.549 712.838 240.549 723.487 240.549C723.444 245.993 723.405 251.437 723.369 256.878L707.494 256.878L707.494 272.61L723.256 272.61L723.256 256.768L739.122 256.768L739.122 240.67L723.382 240.67C723.39 230.023 723.397 219.372 723.403 208.718M1301.89 288.897L1317.75 288.897L1317.75 273.19L1302 273.19L1302 289.011L1286.14 289.011L1286.14 304.744L1301.89 304.744L1301.89 288.897ZM1141.16 288.897L1157.02 288.897L1157.02 273.19L1141.27 273.19L1141.27 289.011L1125.4 289.011L1125.4 304.744L1141.16 304.744L1141.16 288.897ZM80.4119 288.897L80.4119 304.769L96.1523 304.769L96.1523 289.016L80.2976 289.016L80.2976 273.168L64.5835 273.168L64.5835 288.902L80.4119 288.897ZM1993.05 256.765L2009.27 256.765L2009.27 240.851L2025.02 240.851L2025.02 224.607L2009.25 224.607L2009.25 192.769L1993.06 192.769L1993.06 208.754L1977.09 208.754L1977.09 224.748L1961.21 224.748L1961.21 240.481L1976.97 240.481L1976.97 224.634C1987.77 224.583 1998.56 224.536 2009.34 224.494C2009.36 229.981 2009.37 235.466 2009.38 240.95L1993.16 240.95L1993.16 256.882L1977.29 256.882L1977.29 272.61L1993.05 272.61L1993.05 256.765ZM771.474 240.699L787.327 240.699L787.327 224.994L771.586 224.994L771.586 240.815L755.715 240.815L755.715 256.543L771.472 256.543L771.474 240.699ZM530.373 240.699L546.228 240.699L546.228 224.994L530.488 224.994L530.488 240.815L514.613 240.815L514.613 256.543L530.375 256.543L530.373 240.699ZM466.071 240.708C471.464 240.708 476.854 240.708 482.243 240.708L482.243 256.568L497.978 256.568L497.978 240.819L482.128 240.819L482.128 224.76L466.063 224.76L466.063 176.805L449.954 176.805L449.954 208.402L433.854 208.402L433.854 192.902L417.742 192.902L417.742 208.754L385.83 208.754L385.83 240.815L369.959 240.815L369.959 256.543L385.716 256.543L385.716 240.701L402.032 240.701L402.032 224.931L418.013 224.931L418.013 240.709L450.111 240.709L450.111 256.56L466.075 256.56L466.071 240.708ZM1768.25 224.494L1768.25 240.46L1784.09 240.46L1784.09 224.634L1799.95 224.634L1799.95 192.872L1784.21 192.872L1784.21 224.753L1768.15 224.614L1768.15 208.966L1752.2 208.966L1752.2 224.486C1757.69 224.486 1762.97 224.486 1768.25 224.494M1912.68 272.97L1912.68 257.107L1896.95 257.107L1896.95 272.86L1912.8 272.86L1912.8 304.769L1928.52 304.769L1928.52 272.974C1923.06 272.974 1917.87 272.974 1912.68 272.974M1607.29 256.908L1607.29 241.045L1591.55 241.045L1591.55 256.789L1607.4 256.789L1607.4 288.702L1623.13 288.702L1623.13 256.903L1607.29 256.908ZM787.549 272.84L819.476 272.84L819.476 257.12L787.662 257.12L787.662 272.949L771.791 272.949L771.791 288.677L787.548 288.677L787.549 272.84ZM996.503 240.841L996.503 224.978L980.767 224.978L980.767 240.726L996.622 240.726L996.622 256.573L1028.4 256.573L1028.4 240.836L996.503 240.836M241.056 224.634L257.354 224.634L257.354 208.52L273.005 208.52L273.005 192.851L241.17 192.851L241.17 224.748L225.113 224.608L225.113 192.783L208.89 192.783L208.89 208.791L193.078 208.791L193.078 224.48C203.918 224.48 214.57 224.48 225.21 224.493L225.21 240.458L241.056 240.458L241.056 224.634ZM1575.14 208.568L1590.97 208.568L1590.97 176.837L1559.34 176.837L1559.34 192.674L1575.25 192.674L1575.25 208.681L1527.24 208.681L1527.24 224.429L1575.14 224.429L1575.14 208.568ZM803.623 208.707L803.623 192.843L771.825 192.843L771.825 208.593L803.737 208.593L803.737 240.46L819.883 240.46L819.883 224.612L835.504 224.612L835.504 192.787L819.658 192.787L819.658 208.707L803.623 208.707ZM1800.17 272.97L1800.17 257.107L1768.37 257.107L1768.37 272.86L1800.28 272.86L1800.28 288.66L1848.22 288.66L1848.22 272.817L1832.18 272.817L1832.18 257.055L1816.2 257.055L1816.2 272.974C1810.56 272.974 1805.37 272.974 1800.17 272.974M80.3189 176.579L80.3189 160.712L64.5835 160.712L64.5835 176.463L80.4382 176.463L80.4382 192.724L64.3384 192.724L64.3384 208.711L48.0391 208.711L48.0391 192.783L32.0789 192.783L32.0789 208.791L16.2566 208.791L16.2566 224.731L48.3203 224.731L48.3203 240.704L64.3399 240.704L64.3398 256.568L96.1372 256.568L96.1372 240.819L64.2253 240.819C64.2254 230.078 64.2254 219.337 64.2254 208.597L96.5654 208.597L96.5654 224.393L112.319 224.393L112.319 192.533L96.3284 192.533L96.3284 176.577L80.3213 176.577M626.815 240.701L674.839 240.701L674.839 224.575L658.943 224.575L658.943 208.597L674.818 208.597L674.818 192.869L659.057 192.869L659.057 208.711L626.929 208.711L626.929 240.815L611.058 240.815L611.058 256.543L626.815 256.543L626.815 240.701ZM1173.16 224.994L1125.33 224.994L1125.33 256.598L1157.41 256.598L1157.41 240.679L1173.16 240.679L1173.16 224.994ZM1092.88 208.622L1092.88 192.807L1061.12 192.807L1061.12 208.855L1077.07 208.855L1077.07 240.51L1093.17 240.51L1093.17 224.578L1108.81 224.578L1108.81 208.622L1092.88 208.622ZM883.858 192.881L852.098 192.881L852.098 224.782L868.134 224.782L868.134 240.556L883.858 240.556L883.858 192.881ZM1478.95 256.577L1542.74 256.577L1542.74 240.963L1478.95 240.963L1478.95 256.577ZM160.432 224.523L160.432 208.524L144.586 208.524L144.586 192.88L128.791 192.88L128.791 224.524L160.432 224.523ZM1205.22 192.894L1189.64 192.894L1189.64 240.586L1205.22 240.586L1205.22 192.894ZM176.714 241.047L160.515 241.047L160.515 257.012L144.944 257.012L144.944 272.576L176.714 272.576L176.714 241.047ZM562.282 160.768L546.711 160.768L546.711 192.398L562.282 192.398L562.282 160.768ZM627.141 192.251L642.72 192.251L642.72 160.622L627.141 160.622L627.141 192.251ZM1108.83 160.706L1077.21 160.706L1077.21 176.32L1108.83 176.32L1108.83 160.706ZM289.491 256.628L305.155 256.628L305.155 224.985L289.491 224.985L289.491 256.628ZM932.437 240.495L964.081 240.495L964.081 224.924L932.437 224.924L932.437 240.495ZM337.825 272.582L353.396 272.582L353.396 240.953L337.825 240.953L337.825 272.582ZM48.0027 257.108L32.4492 257.108L32.4492 288.774L48.0027 288.774L48.0027 257.108ZM2314.75 288.736L2330.37 288.736L2330.37 257.139L2314.75 257.139L2314.75 288.736ZM1044.61 273.101L1028.92 273.101L1028.92 304.765L1044.61 304.765L1044.61 273.101ZM1141.05 144.685L1125.33 144.685L1125.33 160.206L1141.05 160.206L1141.05 144.685ZM256.985 160.718L241.414 160.718L241.414 176.302L256.985 176.302L256.985 160.718ZM1687.88 208.427L1703.53 208.427L1703.53 192.856L1687.88 192.856L1687.88 208.427ZM2025.43 208.415L2041.05 208.415L2041.05 192.872L2025.43 192.872L2025.43 208.415ZM1044.69 208.884L1028.97 208.884L1028.97 224.389L1044.69 224.389L1044.69 208.884ZM916.021 225.006L900.301 225.006L900.301 240.54L916.021 240.54L916.021 225.006ZM1237.47 224.994L1221.9 224.994L1221.9 240.558L1237.47 240.558L1237.47 224.994ZM1687.53 224.91L1671.86 224.91L1671.86 240.495L1687.53 240.495L1687.53 224.91ZM1848.12 224.91L1832.59 224.91L1832.59 240.62L1848.13 240.62L1848.12 224.91ZM1928.99 240.545L1944.61 240.545L1944.61 225.003L1928.99 225.003L1928.99 240.545ZM1751.79 241.006L1736.19 241.006L1736.19 256.534L1751.79 256.534L1751.79 241.006ZM2073.13 240.989L2057.64 240.989L2057.64 256.686L2073.14 256.686L2073.13 240.989ZM112.764 272.614L128.262 272.614L128.262 256.911L112.764 256.911L112.764 272.614ZM208.876 257.08L193.157 257.08L193.157 272.585L208.878 272.585L208.876 257.08ZM851.971 272.567L867.69 272.567L867.69 257.143L851.971 257.143L851.971 272.567ZM900.029 257.089L884.318 257.089L884.318 272.576L900.029 272.576L900.029 257.089ZM916.505 272.687L932.002 272.687L932.002 256.987L916.508 256.987L916.505 272.687ZM1076.71 257.098L1061.14 257.098L1061.14 272.712L1076.71 272.712L1076.71 257.098ZM1205.7 272.644L1221.27 272.644L1221.27 257.03L1205.7 257.03L1205.7 272.644ZM1285.64 257.098L1270.09 257.098L1270.09 272.712L1285.64 272.712L1285.64 257.098ZM1430.68 272.581L1446.38 272.581L1446.38 257.094L1430.67 257.094L1430.68 272.581ZM1655.34 257.089L1639.77 257.089L1639.77 272.724L1655.34 272.724L1655.34 257.089ZM289.094 273.165L273.544 273.165L273.544 288.779L289.094 288.779L289.094 273.165ZM369.996 288.77L385.524 288.77L385.524 273.058L369.996 273.058L369.996 288.77ZM691.085 273.156L675.375 273.156L675.375 288.643L691.085 288.643L691.085 273.156ZM1012.32 273.106L996.79 273.106L996.79 288.818L1012.32 288.818L1012.32 273.106ZM1108.9 273.204L1093.18 273.204L1093.18 288.736L1108.9 288.736L1108.9 273.204ZM1334.27 288.755L1349.91 288.755L1349.91 273.191L1334.27 273.191L1334.27 288.755ZM1526.81 273.098L1511.13 273.098L1511.13 288.702L1526.81 288.702L1526.81 273.098ZM1591.07 273.141L1575.46 273.141L1575.46 288.668L1591.06 288.668L1591.07 273.141ZM1751.79 273.154L1736.21 273.154L1736.21 288.795L1751.78 288.795L1751.79 273.154ZM225.202 304.748L240.773 304.748L240.773 289.184L225.202 289.184L225.202 304.748ZM932.094 289.163L916.409 289.163L916.409 304.769L932.094 304.769L932.094 289.163ZM1543.24 304.802L1558.84 304.802L1558.84 289.272L1543.24 289.272L1543.24 304.802ZM2073.38 289.223L2057.67 289.223L2057.67 304.714L2073.38 304.714L2073.38 289.223Z" fill="black"/>
<path d="M1784.2 96.2433L1784.2 80.2353L1848.39 80.2353L1848.39 64.2448L1864.35 64.2448L1864.35 112.17L1880.37 112.17L1880.37 144.19L1864.44 144.19L1864.44 160.498L1864.56 160.387L1848.24 160.387L1848.24 128.525L1832.27 128.525L1832.27 144.321L1816.22 144.321L1816.34 144.436C1816.3 133.691 1816.25 122.947 1816.21 112.205L1848.17 112.205L1848.17 96.468L1816.34 96.468L1816.34 112.318L1800.16 112.192L1800.27 112.303L1800.27 96.1266L1784.09 96.1266L1784.2 96.2433Z" fill="black"/>
<path d="M2298.26 144.189L2298.26 160.248L2314.51 160.248L2314.51 176.573L2314.62 176.455L2282.23 176.455L2282.23 160.666L2266.25 160.666L2266.25 176.455L2250.21 176.455L2250.32 176.565L2250.32 160.282L2234.09 160.282L2234.09 144.363L2202.29 144.363L2202.29 128.158L2218.17 128.158L2218.17 96.1222L2218.06 96.2402L2234.1 96.2402L2234.1 80.3376L2249.95 80.3376L2249.95 112.14L2234.42 112.14L2234.42 128.111L2250.16 128.111L2250.16 144.151L2266.14 144.151L2266.14 128.588L2282.26 128.588L2282.26 144.296C2287.82 144.296 2293.1 144.296 2298.39 144.296L2298.27 144.185" fill="black"/>
<path d="M675.026 112.31L706.934 112.31L706.934 96.272L691.376 96.272L691.376 80.3494L707.065 80.3494L707.065 64.1217L723.347 64.1217L723.233 64.0075C723.237 85.4594 723.237 106.913 723.233 128.367L723.351 128.257L691.097 128.257L691.097 160.502L691.211 160.388L675.138 160.388L675.138 112.191L675.026 112.31Z" fill="black"/>
<path d="M2153.88 128.372C2153.89 112.271 2153.89 96.169 2153.89 80.0656L2153.78 80.1798L2201.86 80.1798L2201.86 64.3199L2218.07 64.3199L2218.07 96.2381L2218.18 96.1238L2201.88 96.1238L2201.88 112.043L2185.92 112.043L2185.92 96.4627L2169.96 96.4627L2169.96 128.363C2164.56 128.33 2159.17 128.293 2153.77 128.253L2153.88 128.372Z" fill="black"/>
<path d="M160.789 176.571L160.789 160.59L128.658 160.59L128.658 144.333L128.543 144.444L144.563 144.444L144.563 128.533L160.51 128.533L160.51 144.223L192.828 144.223L192.828 160.504L192.938 160.386L176.755 160.386L176.755 176.566L176.865 176.452L160.681 176.452L160.789 176.571Z" fill="black"/>
<path d="M1655.78 160.633L1655.78 144.578L1639.76 144.578L1639.76 128.465L1655.36 128.465L1655.36 112.317L1671.68 112.317L1671.56 112.203L1671.56 128.229L1687.49 128.229L1687.49 160.527C1676.92 160.527 1666.29 160.527 1655.65 160.527L1655.78 160.638" fill="black"/>
<path d="M900.063 31.9841L916.091 31.9841L916.091 63.9022L931.938 63.9022L931.938 95.8994L916.341 95.8994L916.341 80.1876L900.204 80.1876L900.33 80.2981C900.274 64.1553 900.222 48.0109 900.173 31.8648L900.063 31.9841Z" fill="black"/>
<path d="M32.3345 128.089L16.3867 128.089L16.3867 64.3281L31.9791 64.3281L31.9791 95.9575L47.9395 95.9575L47.9395 112.086L32.229 112.086C32.229 117.645 32.229 122.928 32.229 128.216L32.3396 128.09" fill="black"/>
<path d="M1430.75 128.5L1430.75 112.458L1414.74 112.458L1414.74 96.2215L1430.43 96.2215L1430.43 80.4068L1446.53 80.4068L1446.53 96.0571L1462.37 96.0571L1462.37 112.154L1446.74 112.154L1446.74 128.394C1441.19 128.394 1435.91 128.394 1430.62 128.394L1430.75 128.505" fill="black"/>
<path d="M723.238 128.365L771.25 128.365L771.25 144.233L755.638 144.233L755.638 160.389L723.24 160.389L723.359 160.5L723.359 128.256L723.238 128.365Z" fill="black"/>
<path d="M2025.31 128.267L2009.29 128.267L2009.29 112.285L1993.29 112.285L1993.29 80.0282C2003.89 80.0282 2014.5 80.0312 2025.14 80.037L2025.02 79.9228L2025.2 128.371L2025.31 128.267Z" fill="black"/>
<path d="M1414.51 176.573L1414.51 128.501C1419.95 128.501 1425.35 128.501 1430.75 128.501L1430.62 128.391C1430.62 133.561 1430.62 138.722 1430.62 144.289L1446.55 144.289L1446.55 160.506L1446.66 160.388L1430.47 160.388L1430.47 176.569L1430.58 176.455L1414.4 176.455L1414.51 176.573Z" fill="black"/>
<path d="M851.933 128.38L851.933 112.415L867.834 112.415L867.834 96.2463L884.082 96.2464L883.968 96.1359L883.968 112.114L899.86 112.114L899.86 128.266L851.825 128.266L851.933 128.38Z" fill="black"/>
<path d="M1237.59 112.309L1253.63 112.309L1253.63 144.239L1269.48 144.239L1269.48 160.391L1237.58 160.391L1237.7 160.501L1237.7 112.191L1237.59 112.309Z" fill="black"/>
<path d="M434.052 112.291L434.052 96.2825L402.069 96.2825L402.069 80.4389L449.749 80.4389L449.749 112.176L433.927 112.176L434.052 112.291Z" fill="black"/>
<path d="M1237.71 96.2236L1237.71 64.3268L1253.68 64.3268L1253.68 80.016L1269.5 80.016L1269.5 96.1094L1237.61 96.1094L1237.71 96.2236Z" fill="black"/>
<path d="M2282.37 80.1807C2287.76 80.1807 2293.14 80.1807 2298.54 80.1807L2298.42 80.0665L2298.42 111.975L2266.56 111.975L2266.56 96.3695L2282.48 96.3695L2282.48 80.0615L2282.37 80.1807Z" fill="black"/>
<path d="M2298.53 80.185L2298.53 64.3176L2330.39 64.3176L2330.39 95.9722L2314.73 95.9722L2314.73 80.0708L2298.42 80.0708L2298.53 80.185Z" fill="black"/>
<path d="M433.933 128.372L482.257 128.372L482.146 128.254C482.181 133.648 482.217 139.045 482.257 144.445L434.037 144.445L434.037 128.254L433.933 128.372Z" fill="black"/>
<path d="M80.2998 80.0708L80.2998 128.008L64.5593 128.008L64.5593 80.1876L80.4141 80.1876L80.2998 80.0708Z" fill="black"/>
<path d="M578.707 80.1582L578.707 32.2195L594.447 32.2195L594.447 80.0402L578.592 80.0402L578.707 80.1582Z" fill="black"/>
<path d="M1028.47 112.056L1028.47 127.979L980.79 127.979L980.79 112.164C996.648 112.164 1012.62 112.164 1028.59 112.164L1028.46 112.054" fill="black"/>
<path d="M1784.21 48.0264L1784.21 32.1915L1832.09 32.1915L1832.09 47.9121L1784.09 47.9121L1784.21 48.0264Z" fill="black"/>
<path d="M2330.68 144.309L2298.27 144.194L2298.39 144.3C2298.39 139.117 2298.39 133.935 2298.39 128.474L2314.34 128.474L2314.34 112.534L2330.56 112.534L2330.56 144.423L2330.68 144.309Z" fill="black"/>
<path d="M1543.11 112.2L1511.18 112.2L1511.18 80.3619L1526.85 80.3619L1526.85 96.0097L1543 96.0097L1543 112.314L1543.11 112.2Z" fill="black"/>
<path d="M1462.73 160.504L1462.73 144.653L1494.77 144.653L1494.77 176.571L1494.88 176.453L1478.61 176.453L1478.61 160.388L1462.62 160.388L1462.73 160.504Z" fill="black"/>
<path d="M209.017 48.0264L209.017 32.1878L256.909 32.1878L256.909 47.9184L208.906 47.9184L209.017 48.0264Z" fill="black"/>
<path d="M128.655 80.1578L128.655 64.3193L160.499 64.3193L160.499 95.9751L144.839 95.9751L144.839 80.0436L128.539 80.0436L128.655 80.1578Z" fill="black"/>
<path d="M1044.55 160.406L1028.77 160.406L1028.77 176.296L1012.93 176.296L1012.93 144.637L1044.55 144.637L1044.55 160.406Z" fill="black"/>
<path d="M1157.33 96.113L1141.48 96.113L1141.48 64.1209L1157.33 64.1209L1157.22 64.0066C1157.21 74.7473 1157.21 85.4879 1157.22 96.2285L1157.33 96.113Z" fill="black"/>
<path d="M1720.06 128.132L1735.64 128.132L1735.64 96.5061L1720.06 96.5061L1720.06 128.132Z" fill="black"/>
<path d="M1382.49 95.9556L1398.13 95.9556L1398.13 64.3424L1382.49 64.3424L1382.49 95.9556Z" fill="black"/>
<path d="M1671.68 112.318L1671.68 96.4672L1703.51 96.4672L1703.51 112.204L1671.57 112.204L1671.68 112.318Z" fill="black"/>
<path d="M1479.03 127.989L1494.61 127.989L1494.61 96.3631L1479.03 96.3631L1479.03 127.989Z" fill="black"/>
<path d="M803.864 95.9854L819.477 95.9854L819.477 64.3546L803.864 64.3546L803.864 95.9854Z" fill="black"/>
<path d="M498.513 31.6367L514.181 31.6367L514.181 -0.00655174L498.513 -0.00655311L498.513 31.6367Z" fill="black"/>
<path d="M1961.23 95.8584L1976.81 95.8584L1976.81 64.2277L1961.23 64.2277L1961.23 95.8584Z" fill="black"/>
<path d="M2121.75 96.134L2105.68 96.134L2105.68 64.01L2105.56 64.1204L2121.64 64.1204L2121.64 96.252L2121.75 96.1377" fill="black"/>
<path d="M1221.76 95.9557L1189.64 95.9557L1189.64 80.4347L1221.66 80.4347C1221.66 85.5369 1221.66 90.8072 1221.66 96.0825L1221.77 95.957" fill="black"/>
<path d="M1318.2 112.022L1301.89 112.174L1302.01 112.289L1302.01 80.4219L1318.1 80.4219C1318.1 90.9387 1318.1 101.543 1318.1 112.149L1318.21 112.024" fill="black"/>
<path d="M1462.87 79.8887L1494.55 79.8887L1494.55 64.3425L1462.87 64.3425L1462.87 79.8887Z" fill="black"/>
<path d="M225.198 79.9131L256.937 79.9131L256.937 64.3155L225.198 64.3155L225.198 79.9131Z" fill="black"/>
<path d="M208.908 47.9105L208.908 79.811L193.151 79.811L193.151 48.0247L209.022 48.0247L208.908 47.9105Z" fill="black"/>
<path d="M2282.48 80.0738L2266.62 80.0738L2266.62 48.2573L2282.37 48.2573L2282.37 80.188L2282.48 80.0738Z" fill="black"/>
<path d="M353.848 63.7871L385.46 63.7871L385.46 48.1732L353.848 48.1732L353.848 63.7871Z" fill="black"/>
<path d="M1912.79 80.1567L1912.79 48.2763L1928.54 48.2763L1928.54 80.0425L1912.68 80.0425L1912.79 80.1567Z" fill="black"/>
<path d="M1301.89 112.175L1301.89 128.03L1270.06 128.03L1270.06 112.293L1302.01 112.293L1301.89 112.179" fill="black"/>
<path d="M112.292 95.9939C112.394 106.735 112.494 117.475 112.593 128.216L112.703 128.09L96.773 128.09L96.773 96.1006C101.865 96.1006 107.138 96.1006 112.419 96.1094L112.294 95.9952" fill="black"/>
<path d="M482.256 128.372C482.261 117.627 482.267 106.881 482.274 96.1326L482.16 96.2468L498.213 96.2468L498.213 128.363L498.331 128.253L482.147 128.253L482.256 128.372Z" fill="black"/>
<path d="M980.769 63.8643L1012.4 63.8643L1012.4 48.2328L980.769 48.2328L980.769 63.8643Z" fill="black"/>
<path d="M337.607 112.291L337.607 96.457L369.422 96.457L369.422 112.176L337.498 112.176L337.607 112.291Z" fill="black"/>
<path d="M2073.52 128.374L2073.52 96.4679L2089.48 96.4679L2089.48 128.374L2089.59 128.256L2073.41 128.256L2073.52 128.374Z" fill="black"/>
<path d="M225.076 112.314L225.076 96.4628L256.907 96.4628L256.907 112.2L224.964 112.2L225.078 112.314" fill="black"/>
<path d="M1045.02 63.7656L1076.73 63.7656L1076.73 48.1894L1045.02 48.1894L1045.02 63.7656Z" fill="black"/>
<path d="M1912.68 80.0412L1912.68 95.8848L1896.92 95.8848L1896.92 80.1566L1912.79 80.1566L1912.68 80.0412Z" fill="black"/>
<path d="M2041.27 80.1827L2057.1 80.1827L2057.1 95.9146L2041.38 95.9145L2041.38 80.0672L2041.27 80.1827Z" fill="black"/>
<path d="M192.943 112.289L192.943 96.4376L208.776 96.4376C208.776 101.843 208.776 107.153 208.776 112.462L208.882 112.336C203.532 112.285 198.184 112.231 192.837 112.172L192.943 112.289Z" fill="black"/>
<path d="M659.068 112.3L659.068 96.4617L675.024 96.4617L675.024 112.309L675.135 112.191L658.95 112.191L659.068 112.3Z" fill="black"/>
<path d="M771.795 111.942L787.509 111.942L787.509 96.5175L771.795 96.5175L771.795 111.942Z" fill="black"/>
<path d="M1044.96 112.022C1039.46 112.035 1033.97 112.047 1028.48 112.06L1028.6 112.17C1028.6 106.984 1028.6 101.802 1028.6 96.4034L1044.85 96.4034C1044.85 101.586 1044.85 106.865 1044.85 112.149L1044.96 112.024" fill="black"/>
<path d="M1093.06 112.2L1077.21 112.2L1077.21 96.4465L1092.94 96.4465L1092.94 112.314L1093.06 112.2" fill="black"/>
<path d="M1157.21 96.2276L1173.3 96.2276L1173.3 112.307L1173.41 112.193L1157.23 112.193L1157.34 112.307C1157.34 106.909 1157.33 101.512 1157.33 96.1159L1157.21 96.2301" fill="black"/>
<path d="M1237.6 96.1096C1237.6 101.508 1237.6 106.907 1237.6 112.307L1237.71 112.189L1221.52 112.189L1221.63 112.307C1221.68 106.858 1221.72 101.41 1221.76 95.9615L1221.65 96.087C1227.01 96.1297 1232.36 96.1761 1237.71 96.2263L1237.6 96.1121" fill="black"/>
<path d="M1350.09 96.1375L1350.09 112.174L1334.04 112.174L1334.15 112.289L1334.15 96.2517L1350.21 96.2517L1350.09 96.1375Z" fill="black"/>
<path d="M192.834 112.174L192.834 128.023L177.077 128.023L177.077 112.295L192.948 112.295L192.834 112.174Z" fill="black"/>
<path d="M337.494 112.176L337.494 128.025L321.737 128.025L321.737 112.297L337.608 112.297L337.494 112.183" fill="black"/>
<path d="M433.931 112.175C433.931 117.572 433.928 122.972 433.923 128.372L434.033 128.254L417.848 128.254L417.958 128.372L417.958 112.289L434.047 112.289L433.931 112.175Z" fill="black"/>
<path d="M514.57 128.499L514.57 112.45L530.099 112.45L530.099 128.39C524.982 128.39 519.712 128.39 514.443 128.39L514.569 128.5" fill="black"/>
<path d="M642.989 128.374L642.989 112.298L659.071 112.298L658.953 112.188L658.953 128.254L642.88 128.254L642.989 128.374Z" fill="black"/>
<path d="M948.376 128.38L948.376 112.538L964.133 112.538L964.133 128.266L948.262 128.266L948.376 128.38Z" fill="black"/>
<path d="M1060.91 128.266L1044.95 128.266L1044.95 112.03L1044.85 112.155C1050.03 112.155 1055.2 112.155 1060.8 112.155L1060.8 128.38L1060.91 128.266" fill="black"/>
<path d="M1334.04 112.174L1334.04 128L1318.19 128C1318.19 122.78 1318.19 117.407 1318.19 112.026L1318.09 112.152C1323.44 112.195 1328.8 112.241 1334.15 112.291L1334.03 112.177" fill="black"/>
<path d="M2041.37 128.374L2041.37 112.531L2057.33 112.531L2057.33 128.374L2057.44 128.256L2041.26 128.256L2041.37 128.374Z" fill="black"/>
<path d="M48.29 144.33L32.3259 144.33C32.3259 138.851 32.3259 133.476 32.3259 128.094L32.2205 128.219C37.3966 128.219 42.5639 128.219 48.1683 128.219L48.1683 144.444L48.29 144.33Z" fill="black"/>
<path d="M128.658 144.33L112.694 144.33C112.694 138.851 112.694 133.476 112.694 128.094L112.589 128.219C117.765 128.219 122.932 128.219 128.536 128.219L128.536 144.444L128.651 144.33" fill="black"/>
<path d="M498.213 128.363C503.665 128.406 509.116 128.448 514.566 128.489L514.441 128.378C514.395 133.733 514.345 139.085 514.293 144.433L514.403 144.315C509.007 144.352 503.612 144.392 498.219 144.433C498.253 139.035 498.29 133.638 498.33 128.241L498.212 128.352" fill="black"/>
<path d="M787.642 160.514L787.642 144.672L803.398 144.672L803.398 160.4L787.527 160.4L787.642 160.514Z" fill="black"/>
<path d="M868.015 160.504L868.015 144.662L883.979 144.662L883.979 160.504L884.09 160.386L867.906 160.386L868.015 160.504Z" fill="black"/>
<path d="M980.77 160.252L996.319 160.252L996.319 144.639L980.77 144.639L980.77 160.252Z" fill="black"/>
<path d="M1430.85 15.6343L1446.43 15.6343L1446.43 0.0755949L1430.85 0.0755935L1430.85 15.6343Z" fill="black"/>
<path d="M1993.4 15.6558L2008.97 15.6558L2008.97 0.0544033L1993.4 0.0544019L1993.4 15.6558Z" fill="black"/>
<path d="M1543.1 160.39L1527.25 160.39L1527.25 144.434L1543.1 144.434L1542.98 144.323L1542.98 160.5L1543.1 160.39Z" fill="black"/>
<path d="M2041.59 15.6802L2057.18 15.6802L2057.18 0.0235901L2041.59 0.0235887L2041.59 15.6802Z" fill="black"/>
<path d="M2330.57 144.425L2346.42 144.425L2346.42 160.182L2330.68 160.182L2330.68 144.314L2330.57 144.428" fill="black"/>
<path d="M16.3637 31.5942L31.9297 31.5942L31.9297 16.0268L16.3637 16.0268L16.3637 31.5942Z" fill="black"/>
<path d="M64.5806 31.5942L80.291 31.5942L80.291 16.1071L64.5806 16.1071L64.5806 31.5942Z" fill="black"/>
<path d="M176.873 31.96L176.873 16.139L192.613 16.139L192.613 31.8495L176.758 31.8495L176.873 31.96Z" fill="black"/>
<path d="M643.165 31.6548L658.851 31.6548L658.851 16.0497L643.165 16.0497L643.165 31.6548Z" fill="black"/>
<path d="M803.955 31.5942L819.526 31.5942L819.526 16.0268L803.955 16.0268L803.955 31.5942Z" fill="black"/>
<path d="M900.177 31.8679L884.327 31.8679L884.327 16.1146L900.062 16.1146L900.062 31.9858L900.177 31.8716" fill="black"/>
<path d="M1269.96 31.709L1285.63 31.709L1285.63 16.1239L1269.96 16.1239L1269.96 31.709Z" fill="black"/>
<path d="M1639.55 176.564L1639.55 160.624C1645.02 160.624 1650.39 160.624 1655.78 160.624L1655.65 160.518C1655.6 165.874 1655.55 171.223 1655.5 176.568L1655.61 176.45L1639.42 176.45L1639.55 176.564Z" fill="black"/>
<path d="M1864.45 160.499L1880.53 160.499L1880.53 176.564L1880.64 176.45L1864.45 176.45L1864.57 176.561L1864.57 160.388L1864.45 160.499Z" fill="black"/>
<path d="M1944.92 176.581L1944.92 160.738L1960.68 160.738L1960.68 176.466L1944.81 176.466L1944.92 176.581Z" fill="black"/>
<path d="M1929 31.6846L1944.6 31.6846L1944.6 16.1548L1929 16.1548L1929 31.6846Z" fill="black"/>
<path d="M2186.22 31.6367L2201.87 31.6367L2201.87 16.0655L2186.22 16.0655L2186.22 31.6367Z" fill="black"/>
<path d="M176.76 31.8468L176.76 47.6904L161.003 47.6904L161.003 31.9623L176.874 31.9623L176.76 31.8481" fill="black"/>
<path d="M610.988 47.7222L626.562 47.7222L626.563 32.1083L610.988 32.1083L610.988 47.7222Z" fill="black"/>
<path d="M675.307 47.7222L690.856 47.7222L690.856 32.1083L675.307 32.1083L675.307 47.7222Z" fill="black"/>
<path d="M948.372 47.9206L932.544 47.9206L932.544 32.1874L948.258 32.1874L948.258 48.0298L948.372 47.9206Z" fill="black"/>
<path d="M1446.81 47.7383L1462.53 47.7383L1462.53 32.2336L1446.81 32.2336L1446.81 47.7383Z" fill="black"/>
<path d="M1623.46 192.636L1623.46 176.562L1639.54 176.562L1639.42 176.451L1639.42 192.632L1639.53 192.518L1623.35 192.518L1623.46 192.636Z" fill="black"/>
<path d="M1623.66 47.8354L1639.15 47.8354L1639.15 32.1362L1623.66 32.1362L1623.66 47.8354Z" fill="black"/>
<path d="M1655.84 47.8062L1671.41 47.8062L1671.41 32.1621L1655.84 32.1621L1655.84 47.8062Z" fill="black"/>
<path d="M1688.03 47.9077L1703.52 47.9077L1703.52 32.2047L1688.03 32.2047L1688.03 47.9077Z" fill="black"/>
<path d="M1880.89 47.9077L1896.41 47.9077L1896.41 32.1959L1880.89 32.1959L1880.89 47.9077Z" fill="black"/>
<path d="M1993.14 47.9206L1977.31 47.9206L1977.31 32.1874L1993.02 32.1874L1993.02 48.0298L1993.14 47.9206Z" fill="black"/>
<path d="M2089.72 47.7602L2073.66 47.7602L2073.66 32.2354L2089.61 32.2354C2089.61 37.3538 2089.61 42.6204 2089.61 47.8882L2089.72 47.7627" fill="black"/>
<path d="M2138.04 47.8062L2153.62 47.8062L2153.62 32.1621L2138.04 32.1621L2138.04 47.8062Z" fill="black"/>
<path d="M289.493 63.7544L305.067 63.7544L305.067 48.2032L289.493 48.2032L289.493 63.7544Z" fill="black"/>
<path d="M402.047 63.8003L417.626 63.8003L417.626 48.1563L402.047 48.1563L402.047 63.8003Z" fill="black"/>
<path d="M466.31 63.7656L481.885 63.7656L481.885 48.1894L466.31 48.1894L466.31 63.7656Z" fill="black"/>
<path d="M723.348 64.1184L723.348 48.276L739.104 48.276L739.104 64.0054L723.233 64.0054L723.348 64.1196" fill="black"/>
<path d="M851.934 63.981L836.105 63.981L836.105 48.2478L851.819 48.2479L851.819 64.0952L851.934 63.981Z" fill="black"/>
<path d="M948.26 48.0277L964.109 48.0277L964.109 63.7822L948.371 63.7822L948.371 47.9148L948.257 48.029" fill="black"/>
<path d="M1157.33 64.1184L1157.33 48.276L1173.09 48.276L1173.09 64.0054L1157.21 64.0054L1157.33 64.1196" fill="black"/>
<path d="M1414.66 63.8613L1430.25 63.8613L1430.25 48.2939L1414.66 48.2939L1414.66 63.8613Z" fill="black"/>
<path d="M1511.12 63.7871L1526.67 63.7871L1526.67 48.1732L1511.12 48.1732L1511.12 63.7871Z" fill="black"/>
<path d="M1543.33 63.7246L1559.04 63.7246L1559.04 48.2375L1543.33 48.2375L1543.33 63.7246Z" fill="black"/>
<path d="M1784.09 47.9122L1784.09 63.7495L1768.33 63.7495L1768.33 48.0214L1784.2 48.0214L1784.09 47.9072" fill="black"/>
<path d="M1993.03 48.0277L2008.88 48.0277L2008.88 63.7822L1993.14 63.7822L1993.14 47.9148L1993.03 48.0277Z" fill="black"/>
<path d="M2041.54 64.237L2041.54 48.1876L2057.07 48.1876L2057.07 64.1278C2051.95 64.1278 2046.68 64.1278 2041.41 64.1278L2041.54 64.2383" fill="black"/>
<path d="M2105.68 64.0052L2089.71 64.0052C2089.71 58.5265 2089.71 53.1508 2089.71 47.7688L2089.61 47.8943C2094.78 47.8943 2099.95 47.8943 2105.55 47.8943L2105.55 64.1182L2105.68 64.0052Z" fill="black"/>
<path d="M80.415 80.1842L80.415 64.3419L96.1719 64.3419L96.1719 80.0738L80.3007 80.0738L80.415 80.188" fill="black"/>
<path d="M514.392 80.0474L498.562 80.0474L498.562 64.3143L514.277 64.3143L514.277 80.1616L514.392 80.0474Z" fill="black"/>
<path d="M562.753 79.8937L546.696 79.8937L546.696 64.3727L562.643 64.3727C562.643 69.4874 562.643 74.754 562.643 80.0205L562.754 79.895" fill="black"/>
<path d="M643.153 80.302L643.153 64.2525L658.686 64.2525L658.686 80.1928C653.568 80.1928 648.299 80.1928 643.03 80.1928L643.156 80.3032" fill="black"/>
<path d="M755.694 79.9687L771.206 79.9688L771.206 64.2569L755.694 64.2569L755.694 79.9687Z" fill="black"/>
<path d="M851.82 64.0979L867.67 64.0979L867.67 79.8511L851.934 79.8511L851.934 63.9836L851.82 64.0979Z" fill="black"/>
<path d="M1591.41 79.8047L1607.13 79.8047L1607.13 64.2837L1591.41 64.2837L1591.41 79.8047Z" fill="black"/>
<path d="M1639.77 79.9346L1655.34 79.9346L1655.34 64.2993L1639.77 64.2993L1639.77 79.9346Z" fill="black"/>
<path d="M1688 79.918L1703.54 79.918L1703.54 64.3204L1688 64.3204L1688 79.918Z" fill="black"/>
<path d="M2041.38 80.0726C2035.93 80.0299 2030.48 79.9835 2025.02 79.9333L2025.14 80.0437C2025.14 74.8976 2025.14 69.7516 2025.14 64.229C2030.81 64.229 2036.17 64.229 2041.54 64.229L2041.42 64.1185C2041.37 69.4738 2041.32 74.8265 2041.27 80.1768L2041.39 80.0625" fill="black"/>
<path d="M2153.89 80.0739L2138.04 80.0739L2138.04 64.3207L2153.78 64.3207L2153.78 80.1831L2153.89 80.0689" fill="black"/>
<path d="M128.54 80.0448L128.54 96.0014C123.059 96.0014 117.681 96.0014 112.296 96.0014L112.421 96.1118C112.421 90.9381 112.421 85.7682 112.421 80.164L128.654 80.164L128.54 80.0448Z" fill="black"/>
<path d="M289.368 96.25L289.368 80.4077L305.125 80.4077L305.125 96.1358L289.254 96.1358L289.368 96.25Z" fill="black"/>
<path d="M482.271 96.1324L466.421 96.1324L466.421 80.3829L482.163 80.3829L482.163 96.2466L482.271 96.1324Z" fill="black"/>
<path d="M514.277 80.1604L530.128 80.1604L530.128 95.9111L514.392 95.9111L514.392 80.0475L514.278 80.1617" fill="black"/>
<path d="M578.594 80.0454L578.594 95.8765L562.748 95.8765C562.748 90.6563 562.748 85.2844 562.748 79.9023L562.637 80.0278C567.995 80.0705 573.35 80.117 578.703 80.1672L578.594 80.0454Z" fill="black"/>
<path d="M626.909 96.252L626.909 80.2954C632.39 80.2954 637.769 80.2954 643.153 80.2954L643.028 80.19C643.028 85.3599 643.028 90.5285 643.028 96.1302L626.789 96.1302L626.909 96.252Z" fill="black"/>
<path d="M884.082 96.252L884.082 80.2954C889.563 80.2954 894.942 80.2954 900.326 80.2954L900.201 80.19C900.201 85.3599 900.201 90.5285 900.201 96.1302L883.962 96.1302L884.076 96.2444" fill="black"/>
<path d="M964.595 95.9517L980.207 95.9517L980.207 80.2737L964.595 80.2737L964.595 95.9517Z" fill="black"/>
<path d="M996.747 95.9468L1012.35 95.9468L1012.35 80.417L996.747 80.417L996.747 95.9468Z" fill="black"/>
<path d="M1350.21 96.25L1350.21 80.4077L1365.97 80.4077L1365.97 96.1358L1350.09 96.1358L1350.21 96.25Z" fill="black"/>
<path d="M2169.85 160.498L2186.03 160.498L2186.03 128.254L2169.85 128.254L2169.85 160.498Z" fill="black"/>
<path d="M449.998 240.827L466.182 240.827L466.182 224.651L449.998 224.651L449.998 240.827Z" fill="black"/>
<path d="M482.147 160.498L498.331 160.498L498.331 144.321L482.147 144.321L482.147 160.498Z" fill="black"/>
<path d="M498.221 192.631L514.405 192.631L514.405 176.793L498.221 176.793L498.221 192.631Z" fill="black"/>
<path d="M337.486 192.631L353.67 192.631L353.67 176.455L337.486 176.455L337.486 192.631Z" fill="black"/>
</svg>
