<svg width="82" height="102" viewBox="0 0 82 102" fill="none" xmlns="http://www.w3.org/2000/svg">
<g clip-path="url(#clip0_714_5377)">
<path d="M36.7887 80.2454L25.3977 101.997C24.1609 98.9796 23.0478 96.2789 21.9502 93.5782C20.5866 90.2256 19.4394 89.6203 15.8651 90.4367C13.0297 91.0886 10.1944 91.7591 6.88281 92.5321C8.03922 90.2815 9.15234 88.1147 10.2624 85.9572L10.7973 84.9173L14.6066 77.5136L17.5997 71.6931C17.6956 72.0098 17.779 72.3388 17.8533 72.6741C18.314 74.7539 19.3436 76.216 20.7814 76.9362C22.0213 77.5664 23.5704 77.6409 25.3143 77.0821C27.2282 76.4706 29.0123 76.3123 30.6758 76.6072C32.9237 76.9983 34.9489 78.209 36.764 80.2174C36.7732 80.2267 36.7825 80.2361 36.7887 80.2454Z" fill="#5218EF"/>
<path d="M74.9531 92.324C73.9235 92.1471 73.203 92.0539 72.5043 91.8925C70.2069 91.3586 67.9157 90.7874 65.6214 90.2504C62.9685 89.6295 61.4132 90.4304 60.3619 92.9697C59.1437 95.9187 57.9502 98.874 56.6732 102C56.4382 101.64 56.2712 101.423 56.1475 101.184C53.8749 96.7755 51.6363 92.3488 49.3297 87.9563C49.308 87.9128 49.2833 87.8694 49.2616 87.8259L48.1671 85.7026H48.164L45.3008 80.146C45.7058 79.7052 46.1171 79.3047 46.5407 78.9415C49.4564 76.4519 52.8576 75.8403 56.7938 77.1069C59.0726 77.8395 61.0453 77.4266 62.4089 76.0887C63.2282 75.2816 63.8281 74.1423 64.1373 72.7175C64.2146 72.3636 64.3012 72.0221 64.4032 71.6899L74.9531 92.324Z" fill="#5218EF"/>
<path d="M79.7583 36.7827C76.4066 33.6815 75.3553 29.9377 76.7405 25.5359C77.9742 21.6245 76.3077 18.8183 72.3499 17.9242C67.9685 16.9371 65.2043 14.2022 64.1746 9.81278C63.2037 5.6779 60.5075 4.03574 56.5405 5.28987C52.1498 6.67437 48.4332 5.59098 45.3443 2.23216C42.577 -0.778976 39.4015 -0.732412 36.5847 2.30977C33.5297 5.60961 29.8348 6.65885 25.506 5.30849C24.7763 5.08188 24.0156 4.95771 23.2705 4.78387C20.4567 4.86769 18.4871 6.5533 17.8873 9.462C16.9442 14.0253 14.1923 16.8657 9.69348 17.9149C5.63058 18.8617 4.02892 21.5935 5.28428 25.6414C6.6293 29.9843 5.56874 33.6939 2.27575 36.7547C-0.745135 39.561 -0.760595 42.7739 2.24174 45.5491C5.59657 48.6503 6.63857 52.4033 5.25645 56.799C4.02583 60.7103 5.68933 63.5135 9.65019 64.4106C13.7626 65.3419 16.4371 67.7943 17.5997 71.6932C17.6956 72.0099 17.7791 72.3389 17.8533 72.6742C18.314 74.7541 19.3436 76.2162 20.7814 76.9364C22.0213 77.5665 23.5704 77.641 25.3143 77.0823C27.2282 76.4707 29.0123 76.3124 30.6758 76.6073C32.9237 76.9984 34.949 78.2091 36.764 80.2176C36.7733 80.2269 36.7825 80.2362 36.7887 80.2455C39.3334 83.0393 42.6914 83.0549 45.2083 80.2486C45.2392 80.2145 45.2701 80.1803 45.301 80.1462C45.7061 79.7054 46.1173 79.3049 46.5409 78.9417C49.4567 76.4521 52.8579 75.8405 56.794 77.1071C59.0728 77.8397 61.0455 77.4268 62.4091 76.0889C63.2285 75.2818 63.8283 74.1425 64.1375 72.7177C64.2148 72.3638 64.3014 72.0223 64.4034 71.6901C65.5567 67.8098 68.2159 65.3636 72.3066 64.4199C76.3633 63.4825 77.9773 60.7321 76.7158 56.6872C75.3615 52.3412 76.4313 48.641 79.7305 45.5833C82.7421 42.7894 82.7607 39.5548 79.7583 36.7827ZM50.5389 44.6458L52.7991 57.8762L40.966 51.6304L29.1329 57.8762L31.3932 44.6458L21.8172 35.2771L35.0479 33.3462L40.966 21.311L46.8841 33.3462L60.1148 35.2771L50.5389 44.6458Z" fill="#5218EF"/>
<path d="M40.9668 71.1685C57.4458 71.1685 70.8046 57.7566 70.8046 41.2123C70.8046 24.6679 57.4458 11.2561 40.9668 11.2561C24.4878 11.2561 11.1289 24.6679 11.1289 41.2123C11.1289 57.7566 24.4878 71.1685 40.9668 71.1685Z" fill="#5218EF"/>
<path d="M50.5381 44.6456L52.7983 57.876L40.9652 51.6302L29.1321 57.876L31.3923 44.6456L21.8164 35.2769L35.0471 33.346L40.9652 21.3108L46.8833 33.346L60.114 35.2769L50.5381 44.6456Z" fill="#FF7300"/>
<path d="M47.4576 44.5432L48.9418 53.2197L41.1808 49.122L33.4199 53.2197L34.901 44.5432L28.6211 38.3968L37.2973 37.1302L41.1808 29.2361L45.0613 37.1302L53.7406 38.3968L47.4576 44.5432Z" fill="#FF7300"/>
</g>
<defs>
<clipPath id="clip0_714_5377">
<rect width="82" height="102" fill="white"/>
</clipPath>
</defs>
</svg>
