<svg width="390" height="384" viewBox="0 0 390 384" fill="none" xmlns="http://www.w3.org/2000/svg">
<g clip-path="url(#clip0_587_1093)">
<path d="M141.599 164.303L140.617 163.822L196.363 49.4307L250.51 159.754L249.528 160.235L196.363 51.9153L141.599 164.303Z" fill="black"/>
<path d="M0 327.23L32.2036 345.633L63.2727 327.23L32.2036 309.078L0 327.23Z" fill="black"/>
<path d="M0 327.23V364.09L32.2036 384V345.633L0 327.23Z" fill="#FF7300"/>
<path d="M32.2031 384L63.2722 365.537V327.23L32.2031 345.633V384Z" fill="#00FFCE"/>
<path d="M108.91 327.23L141.108 345.633L172.183 327.23L141.108 309.078L108.91 327.23Z" fill="black"/>
<path d="M108.91 327.23V364.09L141.108 384V345.633L108.91 327.23Z" fill="#FF7300"/>
<path d="M141.109 384L172.184 365.537V327.23L141.109 345.633V384Z" fill="#00FFCE"/>
<path d="M217.816 327.23L250.02 345.633L281.089 327.23L250.02 309.078L217.816 327.23Z" fill="black"/>
<path d="M217.816 327.23V364.09L250.02 384V345.633L217.816 327.23Z" fill="#FF7300"/>
<path d="M250.02 384L281.089 365.537V327.23L250.02 345.633V384Z" fill="#00FFCE"/>
<path d="M326.727 327.23L358.93 345.633L389.999 327.23L358.93 309.078L326.727 327.23Z" fill="black"/>
<path d="M326.727 327.23V364.09L358.93 384V345.633L326.727 327.23Z" fill="#FF7300"/>
<path d="M358.93 384L389.999 365.537V327.23L358.93 345.633V384Z" fill="#00FFCE"/>
<path d="M180.532 60.6827L31.8867 162.464L32.5026 163.365L181.148 61.5841L180.532 60.6827Z" fill="black"/>
<path d="M196.667 50.2185L196.059 51.1251L358.623 160.447L359.231 159.54L196.667 50.2185Z" fill="black"/>
<path d="M164.727 18.1515L196.93 36.5543L227.999 18.1515L196.93 0L164.727 18.1515Z" fill="black"/>
<path d="M164.727 18.1515V55.0116L196.93 74.9214V36.5542L164.727 18.1515Z" fill="#FF7300"/>
<path d="M196.93 74.9214L227.999 56.4586V18.1515L196.93 36.5542V74.9214Z" fill="#00FFCE"/>
<path d="M359.48 328.71L302.011 261.696L249.473 328.087L195.282 264.901L141.118 328.06L85.449 265.66L31.6562 328.71V217.993H32.7472V325.75L84.7126 264.841L31.7926 205.526L32.6053 204.8L85.4272 264.005L140.54 199.405L195.276 263.23L250.013 199.405L301.967 259.986L358.896 188.052L359.474 328.715L359.48 328.71ZM86.1581 264.819L141.096 326.4L194.556 264.06L140.54 201.076L86.1581 264.819ZM196.002 264.06L249.44 326.367L301.291 260.849L250.024 201.07L196.007 264.06H196.002ZM302.698 260.822L358.378 325.745L357.827 191.165L302.704 260.822H302.698Z" fill="black"/>
<path d="M140.569 328.197L140.373 283.861L32.4058 327.732L31.9258 326.755L137.722 265.076L31.9312 205.636L32.3894 204.647L140.193 244.926L139.991 199.285L140.815 199.765L195.349 231.476L250.566 199.285L250.391 237.974L358.719 193.955L359.209 194.927L250.288 261.319L250.277 263.421L359.193 326.76L358.729 327.743L250.168 287.186L249.988 328.164L193.08 296.191L140.559 328.202L140.569 328.197ZM194.16 295.53L248.913 326.296L249.088 286.771L223.942 277.373L194.16 295.53ZM141.464 283.418L141.655 326.258L192 295.569L158.242 276.598L141.464 283.413V283.418ZM250.184 286.018L353.089 324.467L250.282 264.683L250.189 286.023L250.184 286.018ZM138.829 265.693L39.1149 323.828L140.368 282.681L140.297 266.517L138.829 265.693ZM159.529 276.074L193.064 294.919L222.639 276.893L188.711 264.218L159.529 276.079V276.074ZM225.131 276.653L249.099 285.608L249.197 264.044L247.468 263.039L225.131 276.653ZM141.388 267.134L141.453 282.244L157.02 275.921L141.388 267.14V267.134ZM190.211 263.607L223.828 276.167L246.388 262.416L224.488 249.682L190.211 263.612V263.607ZM141.382 265.879L158.313 275.391L187.206 263.651L159.857 253.433L141.377 264.208V265.879H141.382ZM139.92 265.059L140.286 265.267V264.846L139.92 265.059ZM38.624 208.142L138.819 264.437L140.28 263.585L140.204 246.094L38.624 208.142ZM161.073 252.724L188.695 263.044L223.293 248.988L195.355 232.743L161.079 252.729L161.073 252.724ZM141.295 246.498L141.366 262.946L158.531 252.937L141.295 246.498ZM248.526 262.395L249.197 262.788V261.985L248.526 262.395ZM225.764 249.158L247.446 261.767L249.202 260.696L249.295 239.59L225.764 249.152V249.158ZM250.391 239.154L250.299 260.036L352.882 197.504L250.391 239.154ZM141.295 245.335L159.759 252.232L194.275 232.109L141.104 201.19L141.3 245.335H141.295ZM196.44 232.104L224.575 248.464L249.306 238.416L249.469 201.185L196.44 232.104Z" fill="black"/>
<path d="M0 161.223L32.2036 179.626L63.2727 161.223L32.2036 143.072L0 161.223Z" fill="black"/>
<path d="M0 161.223V198.083L32.2036 217.993V179.626L0 161.223Z" fill="#FF7300"/>
<path d="M32.2031 217.993L63.2722 199.53V161.223L32.2031 179.626V217.993Z" fill="#00FFCE"/>
<path d="M108.91 161.223L141.108 179.626L172.183 161.223L141.108 143.072L108.91 161.223Z" fill="black"/>
<path d="M108.91 161.223V198.083L141.108 217.993V179.626L108.91 161.223Z" fill="#FF7300"/>
<path d="M141.109 217.993L172.184 199.53V161.223L141.109 179.626V217.993Z" fill="#00FFCE"/>
<path d="M217.816 161.223L250.02 179.626L281.089 161.223L250.02 143.072L217.816 161.223Z" fill="black"/>
<path d="M217.816 161.223V198.083L250.02 217.993V179.626L217.816 161.223Z" fill="#FF7300"/>
<path d="M250.02 217.993L281.089 199.53V161.223L250.02 179.626V217.993Z" fill="#00FFCE"/>
<path d="M326.727 161.223L358.93 179.626L389.999 161.223L358.93 143.072L326.727 161.223Z" fill="black"/>
<path d="M326.727 161.223V198.083L358.93 217.993V179.626L326.727 161.223Z" fill="#FF7300"/>
<path d="M358.93 217.993L389.999 199.53V161.223L358.93 179.626V217.993Z" fill="#00FFCE"/>
</g>
<defs>
<clipPath id="clip0_587_1093">
<rect width="390" height="384" fill="white"/>
</clipPath>
</defs>
</svg>
