<svg width="302" height="90" viewBox="0 0 302 90" fill="none" xmlns="http://www.w3.org/2000/svg">
<path d="M0 45C0 20.1472 20.1472 0 45 0H257C281.853 0 302 20.1472 302 45V45C302 69.8528 281.853 90 257 90H45C20.1472 90 0 69.8528 0 45V45Z" fill="#00FFCE"/>
<path d="M218.107 55.9995H214.619V40.1915H218.043V42.0155H218.587C218.864 41.4609 219.334 40.9809 219.995 40.5755C220.656 40.1489 221.542 39.9355 222.651 39.9355C223.803 39.9355 224.731 40.1702 225.435 40.6395C226.139 41.1089 226.672 41.7062 227.035 42.4315H227.579C227.942 41.7275 228.464 41.1409 229.147 40.6715C229.83 40.1809 230.8 39.9355 232.059 39.9355C233.062 39.9355 233.958 40.1489 234.747 40.5755C235.558 40.9809 236.198 41.5995 236.667 42.4315C237.136 43.2635 237.371 44.2875 237.371 45.5035V55.9995H233.883V45.7595C233.883 44.8422 233.627 44.1382 233.115 43.6475C232.603 43.1355 231.899 42.8795 231.003 42.8795C230 42.8795 229.2 43.1995 228.603 43.8395C228.027 44.4795 227.739 45.3969 227.739 46.5915V55.9995H224.251V45.7595C224.251 44.8422 223.995 44.1382 223.483 43.6475C222.971 43.1355 222.267 42.8795 221.371 42.8795C220.368 42.8795 219.568 43.1995 218.971 43.8395C218.395 44.4795 218.107 45.3969 218.107 46.5915V55.9995Z" fill="#FF003D"/>
<path d="M201.014 56.4481C199.904 56.4481 198.902 56.2561 198.006 55.8721C197.11 55.4668 196.395 54.8908 195.862 54.1441C195.35 53.3975 195.094 52.4908 195.094 51.4241C195.094 50.3361 195.35 49.4401 195.862 48.7361C196.395 48.0108 197.12 47.4668 198.038 47.1041C198.955 46.7201 199.99 46.5281 201.142 46.5281H205.846V45.5681C205.846 44.6935 205.579 43.9895 205.046 43.4561C204.512 42.9015 203.691 42.6241 202.582 42.6241C201.472 42.6241 200.63 42.8801 200.054 43.3921C199.499 43.9041 199.136 44.5761 198.966 45.4081L195.702 44.3521C195.958 43.4988 196.363 42.7308 196.918 42.0481C197.494 41.3655 198.251 40.8108 199.19 40.3841C200.128 39.9575 201.27 39.7441 202.614 39.7441C204.683 39.7441 206.304 40.2668 207.478 41.3121C208.651 42.3575 209.238 43.8508 209.238 45.7921V52.1281C209.238 52.7681 209.536 53.0881 210.134 53.0881H211.478V56.0001H208.95C208.203 56.0001 207.584 55.8081 207.094 55.4241C206.624 55.0401 206.39 54.5175 206.39 53.8561V53.7921H205.846C205.718 54.0908 205.483 54.4535 205.142 54.8801C204.8 55.3068 204.299 55.6801 203.638 56.0001C202.998 56.2988 202.123 56.4481 201.014 56.4481ZM201.59 53.5681C202.848 53.5681 203.872 53.2055 204.662 52.4801C205.451 51.7548 205.846 50.7735 205.846 49.5361V49.2161H201.366C200.534 49.2161 199.862 49.3975 199.35 49.7601C198.859 50.1228 198.614 50.6455 198.614 51.3281C198.614 52.0108 198.87 52.5548 199.382 52.9601C199.915 53.3655 200.651 53.5681 201.59 53.5681Z" fill="#FF003D"/>
<path d="M187.638 55.9999H184.15V40.1919H187.574V42.0479H188.118C188.353 41.3866 188.748 40.9066 189.302 40.6079C189.857 40.2879 190.54 40.1279 191.35 40.1279H193.238V43.2639H191.254C190.188 43.2639 189.313 43.5519 188.63 44.1279C187.969 44.7039 187.638 45.5893 187.638 46.7839V55.9999Z" fill="#FF003D"/>
<path d="M162.914 48.1601V47.6801C162.914 46.0161 163.245 44.5975 163.906 43.4241C164.567 42.2508 165.453 41.3441 166.562 40.7041C167.671 40.0641 168.887 39.7441 170.21 39.7441C171.725 39.7441 172.877 40.0215 173.666 40.5761C174.455 41.1308 175.042 41.7281 175.426 42.3681H175.938V40.1921H179.362V59.1041C179.362 60.1068 179.074 60.9068 178.498 61.5041C177.922 62.1015 177.122 62.4001 176.098 62.4001H165.474V59.3281H174.946C175.565 59.3281 175.874 59.0081 175.874 58.3681V53.6001H175.362C175.127 53.9841 174.797 54.3681 174.37 54.7521C173.965 55.1361 173.421 55.4561 172.738 55.7121C172.077 55.9681 171.234 56.0961 170.21 56.0961C168.887 56.0961 167.671 55.7868 166.562 55.1681C165.453 54.5281 164.567 53.6215 163.906 52.4481C163.245 51.2535 162.914 49.8241 162.914 48.1601ZM171.17 53.0241C172.535 53.0241 173.666 52.5868 174.562 51.7121C175.479 50.8375 175.938 49.6215 175.938 48.0641V47.7761C175.938 46.1975 175.49 44.9815 174.594 44.1281C173.698 43.2535 172.557 42.8161 171.17 42.8161C169.805 42.8161 168.674 43.2535 167.778 44.1281C166.882 44.9815 166.434 46.1975 166.434 47.7761V48.0641C166.434 49.6215 166.882 50.8375 167.778 51.7121C168.674 52.5868 169.805 53.0241 171.17 53.0241Z" fill="#FF003D"/>
<path d="M152.257 56.4481C150.678 56.4481 149.281 56.1175 148.065 55.4561C146.87 54.7735 145.942 53.8241 145.281 52.6081C144.62 51.3708 144.289 49.9308 144.289 48.2881V47.9041C144.289 46.2615 144.62 44.8321 145.281 43.6161C145.942 42.3788 146.86 41.4295 148.033 40.7681C149.228 40.0855 150.604 39.7441 152.161 39.7441C153.697 39.7441 155.03 40.0855 156.161 40.7681C157.313 41.4295 158.209 42.3681 158.849 43.5841C159.489 44.7788 159.809 46.1868 159.809 47.8081V49.0881H147.841C147.884 50.3895 148.332 51.4348 149.185 52.2241C150.038 52.9921 151.094 53.3761 152.353 53.3761C153.569 53.3761 154.476 53.1095 155.073 52.5761C155.67 52.0428 156.129 51.4348 156.449 50.7521L159.361 52.2241C159.041 52.8215 158.593 53.4508 158.017 54.1121C157.462 54.7521 156.716 55.3068 155.777 55.7761C154.86 56.2241 153.686 56.4481 152.257 56.4481ZM147.873 46.4321H156.257C156.172 45.3228 155.756 44.4481 155.009 43.8081C154.262 43.1468 153.302 42.8161 152.129 42.8161C150.934 42.8161 149.964 43.1468 149.217 43.8081C148.492 44.4481 148.044 45.3228 147.873 46.4321Z" fill="#FF003D"/>
<path d="M140.263 55.9996H136.775V33.5996H140.263V55.9996Z" fill="#FF003D"/>
<path d="M125.351 56.4481C123.772 56.4481 122.375 56.1175 121.159 55.4561C119.964 54.7735 119.036 53.8241 118.375 52.6081C117.713 51.3708 117.383 49.9308 117.383 48.2881V47.9041C117.383 46.2615 117.713 44.8321 118.375 43.6161C119.036 42.3788 119.953 41.4295 121.127 40.7681C122.321 40.0855 123.697 39.7441 125.255 39.7441C126.791 39.7441 128.124 40.0855 129.255 40.7681C130.407 41.4295 131.303 42.3681 131.943 43.5841C132.583 44.7788 132.903 46.1868 132.903 47.8081V49.0881H120.935C120.977 50.3895 121.425 51.4348 122.279 52.2241C123.132 52.9921 124.188 53.3761 125.447 53.3761C126.663 53.3761 127.569 53.1095 128.167 52.5761C128.764 52.0428 129.223 51.4348 129.543 50.7521L132.455 52.2241C132.135 52.8215 131.687 53.4508 131.111 54.1121C130.556 54.7521 129.809 55.3068 128.871 55.7761C127.953 56.2241 126.78 56.4481 125.351 56.4481ZM120.967 46.4321H129.351C129.265 45.3228 128.849 44.4481 128.103 43.8081C127.356 43.1468 126.396 42.8161 125.223 42.8161C124.028 42.8161 123.057 43.1468 122.311 43.8081C121.585 44.4481 121.137 45.3228 120.967 46.4321Z" fill="#FF003D"/>
<path d="M111.265 55.9996H107.585V36.9276H100.801V33.5996H118.017V36.9276H111.265V55.9996Z" fill="#FF003D"/>
<g clip-path="url(#clip0_683_958)">
<path fill-rule="evenodd" clip-rule="evenodd" d="M73.8106 61.2196C74.2802 61.5521 74.8854 61.6352 75.425 61.4311C75.9645 61.2254 76.3612 60.7646 76.4808 60.2061C77.7481 54.2502 80.8222 39.1754 81.9758 33.7577C82.0633 33.3494 81.9175 32.925 81.5966 32.6523C81.2758 32.3796 80.831 32.3008 80.4343 32.4481C74.3195 34.7115 55.4881 41.7771 47.791 44.6252C47.3025 44.806 46.9845 45.2756 47.0006 45.7904C47.0181 46.3067 47.3652 46.7544 47.8654 46.9046C51.3172 47.9371 55.8483 49.3736 55.8483 49.3736C55.8483 49.3736 57.9658 55.7683 59.0697 59.0204C59.2083 59.4288 59.5277 59.7496 59.9491 59.8604C60.3691 59.9698 60.8183 59.8546 61.1318 59.5585C62.9052 57.8844 65.6468 55.2958 65.6468 55.2958C65.6468 55.2958 70.856 59.1152 73.8106 61.2196ZM57.7543 48.5656L60.2029 56.6419L60.7468 51.5275C60.7468 51.5275 70.207 42.9948 75.6 38.1313C75.7575 37.9883 75.7793 37.7492 75.6481 37.5815C75.5183 37.4138 75.2791 37.3744 75.0997 37.4881C68.8493 41.4796 57.7543 48.5656 57.7543 48.5656Z" fill="#FF003D"/>
</g>
<defs>
<clipPath id="clip0_683_958">
<rect width="35" height="35" fill="white" transform="translate(47 28)"/>
</clipPath>
</defs>
</svg>
