<svg width="24" height="24" viewBox="0 0 24 24" fill="none" xmlns="http://www.w3.org/2000/svg">
<path d="M19 18V17H18V16H16V15H8V16H6V17H5V18H4V21H5V22H19V21H20V18H19ZM8 18V17H16V18H18V20H6V18H8Z" fill="#0000A8"/>
<path d="M15 7V6H14V5H10V6H9V7H8V11H9V12H10V13H14V12H15V11H16V7H15ZM10 11V7H14V11H10Z" fill="#0000A8"/>
<path d="M7 5H8V6H7V8H5V7H4V5H5V4H7V5Z" fill="#0000A8"/>
<path d="M7 12H8V13H2V12H1V10H2V9H7V12Z" fill="#0000A8"/>
<path d="M17 6H16V5H17V4H19V5H20V7H19V8H17V6Z" fill="#0000A8"/>
<path d="M23 10V12H22V13H16V12H17V9H22V10H23Z" fill="#0000A8"/>
</svg>
