<svg width="45" height="45" viewBox="0 0 45 45" fill="none" xmlns="http://www.w3.org/2000/svg">
<g clip-path="url(#clip0_394_4753)">
<path d="M28.9688 16.1321C27.9394 16.1661 26.8734 15.9906 25.8609 16.2623C25.2731 16.6274 26.5444 18.7698 25.4138 19.2057L19.4034 19.2425C19.2797 19.9783 19.7831 22.0415 18.945 22.3189L12.9347 22.3557L12.8981 25.2906C12.8053 25.6585 12.555 25.6953 12.2344 25.7547C11.655 25.8623 6.99188 25.8113 6.73031 25.6302L6.46875 22.3557H3.37219L3.25125 19.5085C2.77031 18.8123 0.576562 19.7434 0 18.8179V13.1576L0.421875 12.733H6.46875V9.61983H16.0312C16.1775 8.52738 15.6291 7.04436 16.4531 6.22361H25.875V3.1104H35.0156C35.8172 2.36323 35.3109 1.00757 35.4375 -0.00280762H45V9.19531C44.3419 10.2679 42.1087 8.91795 41.7741 9.8887L41.7825 18.9764L38.5312 19.2425V28.8651H35.4375V38.4878C34.3519 38.6349 32.8781 38.083 32.0625 38.9123V44.9972H25.875L25.6106 42.0085L22.4972 41.8868V38.4878H19.4062V32.2613H22.5V25.7519L25.7512 25.4859L25.8722 19.2396L28.845 18.9764C29.0925 18.0481 28.9463 17.0717 28.9688 16.1293C29.9953 16.0953 31.0359 16.1547 32.0653 16.1293L32.3269 12.8547L35.4403 12.733V9.617H32.0625V12.733L28.9688 12.7302C28.9519 13.8595 28.9941 15 28.9688 16.1293V16.1321Z" fill="black"/>
</g>
<defs>
<clipPath id="clip0_394_4753">
<rect width="45" height="45" fill="white"/>
</clipPath>
</defs>
</svg>
