<svg width="81" height="86" viewBox="0 0 81 86" fill="none" xmlns="http://www.w3.org/2000/svg">
<path d="M40.5 0C62.8688 0 81 18.1458 81 40.5324C81 62.9191 62.8688 81.0648 40.5 81.0648C18.1312 81.0648 0 62.9191 0 40.5324C0 18.1458 18.1312 0 40.5 0Z" fill="#FF003D"/>
<path d="M20.5684 27.472C21.8472 26.2597 23.5047 25.6555 25.5447 25.6555C27.5847 25.6555 29.2309 26.2635 30.4984 27.472C31.7659 28.6842 32.3959 30.4068 32.3959 32.6361C32.3959 34.8654 31.7622 36.588 30.4984 37.8002C29.2309 39.0124 27.5809 39.6167 25.5447 39.6167C23.5084 39.6167 21.8509 39.0124 20.5684 37.8002C19.2897 36.588 18.6484 34.8654 18.6484 32.6361C18.6484 30.4068 19.2897 28.6842 20.5684 27.472ZM23.5197 32.6361C23.5197 34.5088 24.1797 35.4471 25.4997 35.4471C26.1334 35.4471 26.6284 35.2144 26.9847 34.7453C27.3409 34.2762 27.5209 33.5743 27.5209 32.6399C27.5209 30.7408 26.8459 29.7876 25.4997 29.7876C24.1534 29.7876 23.5197 30.7371 23.5197 32.6399V32.6361ZM46.6834 26.1096L30.7872 55.1991H23.9734L39.8697 26.1096H46.6834ZM40.1997 43.5048C41.4672 42.2926 43.1172 41.6883 45.1534 41.6883C47.1897 41.6883 48.8397 42.2963 50.1072 43.5048C51.3747 44.717 52.0047 46.4396 52.0047 48.6689C52.0047 50.8982 51.3709 52.6208 50.1072 53.833C48.8397 55.0453 47.1897 55.6495 45.1534 55.6495C43.1172 55.6495 41.4634 55.0453 40.1997 53.833C38.9322 52.6208 38.3022 50.8982 38.3022 48.6689C38.3022 46.4396 38.9359 44.717 40.1997 43.5048ZM43.6459 46.5184C43.3009 46.9876 43.1284 47.7044 43.1284 48.6689C43.1284 50.5417 43.7884 51.4799 45.1084 51.4799C45.7422 51.4799 46.2372 51.2472 46.5934 50.7781C46.9497 50.309 47.1297 49.6072 47.1297 48.6727C47.1297 47.7382 46.9497 47.0251 46.5934 46.5447C46.2372 46.0643 45.7384 45.8204 45.1084 45.8204C44.4784 45.8204 43.9872 46.0531 43.6422 46.5222L43.6459 46.5184Z" fill="#00FFCE"/>
<path d="M63.9922 50.4752V41.3354C63.9922 40.6501 63.3807 40.0945 62.6263 40.0945H59.5307C58.7764 40.0945 58.1648 40.6501 58.1648 41.3354V50.4752C58.1648 51.1605 58.7764 51.7161 59.5307 51.7161H62.6263C63.3807 51.7161 63.9922 51.1605 63.9922 50.4752Z" fill="#00FFCE"/>
<path d="M61.7493 55.5971L66.8051 49.0193C67.0514 48.699 66.8271 48.2297 66.4287 48.2297H56.3151C55.9167 48.2297 55.6924 48.699 55.9387 49.0193L60.9945 55.5971C61.1867 55.846 61.5571 55.846 61.7493 55.5971Z" fill="#00FFCE"/>
</svg>
