<svg width="256" height="256" viewBox="0 0 256 256" fill="none" xmlns="http://www.w3.org/2000/svg">
<rect width="256" height="256" fill="black"/>
<path d="M172.415 182.959C170.063 185.026 167.408 186.991 164.222 188.982L148.317 161.487L133.145 187.697H122.853L107.656 161.487L91.7255 189.033C88.7923 187.218 86.0108 185.177 83.4062 182.959L102.447 150.021H112.814L128.012 176.23L143.184 150.021H153.323L172.44 183.009L172.415 182.959Z" fill="white"/>
<path d="M196.374 135.152C196.223 138.226 195.768 141.477 194.984 145.257H156.27L151.112 136.361L166.309 110.152H135.94L130.781 101.255L150.833 66.9055C154.095 68.09 157.206 69.4761 160.139 71.0638L143.247 100.197H173.617L178.75 108.942L163.578 135.152H196.374Z" fill="white"/>
<path d="M119.984 110.152H89.6148L104.812 136.361L99.7294 145.232H60.9652C60.2824 141.88 59.8526 138.428 59.625 134.975H92.3457L77.1738 108.766L82.307 100.021H112.676L95.7847 70.9127C98.7179 69.325 101.828 67.9389 105.09 66.7544L125.142 101.281L119.984 110.177V110.152Z" fill="white"/>
</svg>
