<svg width="37" height="35" viewBox="0 0 37 35" fill="none" xmlns="http://www.w3.org/2000/svg">
<path d="M24.0138 13.928V12.187H25.7291V10.446H27.4444V8.70502H29.1597V6.96401H30.8749V5.22301H32.5902V3.48201H34.3055V1.741H36.0208V0H30.8749V1.741H29.1597V3.48201H27.4444V5.22301H25.7291V6.96401H24.0138V8.70502H22.2986V10.446H18.868V8.70502H17.1527V6.96401H15.4375V3.48201H13.7222V1.741H12.0069V0H0V1.741H1.71527V3.48201H3.43055V5.22301H5.14582V8.70502H6.8611V10.446H8.57637V13.928H10.2916V15.669H12.0069V19.151H13.7222V20.892H12.0069V22.633H10.2916V24.374H8.57637V26.1151H6.8611V27.8561H5.14582V29.5971H3.43055V31.3381H1.71527V33.0791H0V34.8201H5.14582V33.0791H6.8611V31.3381H8.57637V29.5971H10.2916V27.8561H12.0069V26.1151H13.7222V24.374H17.1527V26.1151H18.868V27.8561H20.5833V31.3381H22.2986V33.0791H24.0138V34.8201H36.0208V33.0791H34.3055V31.3381H32.5902V29.5971H30.8749V26.1151H29.1597V24.374H27.4444V20.892H25.7291V19.151H24.0138V15.669H22.2986V13.928H24.0138ZM24.0138 20.892V22.633H25.7291V26.1151H27.4444V27.8561H29.1597V31.3381H24.0138V27.8561H22.2986V26.1151H20.5833V24.374H18.868V20.892H17.1527V19.151H15.4375V17.41H13.7222V13.928H12.0069V12.187H10.2916V8.70502H8.57637V6.96401H6.8611V3.48201H12.0069V5.22301H13.7222V8.70502H15.4375V10.446H17.1527V13.928H18.868V15.669H20.5833V17.41H22.2986V20.892H24.0138Z" fill="#0000A8"/>
</svg>
