<svg width="1920" height="1080" viewBox="0 0 1920 1080" fill="none" xmlns="http://www.w3.org/2000/svg">
<g clip-path="url(#clip0_1269_3075)">
<path d="M1848.88 1029.78C1846.57 1010.45 1872.63 1004.35 1892.45 1019.59C1911.6 1034.32 1909.26 1056.43 1888.35 1058.37C1886.7 1058.52 1884.5 1058.44 1882.86 1058.37C1861.45 1055.65 1850.1 1040.02 1848.87 1029.78" fill="#0012FF"/>
<path d="M1761.59 1027.64C1759.68 1007.13 1788.83 1001.6 1808.13 1018.79C1824.53 1033.4 1820.48 1053.82 1800.79 1055.84C1799.13 1056 1796.9 1055.95 1795.24 1055.9C1773.61 1053.39 1762.54 1037.87 1761.59 1027.64Z" fill="#0012FF"/>
<path d="M1673.6 1025.69C1672.23 1005.21 1701.89 999.381 1720.99 1016.37C1738.5 1031.95 1732.02 1053.22 1709.6 1053.68C1708.73 1053.69 1707.56 1053.63 1706.69 1053.62C1685 1051.34 1674.29 1035.93 1673.59 1025.71" fill="#0012FF"/>
<path d="M1585.07 1023.86C1584.26 1003.48 1614.38 997.336 1633.18 1014.03C1650.51 1029.42 1643.38 1050.78 1620.67 1051.47C1619.8 1051.5 1618.63 1051.44 1617.76 1051.44C1595.89 1049.38 1585.49 1034.07 1585.07 1023.86Z" fill="#0012FF"/>
<path d="M1495.83 1022.1C1495.59 1000.84 1529.32 995.251 1546.67 1013.65C1559.37 1027.11 1555.15 1049.42 1528.26 1049.37C1506.07 1047.52 1495.93 1032.31 1495.83 1022.1Z" fill="#0012FF"/>
<path d="M1406.21 1020.2C1406.52 998.359 1440.21 992.499 1457.71 1011.23C1470.17 1024.58 1465.24 1046.93 1437.98 1047.15C1415.83 1045.54 1406.06 1030.43 1406.21 1020.2Z" fill="#0012FF"/>
<path d="M1316.11 1018.41C1317.01 996.687 1351.07 990.471 1368.17 1008.91C1380.42 1022.13 1374.9 1044.55 1347.37 1045.05C1325.11 1043.67 1315.69 1028.64 1316.12 1018.41" fill="#0012FF"/>
<path d="M1225.37 1016.62C1226.88 995.309 1261.82 988.649 1278.03 1006.59C1289.88 1019.7 1283.73 1042.18 1256.27 1042.96C1233.76 1041.79 1224.64 1026.86 1225.37 1016.62Z" fill="#0012FF"/>
<path d="M1134.36 1014.71C1136.42 993.384 1171.69 986.354 1187.53 1004.13C1199.12 1017.12 1192.25 1039.68 1164.48 1040.74C1142.07 1039.81 1133.37 1024.97 1134.36 1014.71Z" fill="#0012FF"/>
<path d="M1042.73 1012.7C1045.59 989.88 1083.82 983.501 1098.02 1003.47C1107.17 1016.34 1099.35 1037.12 1072.46 1038.44C1049.82 1037.74 1041.44 1022.97 1042.73 1012.7Z" fill="#0012FF"/>
<path d="M950.897 1010.66C954.391 987.66 992.759 980.867 1006.36 1000.85C1015.07 1013.63 1006.7 1034.51 979.955 1036.1C957.307 1035.62 949.328 1020.94 950.883 1010.66" fill="#0012FF"/>
<path d="M858.676 1008.64C862.762 985.588 901.323 978.41 914.438 998.256C922.831 1010.97 913.831 1031.94 886.89 1033.79C863.147 1033.55 856.989 1018.23 858.691 1008.63" fill="#0012FF"/>
<path d="M765.907 1006.69C770.614 983.722 809.457 976.115 822.068 995.709C830.18 1008.32 820.662 1029.39 793.603 1031.55C770.985 1031.55 763.79 1017.02 765.907 1006.69Z" fill="#0012FF"/>
<path d="M673.006 1004.75C678.365 981.56 717.222 973.569 729.197 993.178C736.85 1005.73 726.799 1026.9 699.977 1029.33C677.403 1029.58 670.608 1015.11 673.006 1004.75Z" fill="#0012FF"/>
<path d="M579.794 1003.01C585.73 979.758 624.661 971.337 636.104 990.827C643.416 1003.3 632.758 1024.61 605.802 1027.32C582.207 1027.82 577.322 1012.67 579.794 1003.01Z" fill="#0012FF"/>
<path d="M486.138 1001.51C492.681 978.322 531.789 969.472 542.684 988.711C549.701 1001.1 538.539 1022.53 511.569 1025.55C489.158 1026.27 483.207 1011.93 486.138 1001.51Z" fill="#0012FF"/>
<path d="M392.481 1000.25C399.66 976.84 438.665 967.576 448.879 986.844C455.407 999.172 443.757 1020.73 417.098 1024.02C394.79 1025 389.283 1010.7 392.481 1000.25Z" fill="#0012FF"/>
<path d="M298.662 999.407C306.404 975.906 345.394 966.198 355.031 985.378C361.189 997.646 348.962 1019.34 322.243 1022.94C299.003 1024.21 295.435 1009.19 298.662 999.407Z" fill="#0012FF"/>
<path d="M204.783 999.084C213.058 975.657 251.945 965.52 261.004 984.433C266.836 996.613 254.15 1018.46 227.505 1022.36C204.428 1023.9 201.32 1008.9 204.783 999.084Z" fill="#0012FF"/>
<path d="M110.713 999.275C119.668 975.567 158.481 964.986 166.829 983.973C172.158 996.109 159.014 1018.1 132.739 1022.27C112.178 1023.89 106.05 1011.63 110.713 999.275Z" fill="#0012FF"/>
<path d="M16.9242 1000.19C26.4275 976.368 65.0772 965.342 72.819 984.241C77.7631 996.317 64.0558 1018.49 37.8404 1022.97C15.1627 1025.03 12.9719 1010.09 16.9242 1000.19Z" fill="#0012FF"/>
<path d="M1838.7 907.256C1836.05 888.579 1861.35 882.734 1880.99 897.473C1898.87 910.896 1898.47 930.919 1880.24 934.412C1877.33 934.959 1874.61 934.856 1872.42 934.752C1851.46 932.088 1840.08 917.067 1838.69 907.256" fill="#0012FF"/>
<path d="M1752.33 904.427C1750.22 885.677 1776.01 879.565 1795.45 894.201C1814.01 908.186 1811.52 929.467 1791.09 931.539C1789.48 931.702 1787.29 931.643 1785.66 931.598C1764.48 929.141 1753.41 914.239 1752.31 904.427" fill="#0012FF"/>
<path d="M1665.26 901.867C1663.6 882.11 1692.48 876.502 1711.38 892.914C1727.38 906.81 1723.08 926.478 1703.57 928.594C1701.91 928.772 1699.67 928.742 1698 928.698C1676.77 926.478 1666.07 911.679 1665.24 901.867" fill="#0012FF"/>
<path d="M1577.52 899.53C1576.46 879.862 1605.8 873.957 1624.39 890.088C1641.43 904.887 1634.75 925.384 1612.66 926.065C1611.81 926.094 1610.67 926.035 1609.82 926.035C1588.43 924.037 1578.06 909.327 1577.52 899.53Z" fill="#0012FF"/>
<path d="M1489.08 897.25C1488.6 876.205 1521.05 870.892 1538.68 889.14C1552.4 903.347 1545.62 923.488 1521.08 923.459C1499.36 921.653 1489.3 907.061 1489.08 897.264" fill="#0012FF"/>
<path d="M1400.23 895.164C1400.36 874.105 1433.23 868.467 1450.49 886.536C1464.09 900.788 1457.07 920.84 1431.52 921.048C1409.85 919.479 1400.19 904.976 1400.25 895.164" fill="#0012FF"/>
<path d="M1310.9 893.195C1311.65 872.255 1344.9 866.276 1361.71 884.05C1374.9 897.99 1366.73 918.295 1341.63 918.768C1319.85 917.422 1310.54 903.007 1310.9 893.195Z" fill="#0012FF"/>
<path d="M1220.9 891.348C1222.3 870.807 1256.44 864.384 1272.35 881.684C1285.23 895.684 1276.98 915.885 1251.24 916.625C1229.22 915.485 1220.25 901.16 1220.91 891.348" fill="#0012FF"/>
<path d="M1130.63 889.409C1132.67 868.276 1166.66 861.602 1182.59 879.213C1195.14 893.079 1186.17 913.399 1160.15 914.39C1138.22 913.487 1129.68 899.236 1130.63 889.409Z" fill="#0012FF"/>
<path d="M1039.8 887.692C1042.61 865.716 1080 859.559 1093.84 878.798C1103.69 892.458 1093.33 911.193 1068.86 912.377C1046.71 911.696 1038.54 897.534 1039.8 887.692Z" fill="#0012FF"/>
<path d="M948.78 885.974C952.274 863.82 989.798 857.278 1003.05 876.517C1011.48 888.786 1003.25 908.838 977.157 910.377C955.012 909.919 947.241 895.845 948.795 885.974" fill="#0012FF"/>
<path d="M857.388 884.407C861.503 862.193 899.235 855.268 911.951 874.373C920.062 886.568 911.136 906.709 884.847 908.529C862.865 908.307 855.553 894.293 857.388 884.407Z" fill="#0012FF"/>
<path d="M765.507 883.015C770.303 860.876 808.317 853.536 820.484 872.404C829.114 885.783 817.05 904.903 792.419 906.857C770.304 906.857 763.361 892.916 765.507 883.015Z" fill="#0012FF"/>
<path d="M673.554 881.756C679.031 859.41 717.088 851.67 728.575 870.568C735.903 882.6 725.866 902.963 699.695 905.331C677.625 905.568 671.126 891.701 673.554 881.756Z" fill="#0012FF"/>
<path d="M581.363 880.78C587.447 858.375 625.593 850.22 636.517 869C643.474 880.973 632.802 901.455 606.498 904.089C584.664 904.563 578.654 890.74 581.363 880.78Z" fill="#0012FF"/>
<path d="M488.802 880.142C495.537 857.78 533.861 849.212 544.208 867.755C551.55 880.896 537.873 900.431 513.315 903.184C491.407 903.894 485.797 890.146 488.802 880.142Z" fill="#0012FF"/>
<path d="M396.315 879.833C403.746 857.264 441.982 848.281 451.603 866.854C457.732 878.694 446.008 899.412 419.97 902.624C398.166 903.571 393.015 889.867 396.315 879.833Z" fill="#0012FF"/>
<path d="M303.754 880.025C311.777 857.353 350.012 847.956 359.027 866.425C364.77 878.19 352.425 899.072 326.343 902.579C304.834 903.763 300.186 890.103 303.754 880.025Z" fill="#0012FF"/>
<path d="M211.238 880.764C219.838 858.151 257.97 848.324 266.393 866.557C272.358 879.491 257.215 899.529 232.939 903.081C211.578 904.502 207.404 890.886 211.238 880.764Z" fill="#0012FF"/>
<path d="M118.604 882.098C127.93 859.218 166.017 848.948 173.685 867.254C178.569 878.916 165.232 900.079 139.579 904.148C118.249 905.821 114.474 892.265 118.619 882.098" fill="#0012FF"/>
<path d="M26.3541 884.17C36.257 861.173 74.211 850.473 81.2275 868.691C85.6979 880.293 71.7686 901.633 46.1748 906.014C25.1995 907.923 21.9577 894.382 26.3541 884.17Z" fill="#0012FF"/>
<path d="M1910.82 794.991C1907.43 777.942 1928.85 771.978 1948.42 784.528C1968.1 797.151 1970.13 818.137 1951.97 821.318C1949.2 821.807 1946.55 821.659 1944.42 821.54C1924.35 818.788 1912.68 804.359 1910.82 794.991Z" fill="#0012FF"/>
<path d="M1826.23 791.216C1823.29 773.354 1847.8 767.804 1867.24 781.937C1884.96 794.813 1884.96 813.903 1867.25 817.159C1864.44 817.677 1861.78 817.559 1859.63 817.455C1839.16 814.88 1827.77 800.569 1826.23 791.216Z" fill="#0012FF"/>
<path d="M1741.05 787.796C1738.66 769.875 1763.69 764.073 1782.88 778.073C1800.3 790.786 1799.68 809.891 1781.74 813.325C1778.88 813.872 1776.29 813.783 1774.01 813.709C1753.33 811.341 1742.28 797.134 1741.03 787.796" fill="#0012FF"/>
<path d="M1655.12 784.705C1653.19 765.821 1681.26 760.493 1699.94 776.195C1716.09 789.781 1712.27 808.206 1692.88 810.189C1691.27 810.352 1689.07 810.322 1687.45 810.278C1666.72 808.146 1656.06 794.028 1655.1 784.705" fill="#0012FF"/>
<path d="M1568.52 781.92C1567.22 763.14 1595.76 757.517 1614.08 772.952C1630 786.345 1625.51 804.829 1605.79 807.034C1604.17 807.212 1601.99 807.197 1600.36 807.182C1579.48 805.258 1569.16 791.259 1568.52 781.92Z" fill="#0012FF"/>
<path d="M1481.16 779.315C1480.46 759.218 1512.05 754.172 1529.44 771.605C1543.59 785.798 1536.01 803.512 1515.47 804.281C1514.62 804.311 1513.5 804.281 1512.66 804.281C1491.46 802.55 1481.48 788.654 1481.16 779.33" fill="#0012FF"/>
<path d="M1393.39 776.981C1393.33 756.869 1425.35 751.497 1442.34 768.767C1454.39 781.021 1450.87 801.444 1424.14 801.621C1402.97 800.126 1393.42 786.304 1393.39 776.981Z" fill="#0012FF"/>
<path d="M1305.09 774.864C1305.7 754.871 1338.1 749.158 1354.62 766.148C1367.72 779.615 1360.4 798.78 1335.25 799.209C1313.99 797.921 1304.81 784.202 1305.09 774.864Z" fill="#0012FF"/>
<path d="M1216.16 772.88C1217.48 752.709 1250.29 746.671 1266.33 763.646C1278.92 776.994 1270.96 796.248 1245.87 796.929C1224.36 795.848 1215.55 782.218 1216.16 772.88Z" fill="#0012FF"/>
<path d="M1126.97 771.134C1129.02 750.06 1165.09 744.54 1179.15 763.157C1188.08 774.981 1182.08 793.924 1155.84 794.886C1134.43 794.043 1126.07 780.487 1126.97 771.119" fill="#0012FF"/>
<path d="M1037.21 769.565C1039.96 748.58 1076.45 742.69 1089.97 761.055C1099.55 774.064 1089.44 791.926 1065.57 793.051C1043.96 792.415 1035.98 778.947 1037.21 769.58" fill="#0012FF"/>
<path d="M947.3 768.143C950.779 746.981 987.415 740.706 1000.28 759.072C1008.46 770.763 1000.37 789.868 974.937 791.333C953.325 790.919 945.761 777.526 947.315 768.143" fill="#0012FF"/>
<path d="M857.048 766.974C861.178 745.767 898.037 739.107 910.338 757.354C918.139 768.927 910.234 788.122 883.737 789.898C863.532 789.72 854.902 777.955 857.048 766.974Z" fill="#0012FF"/>
<path d="M766.353 766.057C771.193 744.909 808.348 737.865 820.071 755.861C827.576 767.389 818.192 786.687 792.45 788.7C770.868 788.744 764.192 775.469 766.353 766.042" fill="#0012FF"/>
<path d="M675.626 765.39C681.191 744.05 718.376 736.606 729.404 754.631C736.42 766.101 726.443 785.517 700.923 787.781C679.385 788.048 673.168 774.847 675.626 765.39Z" fill="#0012FF"/>
<path d="M584.723 765.095C590.94 743.681 628.228 735.837 638.649 753.759C645.251 765.125 635.496 784.615 608.985 787.235C588.927 787.693 581.511 776.165 584.723 765.095Z" fill="#0012FF"/>
<path d="M493.525 765.227C500.423 743.857 537.903 735.599 547.717 753.299C554.008 764.62 542.788 784.273 517.12 787.115C495.745 787.84 490.446 774.758 493.525 765.227Z" fill="#0012FF"/>
<path d="M402.473 765.745C410.096 744.153 447.502 735.51 456.576 753.239C462.349 764.516 450.581 784.303 425.18 787.381C403.909 788.343 399.098 775.305 402.473 765.745Z" fill="#0012FF"/>
<path d="M311.423 766.813C319.683 745.132 357.089 736.06 365.527 753.701C370.885 764.919 358.466 784.853 333.035 788.227C313.274 789.337 307.145 778.031 311.423 766.813Z" fill="#0012FF"/>
<path d="M220.459 768.486C229.311 746.85 266.673 737.364 274.459 754.767C279.448 765.911 266.51 785.978 241.139 789.663C221.525 790.995 215.841 779.748 220.459 768.486Z" fill="#0012FF"/>
<path d="M129.499 770.794C139.121 748.892 176.423 738.976 183.44 756.454C187.896 767.568 174.425 787.784 149.409 791.72C128.596 793.393 125.236 780.473 129.499 770.78" fill="#0012FF"/>
<path d="M38.9643 773.856C49.193 751.835 86.392 741.491 92.7423 758.894C96.7835 769.964 82.6913 790.357 57.7192 794.59C38.4462 796.366 33.6798 785.237 38.9643 773.842" fill="#0012FF"/>
<path d="M-51.1689 777.765C-40.3778 755.788 -3.38596 745.015 2.31306 762.196C5.96931 773.207 -8.59644 793.748 -33.4501 798.306C-52.4863 800.304 -56.7939 789.219 -51.1689 777.78" fill="#0012FF"/>
<path d="M1894.73 685.816C1891.06 669.685 1911.74 664.091 1931.02 675.989C1949.23 687.222 1952.81 706.372 1937.54 710.708C1934 711.714 1931.13 711.551 1928.09 711.374C1908.49 708.695 1896.79 694.828 1894.73 685.816Z" fill="#0012FF"/>
<path d="M1811.63 681.48C1808.4 664.58 1832.13 659.371 1851.3 672.764C1868.57 684.84 1869.04 703.413 1852.14 706.446C1849.42 706.935 1846.83 706.816 1844.74 706.728C1824.75 704.241 1813.36 690.463 1811.64 681.48" fill="#0012FF"/>
<path d="M1727.87 677.572C1725.24 660.612 1749.47 655.151 1768.39 668.426C1785.35 680.339 1785.14 698.927 1768 702.138C1765.23 702.656 1762.61 702.568 1760.5 702.494C1740.31 700.2 1729.26 686.54 1727.87 677.572Z" fill="#0012FF"/>
<path d="M1643.33 674.051C1641.16 656.174 1668.38 651.172 1686.81 666.045C1702.57 678.772 1699.12 696.709 1680.56 698.559C1678.99 698.721 1676.86 698.677 1675.28 698.633C1655.06 696.561 1644.43 683.005 1643.33 674.037" fill="#0012FF"/>
<path d="M1558.13 670.9C1556.61 653.126 1584.3 647.828 1602.35 662.45C1617.84 674.999 1613.7 692.98 1594.81 695.052C1593.23 695.23 1591.11 695.215 1589.51 695.185C1569.13 693.321 1558.87 679.868 1558.12 670.9" fill="#0012FF"/>
<path d="M1472.11 668.013C1471.21 648.982 1501.91 644.217 1519.02 660.732C1532.82 674.051 1525.55 691.292 1505.85 692.003C1505.03 692.032 1503.94 692.003 1503.11 692.003C1482.43 690.33 1472.53 676.982 1472.1 668.028" fill="#0012FF"/>
<path d="M1385.69 665.482C1385.46 646.45 1416.59 641.36 1433.27 657.727C1446.74 670.928 1438.69 688.243 1418.69 689.146C1417.86 689.19 1416.74 689.146 1415.91 689.161C1395.26 687.71 1385.81 674.45 1385.69 665.482Z" fill="#0012FF"/>
<path d="M1298.76 663.247C1299.22 644.304 1330.72 638.917 1346.93 654.989C1358.6 666.577 1353.93 686.2 1328.32 686.615C1307.58 685.372 1298.55 672.2 1298.76 663.232" fill="#0012FF"/>
<path d="M1211.19 661.266C1212.43 641.331 1247.23 636.448 1261.5 654.206C1270.69 665.646 1264.83 683.701 1240.26 684.352C1219.28 683.316 1210.62 670.219 1211.19 661.266Z" fill="#0012FF"/>
<path d="M1123.33 659.562C1125.27 639.583 1160.4 634.344 1174.13 651.985C1182.97 663.35 1176.35 681.479 1151.52 682.367C1130.64 681.553 1122.47 668.545 1123.35 659.562" fill="#0012FF"/>
<path d="M1034.95 658.159C1037.64 638.269 1073.17 632.675 1086.33 650.049C1094.85 661.311 1087.6 679.514 1062.57 680.683C1041.49 680.076 1033.73 667.142 1034.95 658.159Z" fill="#0012FF"/>
<path d="M946.412 656.987C949.846 636.934 985.55 630.955 998.029 648.344C1006.07 659.532 998.162 677.824 973.249 679.244C952.17 678.86 944.857 665.999 946.397 656.987" fill="#0012FF"/>
<path d="M857.595 656.158C861.725 636.046 897.651 629.698 909.538 646.983C917.191 658.097 908.561 676.492 883.47 678.165C861.37 677.987 855.878 664.579 857.595 656.158Z" fill="#0012FF"/>
<path d="M768.366 655.684C773.236 635.631 809.458 628.898 820.738 645.946C828.05 656.972 818.784 675.471 793.59 677.409C772.54 677.468 766.16 664.726 768.366 655.669" fill="#0012FF"/>
<path d="M679.134 655.537C684.744 635.292 721.026 628.188 731.595 645.251C738.389 656.218 728.501 674.82 703.514 677.025C682.509 677.306 676.618 664.623 679.134 655.537Z" fill="#0012FF"/>
<path d="M589.8 655.818C596.091 635.514 632.491 628.011 642.423 644.971C648.818 655.877 638.219 674.598 613.099 677.07C591.162 677.588 587.165 664.313 589.785 655.818" fill="#0012FF"/>
<path d="M500.215 656.588C507.232 636.313 543.809 628.411 553.12 645.163C559.144 655.996 547.954 674.835 522.804 677.588C501.962 678.313 497.047 665.749 500.215 656.588Z" fill="#0012FF"/>
<path d="M410.821 657.833C418.578 637.351 455.126 629.049 463.652 645.831C469.129 656.62 457.361 675.592 432.493 678.596C411.769 679.544 407.343 667.024 410.821 657.833Z" fill="#0012FF"/>
<path d="M321.504 659.65C329.941 639.065 366.489 630.363 374.364 647.071C379.426 657.8 366.948 676.921 342.05 680.206C322.792 681.301 317.093 670.439 321.519 659.65" fill="#0012FF"/>
<path d="M232.347 662.137C241.406 641.596 277.909 632.48 285.118 648.966C289.781 659.636 276.769 678.89 251.901 682.471C232.791 683.788 227.551 672.97 232.332 662.137" fill="#0012FF"/>
<path d="M143.235 665.291C153.094 644.484 189.568 634.953 195.977 651.514C200.092 662.154 186.503 681.556 161.99 685.389C141.711 687.031 138.809 674.615 143.235 665.291Z" fill="#0012FF"/>
<path d="M54.6255 669.214C65.1354 648.288 101.505 638.328 107.219 654.829C110.89 665.425 96.6502 685.004 72.1814 689.133C51.1321 691.102 50.2439 677.96 54.6255 669.214Z" fill="#0012FF"/>
<path d="M-33.5391 673.979C-22.4519 653.083 13.7405 642.708 18.7882 658.987C22.0596 669.524 7.30134 689.266 -17.049 693.706C-37.8615 695.911 -38.2019 682.784 -33.5391 673.979Z" fill="#0012FF"/>
<path d="M1876.48 582.963C1872.46 567.513 1892.34 562.185 1911.35 573.61C1929.56 584.561 1933.51 602.513 1918.63 606.73C1915.23 607.692 1912.45 607.53 1909.5 607.367C1890.42 604.777 1878.7 591.532 1876.46 582.963" fill="#0012FF"/>
<path d="M1795.03 578.182C1791.48 562.006 1814.35 557.048 1833.27 569.894C1850.57 581.645 1851.47 599.048 1834.93 602.008C1832.29 602.482 1829.77 602.363 1827.75 602.274C1808.3 599.862 1796.9 586.735 1795.02 578.182" fill="#0012FF"/>
<path d="M1712.94 573.876C1710.01 557.657 1733.38 552.447 1752.03 565.189C1768.99 576.777 1769.2 594.196 1752.41 597.318C1749.74 597.807 1747.19 597.732 1745.13 597.659C1725.49 595.439 1714.48 582.415 1712.94 573.891" fill="#0012FF"/>
<path d="M1630.05 570.014C1627.61 552.922 1653.93 548.171 1672.09 562.408C1687.55 574.543 1684.56 591.621 1666.68 593.382C1665.15 593.53 1663.09 593.486 1661.56 593.456C1641.87 591.444 1631.3 578.539 1630.07 570.014" fill="#0012FF"/>
<path d="M1546.45 566.567C1544.69 549.577 1571.48 544.531 1589.24 558.531C1604.74 570.74 1601.07 587.567 1582.48 589.579C1580.94 589.742 1578.88 589.727 1577.34 589.712C1557.51 587.907 1547.34 575.091 1546.45 566.567Z" fill="#0012FF"/>
<path d="M1462.08 563.471C1460.95 545.298 1490.7 540.769 1507.55 556.56C1521.08 569.243 1514.26 585.655 1495.19 586.336C1494.39 586.365 1493.32 586.336 1492.54 586.336C1472.41 584.723 1462.62 571.996 1462.09 563.486" fill="#0012FF"/>
<path d="M1377.26 560.781C1376.83 542.608 1407.02 537.768 1423.4 553.396C1436.56 565.961 1428.95 582.447 1409.57 583.305C1408.76 583.335 1407.68 583.305 1406.86 583.305C1386.77 581.899 1377.45 569.276 1377.26 560.751" fill="#0012FF"/>
<path d="M1291.92 558.457C1292.22 540.373 1322.8 535.238 1338.67 550.599C1351.17 562.72 1344.08 580.345 1320.84 580.715C1300.67 579.516 1291.79 566.982 1291.92 558.457Z" fill="#0012FF"/>
<path d="M1205.94 556.471C1207.07 537.454 1240.86 532.808 1254.81 549.753C1263.78 560.645 1258.17 577.826 1234.32 578.448C1213.91 577.442 1205.44 564.996 1205.94 556.471Z" fill="#0012FF"/>
<path d="M1119.74 554.832C1121.59 535.786 1155.72 530.783 1169.09 547.61C1177.67 558.413 1171.28 575.684 1147.18 576.542C1126.87 575.758 1118.91 563.371 1119.74 554.832Z" fill="#0012FF"/>
<path d="M1032.96 553.574C1035.6 534.601 1070.15 529.244 1082.91 545.834C1092.03 557.688 1082.46 573.967 1059.82 575.003C1039.31 574.425 1031.78 562.113 1032.96 553.574Z" fill="#0012FF"/>
<path d="M946.085 552.624C949.504 533.489 984.216 527.776 996.28 544.366C1004.02 555.006 996.28 572.44 972.123 573.801C951.621 573.431 944.56 561.192 946.085 552.624Z" fill="#0012FF"/>
<path d="M858.942 552.094C863.087 532.914 898.036 526.832 909.478 543.303C916.82 553.884 908.309 571.392 883.958 573.005C863.62 572.842 857.077 560.677 858.942 552.079" fill="#0012FF"/>
<path d="M771.429 552.004C776.343 532.869 811.603 526.417 822.409 542.681C830.121 554.283 818.59 570.917 795.764 572.678C775.307 572.738 769.223 560.632 771.429 552.019" fill="#0012FF"/>
<path d="M683.975 552.283C689.689 532.956 725.023 526.133 735.059 542.427C741.498 552.86 731.684 570.59 707.422 572.706C687.01 572.972 681.429 560.926 683.975 552.283Z" fill="#0012FF"/>
<path d="M596.417 553.071C602.842 533.669 638.309 526.477 647.694 542.652C653.704 553.026 643.149 570.874 618.769 573.256C598.579 573.745 593.546 561.743 596.417 553.056" fill="#0012FF"/>
<path d="M508.682 554.4C515.861 535.028 551.521 527.436 560.24 543.419C566.457 554.814 553.045 571.863 530.264 574.349C510.014 575.059 505.44 563.102 508.682 554.4Z" fill="#0012FF"/>
<path d="M421.184 556.253C429.148 536.674 464.778 528.697 472.698 544.724C477.775 554.995 465.963 573.079 441.819 575.995C421.673 576.927 417.632 565.014 421.199 556.267" fill="#0012FF"/>
<path d="M333.789 558.736C342.464 539.068 378.123 530.691 385.347 546.63C389.98 556.841 377.442 575.089 353.255 578.27C333.389 579.41 329.911 567.541 333.789 558.736Z" fill="#0012FF"/>
<path d="M246.617 561.891C255.958 542.253 291.573 533.477 298.115 549.208C302.778 560.441 287.591 577.978 265.076 581.219C245.359 582.58 242.413 570.741 246.617 561.891Z" fill="#0012FF"/>
<path d="M159.548 565.739C169.717 545.834 205.332 536.659 211.031 552.464C214.688 562.586 200.966 581.13 177.163 584.844C157.461 586.443 155.003 574.633 159.548 565.739Z" fill="#0012FF"/>
<path d="M73.0402 570.385C83.9053 550.362 119.417 540.773 124.405 556.519C127.588 566.612 113.2 585.318 89.4266 589.328C70.0648 591.134 68.1849 579.339 73.0402 570.385Z" fill="#0012FF"/>
<path d="M-12.9921 575.888C-1.52008 555.88 33.8435 545.875 38.1362 561.429C40.9043 571.463 25.9536 590.347 2.29903 594.653C-16.8408 596.681 -18.1582 584.915 -12.9921 575.888Z" fill="#0012FF"/>
<path d="M1856.15 486.297C1852.04 472.342 1868.91 466.896 1887.3 476.249C1906.75 486.149 1912.61 504.722 1897.58 508.807C1894.31 509.695 1891.6 509.532 1888.75 509.369C1870.21 506.883 1858.54 494.378 1856.14 486.282" fill="#0012FF"/>
<path d="M1776.6 481.159C1772.95 466.567 1792.65 461.358 1811.18 472.028C1828.97 482.269 1832.56 499.199 1817.8 503.269C1814.44 504.201 1811.71 504.068 1808.84 503.935C1789.95 501.612 1778.62 489.225 1776.59 481.159" fill="#0012FF"/>
<path d="M1696.37 476.527C1693.17 461.166 1715.69 456.282 1734.02 468.358C1750.73 479.369 1751.32 495.81 1735.11 498.696C1732.52 499.155 1730.05 499.066 1728.06 498.992C1708.98 496.861 1698.04 484.578 1696.37 476.527Z" fill="#0012FF"/>
<path d="M1615.34 472.399C1612.65 456.224 1638.04 451.754 1655.9 465.251C1670.39 476.202 1669.15 491.342 1653.52 494.169C1650.85 494.657 1648.31 494.583 1646.28 494.524C1627.17 492.6 1616.69 480.42 1615.34 472.384" fill="#0012FF"/>
<path d="M1533.59 468.715C1531.6 452.628 1557.48 447.893 1574.92 461.153C1590.13 472.726 1586.86 488.605 1568.88 490.455C1567.4 490.603 1565.38 490.588 1563.89 490.558C1544.63 488.827 1534.58 476.751 1533.57 468.715" fill="#0012FF"/>
<path d="M1451.05 465.444C1449.72 448.247 1478.48 444 1495.01 458.947C1508.56 471.186 1502.28 486.399 1483.44 487.021C1482.67 487.051 1481.63 487.021 1480.86 487.021C1461.32 485.482 1451.67 473.48 1451.05 465.459" fill="#0012FF"/>
<path d="M1368.08 462.631C1367.47 445.434 1396.68 440.891 1412.74 455.675C1425.9 467.796 1418.81 483.083 1399.67 483.882C1398.88 483.912 1397.83 483.882 1397.03 483.882C1377.54 482.55 1368.36 470.652 1368.08 462.616" fill="#0012FF"/>
<path d="M1284.61 460.263C1284.75 443.156 1314.36 438.302 1329.86 452.849C1342.38 464.585 1334.43 480.227 1315.45 481.219C1314.67 481.263 1313.62 481.249 1312.83 481.263C1293.25 480.124 1284.55 468.314 1284.61 460.278" fill="#0012FF"/>
<path d="M1200.5 458.281C1201.49 440.301 1234.23 435.905 1247.85 451.933C1256.59 462.218 1251.23 478.423 1228.13 479C1208.33 478.053 1200.04 466.317 1200.48 458.281" fill="#0012FF"/>
<path d="M1116.14 456.711C1117.88 438.701 1150.98 433.965 1163.99 449.874C1172.34 460.071 1166.17 476.35 1142.83 477.163C1123.12 476.424 1115.37 464.762 1116.14 456.726" fill="#0012FF"/>
<path d="M1031.26 455.588C1033.83 437.652 1067.33 432.576 1079.71 448.248C1088.53 459.436 1079.25 474.782 1057.31 475.774C1037.43 475.241 1030.1 463.654 1031.26 455.588Z" fill="#0012FF"/>
<path d="M946.294 454.846C949.683 436.747 983.374 431.316 995.009 447.003C1002.47 457.051 994.891 473.493 971.488 474.781C951.608 474.455 944.784 462.927 946.294 454.861" fill="#0012FF"/>
<path d="M861.074 454.565C865.219 436.421 899.147 430.635 910.13 446.203C917.162 456.178 908.813 472.708 885.217 474.248C866.64 474.129 858.898 464.021 861.06 454.565" fill="#0012FF"/>
<path d="M775.514 454.788C780.725 435.727 817.48 430.399 825.947 447.477C831.291 458.266 820.441 472.592 798.947 474.219C779.097 474.308 773.294 462.898 775.514 454.788Z" fill="#0012FF"/>
<path d="M690.03 455.455C696.114 436.201 732.899 430.489 740.493 447.611C745.259 458.356 733.846 472.814 712.53 474.649C692.739 474.945 687.455 463.594 690.03 455.44" fill="#0012FF"/>
<path d="M604.499 456.654C611.383 437.312 648.256 431.2 655.095 448.278C659.388 458.978 647.309 473.584 625.874 475.641C607.43 476.115 601.095 466.214 604.499 456.654Z" fill="#0012FF"/>
<path d="M518.823 458.458C526.506 439.16 563.571 432.634 569.655 449.519C573.504 460.175 560.862 474.9 539.413 477.223C519.77 477.934 515.552 466.686 518.823 458.458Z" fill="#0012FF"/>
<path d="M433.426 460.812C441.982 441.292 478.959 434.381 484.139 451.326C487.396 461.952 474.236 476.84 453.009 479.355C433.47 480.288 429.784 469.07 433.411 460.812" fill="#0012FF"/>
<path d="M348.178 463.831C357.045 445.185 391.757 437.178 398.359 452.244C402.592 461.893 390.04 479.134 366.592 482.197C348.444 483.263 343.559 473.54 348.178 463.831Z" fill="#0012FF"/>
<path d="M263.181 467.562C272.744 448.93 307.426 440.539 313.332 455.412C317.137 465.002 303.962 482.391 280.559 485.72C262.559 486.993 258.163 477.315 263.181 467.547" fill="#0012FF"/>
<path d="M178.346 472.002C188.782 453.118 223.465 444.328 228.498 459.275C231.725 468.835 217.928 486.386 194.836 489.953C175.741 491.537 173.683 480.408 178.331 471.987" fill="#0012FF"/>
<path d="M94.0904 477.239C105.237 458.237 139.86 449.032 144.138 463.935C146.877 473.466 132.385 491.195 109.337 495.043C91.6629 496.715 88.2878 487.125 94.0904 477.239Z" fill="#0012FF"/>
<path d="M10.3523 483.337C22.15 464.335 56.6253 454.745 60.2076 469.456C62.5168 478.942 47.4329 496.834 24.4888 500.963C7.02169 502.842 4.1648 493.282 10.3523 483.322" fill="#0012FF"/>
<path d="M1910.21 401.645C1905.58 389.347 1919.39 384.064 1936.62 391.552C1956.05 400.003 1965.39 417.939 1953 423.015C1949.51 424.451 1945.53 424.169 1943.16 423.992C1925.28 421.387 1913.13 409.37 1910.22 401.645" fill="#0012FF"/>
<path d="M1833.84 395.65C1829.48 382.597 1845.61 377.536 1863.6 386.327C1881.45 395.043 1888.45 411.737 1876.28 416.576C1872.61 418.041 1868.53 417.79 1866.09 417.642C1848.11 415.244 1836.41 403.331 1833.84 395.635" fill="#0012FF"/>
<path d="M1756.37 390.233C1752.47 376.588 1771.36 371.749 1789.49 381.753C1807.07 391.447 1811.03 407.459 1796.82 411.322C1793.6 412.195 1790.97 412.062 1788.19 411.928C1769.88 409.694 1758.56 397.899 1756.35 390.233" fill="#0012FF"/>
<path d="M1678.21 385.366C1674.77 370.996 1696.4 366.468 1714.37 377.789C1729.81 387.512 1731.81 402.311 1718.21 406.055C1714.9 406.958 1712.25 406.869 1709.44 406.751C1690.94 404.708 1680.04 393.017 1678.21 385.366Z" fill="#0012FF"/>
<path d="M1599.25 381.015C1596.32 365.891 1620.78 361.747 1638.3 374.385C1652.66 384.745 1651.82 399.07 1636.69 401.749C1634.11 402.208 1631.77 402.134 1629.69 402.074C1611.15 400.225 1600.73 388.637 1599.25 381" fill="#0012FF"/>
<path d="M1519.58 377.167C1517.39 362.132 1542.32 357.722 1559.4 370.138C1573.44 380.349 1571.85 394.69 1556.37 397.546C1553.76 398.019 1551.31 397.99 1549.34 397.96C1530.66 396.303 1520.69 384.804 1519.58 377.182" fill="#0012FF"/>
<path d="M1439.12 373.763C1437.59 357.676 1465.33 353.71 1481.54 367.71C1494.03 378.513 1489.68 392.336 1473.21 394.112C1471.76 394.274 1469.8 394.274 1468.34 394.26C1449.39 392.78 1439.86 381.384 1439.13 373.763" fill="#0012FF"/>
<path d="M1358.23 370.862C1357.45 354.776 1385.65 350.528 1401.34 364.365C1414.09 375.613 1407.32 390.338 1389.08 391.063C1388.31 391.093 1387.31 391.063 1386.54 391.063C1367.63 389.79 1358.6 378.469 1358.23 370.847" fill="#0012FF"/>
<path d="M1276.84 368.481C1276.84 351.788 1308.1 347.999 1322.03 362.991C1331.16 372.802 1326.87 388.105 1304.35 388.415C1285.36 387.335 1276.82 376.103 1276.82 368.466" fill="#0012FF"/>
<path d="M1194.81 366.497C1195.67 349.67 1227.34 345.541 1240.6 360.548C1249.21 370.286 1244.17 385.647 1221.71 386.18C1202.51 385.277 1194.43 374.133 1194.81 366.497Z" fill="#0012FF"/>
<path d="M1112.57 364.988C1114.21 348.118 1146.23 343.678 1158.86 358.566C1167.06 368.229 1161.18 383.65 1138.46 384.405C1119.37 383.709 1111.82 372.64 1112.57 364.988Z" fill="#0012FF"/>
<path d="M1029.82 363.98C1032.31 347.183 1064.74 342.403 1076.7 357.069C1084.52 366.644 1077.92 382.138 1055.03 383.145C1035.76 382.641 1028.7 371.631 1029.82 363.98Z" fill="#0012FF"/>
<path d="M946.974 363.42C950.482 345.558 985.594 341.251 995.142 357.515C1000.47 366.602 993.676 381.12 971.28 382.333C952.007 382.023 945.464 371.086 946.974 363.42Z" fill="#0012FF"/>
<path d="M863.917 363.362C868.254 345.425 903.588 340.763 912.381 356.954C917.28 365.981 909.716 380.602 887.157 382.053C866.966 381.949 862.185 370.539 863.931 363.362" fill="#0012FF"/>
<path d="M780.548 363.85C785.759 345.987 821.374 340.926 829.397 356.924C834.519 367.135 823.891 380.735 803.004 382.304C783.775 382.408 778.298 371.575 780.548 363.85Z" fill="#0012FF"/>
<path d="M697.283 364.824C703.397 346.769 739.042 341.338 746.176 357.38C750.158 366.334 741.262 381.133 718.777 383.057C699.593 383.353 694.663 372.579 697.283 364.824Z" fill="#0012FF"/>
<path d="M613.988 366.394C620.931 348.235 656.679 342.434 663.029 358.432C666.567 367.341 656.931 382.259 634.312 384.419C616.445 384.893 610.509 375.481 613.973 366.394" fill="#0012FF"/>
<path d="M530.591 368.584C538.363 350.47 574.303 344.269 579.884 360.074C583.451 370.167 570.958 384.152 550.086 386.387C531.065 387.097 527.231 376.398 530.591 368.584Z" fill="#0012FF"/>
<path d="M447.489 371.366C456.163 353.045 492.03 346.46 496.678 362.324C499.283 371.174 488.344 386.314 465.947 388.963C447.03 389.88 443.758 379.21 447.489 371.352" fill="#0012FF"/>
<path d="M364.578 374.814C374.067 356.375 409.934 349.39 413.782 365.239C415.929 374.074 404.279 389.347 381.823 392.248C364.253 393.298 359.827 384.049 364.578 374.814Z" fill="#0012FF"/>
<path d="M281.951 379.001C291.691 361.508 325.381 353.502 330.666 367.443C334.115 376.515 320.911 393.045 298.13 396.257C280.692 397.5 276.784 388.295 281.951 379.001Z" fill="#0012FF"/>
<path d="M199.514 383.932C210.128 366.188 243.848 357.812 248.259 371.812C251.116 380.869 237.246 397.548 214.776 400.996C196.287 402.535 194.718 391.953 199.514 383.932Z" fill="#0012FF"/>
<path d="M117.685 389.645C129.054 371.782 162.715 363.007 166.356 376.962C168.71 385.99 154.115 402.846 131.674 406.56C114.562 408.203 111.69 399.072 117.685 389.645Z" fill="#0012FF"/>
<path d="M36.4049 396.215C48.4394 378.338 81.9821 369.177 84.8982 382.97C86.793 391.953 71.5759 408.987 49.2387 412.982C30.2766 415.039 31.298 403.792 36.4049 396.215Z" fill="#0012FF"/>
<path d="M-43.4417 403.554C-30.6078 385.455 2.34283 375.969 4.22277 389.836C5.43658 398.833 -10.2986 416.015 -31.9844 420.218C-49.5404 422.349 -49.2444 411.768 -43.4269 403.569" fill="#0012FF"/>
<path d="M1883.89 317.351C1878.93 305.689 1891.97 300.717 1908.82 307.85C1927.72 315.856 1937.43 332.771 1925.84 337.537C1922.54 338.883 1918.71 338.617 1916.43 338.454C1899.12 335.953 1887 324.602 1883.91 317.351" fill="#0012FF"/>
<path d="M1809.76 311.15C1805.08 298.778 1820.4 294.028 1838 302.389C1855.75 310.81 1862.96 326.275 1851.33 330.907C1847.85 332.298 1843.91 332.061 1841.56 331.913C1824.18 329.605 1812.5 318.372 1809.76 311.15Z" fill="#0012FF"/>
<path d="M1734.55 305.541C1730.34 292.636 1748.36 288.093 1766.14 297.594C1783.25 306.74 1787.6 321.835 1774.16 325.446C1771.08 326.275 1768.55 326.142 1765.87 326.023C1748.15 323.877 1736.89 312.763 1734.53 305.556" fill="#0012FF"/>
<path d="M1658.64 300.478C1655.1 287.544 1673.63 282.823 1691.16 292.191C1707.93 301.159 1711.51 316.24 1697.75 319.984C1694.6 320.842 1692.03 320.753 1689.33 320.65C1671.43 318.681 1660.61 307.671 1658.64 300.478Z" fill="#0012FF"/>
<path d="M1581.95 295.98C1578.91 282.439 1600.16 277.985 1617.44 288.522C1632.26 297.549 1633.85 311.475 1620.46 315.115C1617.18 316.003 1614.56 315.929 1611.79 315.855C1593.88 314.079 1583.55 303.173 1581.95 295.995" fill="#0012FF"/>
<path d="M1504.56 291.968C1502.07 277.406 1525.65 273.351 1542.78 285.382C1556.46 294.987 1555.24 308.469 1540.45 311.162C1537.94 311.621 1535.58 311.577 1533.68 311.547C1515.62 309.963 1505.77 299.145 1504.54 291.968" fill="#0012FF"/>
<path d="M1426.37 288.52C1424.63 273.351 1451.32 269.636 1467.17 282.852C1479.35 293.004 1475.4 305.998 1459.6 307.685C1458.2 307.833 1456.32 307.833 1454.91 307.818C1436.6 306.397 1427.2 295.683 1426.37 288.52Z" fill="#0012FF"/>
<path d="M1347.77 285.575C1346.79 270.405 1373.94 266.425 1389.26 279.477C1401.04 289.526 1396.28 302.579 1380.16 304.399C1378.72 304.562 1376.8 304.577 1375.35 304.577C1357.08 303.348 1348.21 292.722 1347.75 285.56" fill="#0012FF"/>
<path d="M1268.65 283.165C1268.49 267.449 1298.61 263.882 1312.21 278.015C1322.04 288.227 1315.66 301.649 1295.43 301.916C1277.09 300.88 1268.72 290.328 1268.65 283.165Z" fill="#0012FF"/>
<path d="M1188.95 281.209C1189.68 265.359 1220.22 261.482 1233.11 275.615C1241.46 284.775 1236.69 299.204 1215.06 299.708C1196.52 298.849 1188.64 288.372 1188.97 281.209" fill="#0012FF"/>
<path d="M1109.02 279.791C1110.57 263.897 1141.45 259.709 1153.68 273.738C1161.6 282.825 1155.96 297.313 1134.08 298.038C1115.63 297.372 1108.32 286.969 1109.02 279.791Z" fill="#0012FF"/>
<path d="M1028.59 278.887C1031.16 262.238 1064.91 258.509 1074.91 273.782C1081.29 283.534 1072.91 296.025 1052.93 296.883C1034.32 296.41 1027.5 286.065 1028.59 278.873" fill="#0012FF"/>
<path d="M948.098 278.472C951.576 261.661 985.474 257.591 994.608 272.893C1000.4 282.601 991.381 295.181 971.486 296.246C952.879 295.965 946.603 285.68 948.083 278.472" fill="#0012FF"/>
<path d="M867.41 278.607C871.747 261.721 905.882 257.296 914.231 272.539C919.515 282.188 909.76 294.886 889.702 296.158C871.244 296.069 865.559 285.843 867.41 278.607Z" fill="#0012FF"/>
<path d="M786.438 279.317C791.678 262.49 826.094 257.696 833.659 272.746C838.469 282.351 828.063 295.137 807.917 296.647C789.354 296.75 784.188 286.583 786.438 279.332" fill="#0012FF"/>
<path d="M705.586 280.559C711.759 263.555 746.234 258.39 752.866 273.485C757.07 283.046 746.057 295.965 726.058 297.667C707.54 297.963 702.937 287.84 705.586 280.559Z" fill="#0012FF"/>
<path d="M624.721 282.409C631.767 265.302 666.346 259.781 672.163 274.832C675.849 284.363 664.11 297.415 644.009 299.325C625.698 299.813 621.701 289.72 624.721 282.409Z" fill="#0012FF"/>
<path d="M543.793 284.91C551.713 267.832 586.484 261.927 591.487 276.815C594.685 286.301 582.339 299.487 562.208 301.633C543.852 302.329 540.389 292.28 543.793 284.925" fill="#0012FF"/>
<path d="M463.178 288.031C472.03 270.746 506.742 264.471 510.798 279.418C513.374 288.89 500.436 302.209 480.527 304.562C462.275 305.45 459.388 295.431 463.178 288.031Z" fill="#0012FF"/>
<path d="M382.771 291.852C392.467 274.449 427.209 267.789 430.421 282.707C432.449 292.163 418.845 305.645 398.876 308.205C380.876 309.286 378.612 299.296 382.771 291.838" fill="#0012FF"/>
<path d="M302.673 296.408C313.168 279.019 347.851 271.975 350.264 286.729C351.788 296.097 337.06 309.86 317.683 312.598C299.816 313.886 298.158 303.896 302.673 296.408Z" fill="#0012FF"/>
<path d="M222.798 301.692C233.693 284.91 266.407 276.904 270.093 290.119C272.476 298.644 258.517 314.39 236.846 317.705C219.009 319.2 217.884 309.24 222.798 301.692Z" fill="#0012FF"/>
<path d="M143.545 307.789C155.225 290.874 187.909 282.497 190.795 295.669C192.66 304.163 177.947 320.102 156.305 323.668C138.779 325.356 138.29 315.396 143.56 307.789" fill="#0012FF"/>
<path d="M64.8706 314.731C77.2604 297.801 109.826 289.04 111.972 302.063C113.364 310.528 97.9989 326.629 76.4462 330.477C59.1272 332.371 59.2456 322.412 64.8706 314.731Z" fill="#0012FF"/>
<path d="M-12.3849 322.411C0.833885 305.259 32.8668 296.187 33.9325 309.285C34.6283 317.764 18.7007 334.029 -2.21547 338.054C-19.1497 340.126 -18.3503 330.151 -12.3849 322.397" fill="#0012FF"/>
<path d="M1855.69 238.975C1850.78 228.749 1861.48 223.88 1876.9 229.311C1896.43 236.192 1908.27 253.285 1896.71 257.888C1893.6 259.131 1889.9 258.85 1887.7 258.702C1871.01 256.319 1858.95 245.723 1855.69 238.975Z" fill="#0012FF"/>
<path d="M1783.97 232.61C1779.25 221.57 1791.85 216.923 1808.49 223.553C1827.01 230.938 1836.17 246.655 1824.56 251.124C1821.28 252.397 1817.47 252.16 1815.21 252.012C1798.45 249.822 1786.86 239.344 1783.97 232.61Z" fill="#0012FF"/>
<path d="M1711.21 226.854C1706.94 215.34 1722.06 210.797 1739.09 218.463C1756.31 226.218 1763.01 240.588 1751.47 244.968C1748.03 246.27 1744.22 246.078 1741.94 245.96C1724.87 243.917 1713.69 233.558 1711.21 226.839" fill="#0012FF"/>
<path d="M1637.74 221.702C1633.95 209.626 1651.61 205.26 1668.71 214.036C1684.06 221.909 1688.67 235.199 1677.5 239.431C1673.95 240.778 1670.08 240.615 1667.79 240.526C1650.54 238.662 1639.84 228.406 1637.74 221.717" fill="#0012FF"/>
<path d="M1563.49 217.102C1560.23 204.478 1580.51 200.349 1597.4 210.19C1611.92 218.655 1613.8 231.619 1601 234.949C1597.86 235.763 1595.33 235.689 1592.66 235.615C1575.4 233.928 1565.21 223.776 1563.49 217.102Z" fill="#0012FF"/>
<path d="M1488.56 213.017C1485.85 199.446 1508.42 195.687 1525.15 206.92C1538.53 215.903 1537.66 228.467 1523.49 230.909C1521.09 231.323 1518.82 231.279 1516.98 231.249C1499.59 229.74 1489.89 219.676 1488.56 213.017Z" fill="#0012FF"/>
<path d="M1412.84 209.525C1410.89 195.392 1436.48 191.958 1451.98 204.286C1463.9 213.772 1460.33 225.848 1445.16 227.372C1443.81 227.506 1441.99 227.506 1440.63 227.491C1422.98 226.159 1413.76 216.184 1412.83 209.525" fill="#0012FF"/>
<path d="M1336.71 206.549C1335.56 192.416 1361.63 188.716 1376.55 200.896C1388.03 210.278 1383.65 222.413 1368.17 224.071C1366.79 224.219 1364.93 224.234 1363.54 224.234C1345.93 223.079 1337.26 213.194 1336.71 206.534" fill="#0012FF"/>
<path d="M1260.09 204.151C1259.77 189.5 1288.72 186.2 1301.95 199.371C1311.5 208.872 1305.52 221.362 1286.06 221.584C1268.38 220.607 1260.23 210.796 1260.08 204.151" fill="#0012FF"/>
<path d="M1182.9 202.227C1183.49 187.458 1212.86 183.847 1225.35 197.018C1233.45 205.542 1228.96 218.965 1208.15 219.424C1190.28 218.625 1182.63 208.887 1182.9 202.227Z" fill="#0012FF"/>
<path d="M1105.48 200.867C1106.93 186.053 1136.64 182.146 1148.45 195.214C1156.09 203.664 1150.72 217.146 1129.68 217.812C1111.92 217.205 1104.84 207.527 1105.48 200.867Z" fill="#0012FF"/>
<path d="M1027.6 200.066C1030.08 184.556 1062.58 181.064 1072.19 195.286C1078.32 204.357 1070.25 215.975 1051.02 216.774C1033.09 216.345 1026.54 206.74 1027.59 200.051" fill="#0012FF"/>
<path d="M949.668 199.772C953.087 184.114 985.742 180.296 994.475 194.533C1000.01 203.56 991.278 215.266 972.138 216.258C954.212 216.006 948.217 206.461 949.683 199.772" fill="#0012FF"/>
<path d="M871.539 200.065C875.861 184.334 908.738 180.175 916.643 194.353C921.646 203.336 912.157 215.145 892.855 216.344C876.113 216.285 869.363 207.909 871.524 200.065" fill="#0012FF"/>
<path d="M793.16 200.954C798.415 185.267 831.588 180.753 838.678 194.753C843.193 203.677 833.038 215.59 813.647 217.011C795.765 217.129 790.91 207.687 793.175 200.954" fill="#0012FF"/>
<path d="M714.899 202.407C721.116 186.542 754.348 181.673 760.491 195.732C764.384 204.627 753.578 216.658 734.35 218.271C716.527 218.582 712.249 209.185 714.899 202.407Z" fill="#0012FF"/>
<path d="M636.667 204.494C643.772 188.54 677.137 183.316 682.437 197.331C685.782 206.195 674.251 218.36 654.919 220.166C638.325 220.639 633.129 212.441 636.667 204.494Z" fill="#0012FF"/>
<path d="M558.375 207.246C566.383 191.308 599.94 185.714 604.411 199.58C607.253 208.401 595.085 220.699 575.708 222.741C558.034 223.437 554.926 214.098 558.375 207.261" fill="#0012FF"/>
<path d="M480.409 210.633C489.38 194.502 522.893 188.553 526.386 202.464C528.592 211.27 515.817 223.716 496.663 225.935C479.092 226.823 476.575 217.515 480.409 210.618" fill="#0012FF"/>
<path d="M402.696 214.718C412.554 198.454 446.112 192.135 448.717 206.046C450.168 213.771 438.533 227.223 417.676 229.873C401.364 230.879 397.767 222.813 402.681 214.718" fill="#0012FF"/>
<path d="M325.292 219.557C335.965 203.307 369.493 196.603 371.284 210.366C372.424 219.142 358.346 231.884 339.162 234.563C322.968 235.747 319.933 227.726 325.292 219.557Z" fill="#0012FF"/>
<path d="M248.141 225.121C259.258 209.419 290.921 201.827 293.911 214.14C295.85 222.072 281.877 236.798 261.02 239.965C243.849 241.43 243.153 232.165 248.141 225.121Z" fill="#0012FF"/>
<path d="M171.611 231.485C183.542 215.65 215.175 207.688 217.366 219.971C218.772 227.888 204.014 242.791 183.186 246.195C167.303 247.749 165.364 239.772 171.626 231.47" fill="#0012FF"/>
<path d="M95.6747 238.692C108.331 222.828 139.89 214.496 141.311 226.661C142.229 234.548 126.805 249.629 106.051 253.299C90.3604 255.045 88.9987 247.083 95.6747 238.707" fill="#0012FF"/>
<path d="M21.1279 246.64C34.6427 230.553 65.6986 221.925 66.039 234.164C66.2611 242.082 50.2447 257.31 30.0983 261.158C14.3631 263.111 15.3252 254.557 19.8252 248.327C20.1953 247.809 20.7281 247.143 21.1426 246.655" fill="#0012FF"/>
<path d="M1893.85 173.355C1888.75 164.876 1895.32 160.347 1908.2 163.455C1927.72 168.161 1944.82 185.446 1935.52 191.04C1932.62 192.787 1928.51 192.431 1926.05 192.224C1910.21 189.782 1897.69 179.719 1893.85 173.355Z" fill="#0012FF"/>
<path d="M1825.69 166.324C1820.8 157.326 1829.21 152.797 1843.33 156.823C1862.13 162.18 1876.3 178.193 1867.02 183.594C1863.95 185.37 1859.76 185.059 1857.26 184.882C1841.2 182.603 1829.14 172.658 1825.69 166.324Z" fill="#0012FF"/>
<path d="M1756.54 159.917C1751.93 150.387 1762.26 145.917 1777.43 150.875C1795.52 156.795 1806.95 171.564 1797.47 176.774C1794.17 178.579 1789.88 178.313 1787.3 178.15C1771.17 176.063 1759.61 166.222 1756.54 159.917Z" fill="#0012FF"/>
<path d="M1686.36 154.088C1681.89 143.492 1696.19 139.348 1712.74 146.437C1729.59 153.659 1736.59 167.037 1725.67 171.122C1722.44 172.335 1718.77 172.143 1716.58 172.025C1700.15 170.086 1689.03 160.363 1686.38 154.073" fill="#0012FF"/>
<path d="M1615.51 148.876C1611.52 137.777 1628.28 133.781 1644.9 141.891C1659.96 149.231 1664.84 161.603 1654.24 165.54C1650.9 166.783 1647.18 166.635 1644.96 166.546C1628.37 164.77 1617.74 155.151 1615.49 148.891" fill="#0012FF"/>
<path d="M1543.89 144.199C1540.35 132.315 1559.37 128.601 1576.19 137.909C1590.46 145.797 1592.68 157.858 1580.44 160.966C1577.46 161.721 1575.03 161.647 1572.46 161.573C1555.84 159.975 1545.75 150.459 1543.89 144.214" fill="#0012FF"/>
<path d="M1471.61 140.118C1468.71 127.627 1490.25 124.209 1506.54 134.553C1518.86 142.382 1519.3 153.466 1507.43 156.515C1504.37 157.299 1501.94 157.255 1499.36 157.196C1482.62 155.76 1473.06 146.348 1471.61 140.103" fill="#0012FF"/>
<path d="M1398.56 136.593C1396.41 123.585 1420.9 120.447 1435.98 131.813C1446.95 140.071 1444.92 150.8 1431.95 153.05C1429.61 153.449 1427.41 153.435 1425.63 153.42C1408.65 152.147 1399.58 142.809 1398.56 136.593Z" fill="#0012FF"/>
<path d="M1325.09 133.632C1323.78 120.624 1348.72 117.235 1363.21 128.467C1374.5 137.213 1370.52 148.505 1355.6 150.059C1354.27 150.192 1352.49 150.207 1351.16 150.207C1334.23 149.112 1325.73 139.862 1325.09 133.647" fill="#0012FF"/>
<path d="M1251.15 131.25C1250.68 117.768 1278.42 114.734 1291.27 126.87C1300.96 136.03 1294.33 146.848 1278.6 147.544C1277.92 147.573 1277.01 147.559 1276.33 147.573C1259.32 146.656 1251.37 137.48 1251.15 131.25Z" fill="#0012FF"/>
<path d="M1176.67 129.374C1177.13 115.773 1205.28 112.458 1217.37 124.579C1225.29 132.526 1221.15 145.031 1201.08 145.46C1183.89 144.706 1176.46 135.604 1176.67 129.389" fill="#0012FF"/>
<path d="M1101.96 128.071C1103.36 113.716 1134.18 110.8 1144.23 124.075C1149.9 131.563 1145.24 143.299 1125.27 143.906C1108.19 143.329 1101.35 134.301 1101.97 128.056" fill="#0012FF"/>
<path d="M1026.82 127.342C1029.2 113.047 1060.41 109.82 1069.63 122.903C1075.58 131.368 1067.85 142.201 1049.32 142.955C1032.09 142.556 1025.8 133.588 1026.83 127.342" fill="#0012FF"/>
<path d="M951.621 127.183C954.967 112.739 986.333 109.187 994.653 122.299C999.345 129.699 993.143 141.553 973.115 142.574C955.884 142.352 950.17 133.428 951.636 127.168" fill="#0012FF"/>
<path d="M876.261 127.597C880.538 113.094 912.127 109.202 919.603 122.269C923.807 129.624 916.775 141.567 896.585 142.795C880.494 142.751 874.099 134.937 876.275 127.597" fill="#0012FF"/>
<path d="M800.65 128.631C805.89 114.157 837.775 109.939 844.392 122.844C848.655 131.161 838.767 142.29 820.071 143.637C802.885 143.77 798.37 134.95 800.65 128.645" fill="#0012FF"/>
<path d="M725.186 130.243C731.403 115.607 763.362 111.049 769.031 123.983C772.214 131.264 763.672 143.385 743.541 145.042C726.399 145.368 722.491 136.577 725.186 130.228" fill="#0012FF"/>
<path d="M649.75 132.508C656.9 117.783 688.992 112.87 693.773 125.789C696.468 133.056 687.112 145.28 666.862 147.159C650.905 147.633 646.139 139.967 649.75 132.523" fill="#0012FF"/>
<path d="M574.288 135.456C582.356 120.731 614.655 115.477 618.592 128.249C621.124 136.477 609.148 147.976 590.453 149.915C573.459 150.595 570.78 141.879 574.288 135.456Z" fill="#0012FF"/>
<path d="M499.163 139.022C508.223 124.104 540.492 118.51 543.438 131.341C545.096 138.563 534.275 151.009 514.203 153.333C497.313 154.206 495.241 145.489 499.163 139.037" fill="#0012FF"/>
<path d="M424.293 143.313C434.255 128.277 466.569 122.313 468.627 135.129C469.782 142.336 458.176 154.93 438.045 157.46C422.369 158.452 419.26 150.904 424.293 143.298" fill="#0012FF"/>
<path d="M349.747 148.346C360.553 133.31 392.852 126.991 394.051 139.674C394.747 146.955 381.721 159.682 362.329 162.361C346.771 163.515 344.225 156.012 349.732 148.346" fill="#0012FF"/>
<path d="M275.468 154.116C286.732 139.583 317.285 132.42 319.653 143.771C321.193 151.171 307.204 164.964 287.043 167.997C270.553 169.433 270.346 160.746 275.468 154.131" fill="#0012FF"/>
<path d="M201.808 160.673C213.902 145.992 244.455 138.489 245.994 149.81C246.986 157.195 232.183 171.165 212.052 174.436C195.843 176.049 196.317 167.362 201.823 160.673" fill="#0012FF"/>
<path d="M128.743 168.043C141.592 153.333 172.085 145.475 172.84 156.677C173.328 164.047 157.815 178.181 137.758 181.703C122.289 183.434 123.148 175.413 127.485 169.597C127.84 169.123 128.358 168.502 128.743 168.043Z" fill="#0012FF"/>
<path d="M57.0533 176.151C70.7753 161.219 100.81 153.065 100.47 164.357C100.248 171.741 84.1125 186.052 64.6322 189.752C49.5336 191.646 51.0139 183.595 55.7063 177.735C56.0912 177.247 56.6388 176.625 57.0533 176.166" fill="#0012FF"/>
<path d="M-12.5328 184.941C1.35208 170.467 29.2403 161.78 30.0841 171.666C30.7058 178.829 13.135 194.501 -6.6561 198.526C-20.8666 200.494 -18.7203 192.902 -15.2121 188.093C-14.4867 187.086 -13.3913 185.829 -12.5328 184.941Z" fill="#0012FF"/>
<path d="M1924.18 114.322C1919.12 107.529 1922.45 103.356 1931.94 104.614C1950.84 107.115 1973.73 125.51 1965.04 131.208C1962.61 132.806 1958.72 132.421 1956.39 132.184C1941.53 129.728 1928.61 120.256 1924.18 114.322Z" fill="#0012FF"/>
<path d="M1859.59 106.64C1854.58 99.3141 1859.41 95.1408 1870.55 97.1535C1889.8 100.631 1909.2 117.621 1900.2 123.126C1897.55 124.754 1893.63 124.399 1891.28 124.206C1876.09 121.883 1863.6 112.544 1859.57 106.654" fill="#0012FF"/>
<path d="M1794.1 99.5945C1789.29 91.8102 1795.77 87.5924 1808.25 90.3894C1826.96 94.5776 1843.29 110.413 1834.33 115.666C1831.52 117.324 1827.52 117.013 1825.14 116.835C1809.75 114.675 1797.73 105.44 1794.11 99.5945" fill="#0012FF"/>
<path d="M1727.68 93.1729C1723.12 84.9299 1731.36 80.6973 1744.97 84.2935C1763.16 89.1032 1776.62 103.784 1767.47 108.83C1764.42 110.517 1760.32 110.251 1757.86 110.088C1742.39 108.09 1730.89 98.989 1727.68 93.1581" fill="#0012FF"/>
<path d="M1660.25 87.3261C1655.75 77.9879 1667.43 74.007 1682.96 79.5714C1699.44 85.4762 1708.51 97.9519 1699.69 102.614C1696.43 104.33 1692.3 104.108 1689.83 103.99C1674.06 102.14 1663.04 93.1422 1660.25 87.3409" fill="#0012FF"/>
<path d="M1592.16 82.1034C1588.13 72.3509 1602.11 68.4291 1617.93 74.8815C1633.9 81.3931 1640.33 93.6763 1629.77 97.5537C1626.62 98.708 1623.08 98.56 1620.97 98.4712C1605.05 96.7841 1594.54 87.8899 1592.16 82.1034Z" fill="#0012FF"/>
<path d="M1523.33 77.4267C1519.76 67.0377 1535.87 63.2936 1552.05 70.7671C1566.4 77.3971 1570.74 88.7627 1560.32 92.4921C1557 93.676 1553.36 93.5577 1551.2 93.4985C1535.27 91.9742 1525.31 83.1835 1523.34 77.4119" fill="#0012FF"/>
<path d="M1453.83 73.3582C1450.72 61.8741 1471.21 58.7663 1487.03 68.3117C1498.99 75.5188 1499.75 85.7302 1488.53 88.542C1485.63 89.2672 1483.3 89.2228 1480.85 89.1784C1464.8 87.8169 1455.39 79.115 1453.82 73.3582" fill="#0012FF"/>
<path d="M1383.61 69.8506C1381.27 57.8929 1404.6 55.0515 1419.27 65.4996C1429.92 73.0916 1428.25 82.9773 1415.95 85.064C1413.72 85.434 1411.61 85.4192 1409.91 85.4044C1393.64 84.2057 1384.75 75.5778 1383.62 69.8358" fill="#0012FF"/>
<path d="M1312.98 66.9033C1311.5 54.9456 1335.28 51.8674 1349.34 62.1824C1359.57 69.7003 1357.1 79.6008 1344.44 81.8059C1342.15 82.2055 1339.98 82.2055 1338.24 82.2055C1322.01 81.1696 1313.69 72.6305 1312.98 66.9033Z" fill="#0012FF"/>
<path d="M1241.9 64.5203C1241.25 51.7635 1267.39 49.0257 1280.21 60.5098C1289.62 68.9453 1283.44 78.9198 1268.4 79.5562C1267.75 79.5858 1266.87 79.571 1266.22 79.571C1249.92 78.6978 1242.2 70.2328 1241.9 64.5055" fill="#0012FF"/>
<path d="M1170.29 62.7477C1170.63 49.6061 1199.79 47.2382 1210.28 59.4919C1217.06 67.3946 1211.22 77.236 1193.81 77.5911C1177.35 76.8808 1170.15 68.4897 1170.3 62.7625" fill="#0012FF"/>
<path d="M1098.46 61.5045C1099.75 48.3185 1129.24 45.6399 1138.9 57.8343C1145.14 65.6926 1138.46 75.5932 1120.84 76.126C1104.47 75.5932 1097.9 67.2613 1098.46 61.5193" fill="#0012FF"/>
<path d="M1026.23 60.8517C1028.52 47.7249 1058.38 44.7355 1067.19 56.7524C1072.86 64.4923 1065.01 74.5557 1047.75 75.2512C1031.23 74.8812 1025.22 66.6086 1026.23 60.8517Z" fill="#0012FF"/>
<path d="M953.93 60.778C957.216 47.5181 987.251 44.2179 995.126 56.2495C1000.19 63.9894 992.091 74.0676 974.417 74.9556C957.912 74.7632 952.509 66.5349 953.93 60.7632" fill="#0012FF"/>
<path d="M881.5 61.2974C885.749 47.9634 916.005 44.3524 923.022 56.3397C927.522 64.05 918.611 74.217 900.788 75.2973C884.417 75.2677 879.65 67.0986 881.5 61.2974Z" fill="#0012FF"/>
<path d="M808.835 62.4499C814.06 49.1455 844.628 45.209 850.756 57.0482C854.694 64.6549 844.598 75.0143 827.19 76.2574C810.73 76.4054 806.555 68.2659 808.835 62.4499Z" fill="#0012FF"/>
<path d="M736.316 64.1834C742.563 50.7163 773.204 46.4541 778.356 58.3378C781.672 65.9741 771.354 76.363 753.576 77.8133C737.175 78.1241 733.607 70.029 736.316 64.1834Z" fill="#0012FF"/>
<path d="M663.858 66.5779C671.052 53.0219 701.842 48.4342 706.09 60.2883C708.488 66.9775 699.251 78.2691 679.845 80.045C663.621 80.5334 660.735 72.4679 663.858 66.5779Z" fill="#0012FF"/>
<path d="M591.385 69.6446C599.526 56.0887 630.523 51.1606 633.898 62.8815C636.074 70.4142 623.803 81.1435 606.38 82.949C590.127 83.615 587.817 75.5791 591.37 69.6446" fill="#0012FF"/>
<path d="M519.237 73.3582C528.4 59.6099 559.382 54.3562 561.736 66.1362C563.083 72.8698 551.655 84.3835 533.078 86.5146C516.914 87.3581 515.241 79.337 519.223 73.3582" fill="#0012FF"/>
<path d="M447.355 77.7812C457.451 63.9145 488.492 58.3056 489.942 70.0857C490.757 76.7305 479.196 88.3921 459.908 90.8044C443.98 91.8255 442.974 83.7896 447.37 77.7812" fill="#0012FF"/>
<path d="M375.814 82.9336C386.783 69.0521 417.824 63.1028 418.402 74.7645C418.727 81.4833 405.775 93.2782 387.183 95.8384C371.374 97.0371 371.018 89.016 375.829 82.9336" fill="#0012FF"/>
<path d="M304.539 88.822C315.982 75.3844 345.394 68.6508 347.082 79.0842C348.177 85.9066 334.174 98.6929 314.842 101.579C299.062 102.955 299.314 94.9488 304.539 88.8072" fill="#0012FF"/>
<path d="M233.885 95.4829C246.186 81.9121 275.629 74.8382 276.458 85.2567C276.991 92.0643 262.144 105.043 242.841 108.151C227.861 109.646 228.571 102.246 232.687 96.9036C233.027 96.4596 233.515 95.8972 233.885 95.4829Z" fill="#0012FF"/>
<path d="M163.825 102.939C176.91 89.3093 206.308 81.9098 206.323 92.2248C206.338 99.0175 190.766 112.159 171.522 115.518C156.734 117.191 158.037 109.776 162.522 104.375C162.892 103.931 163.41 103.354 163.81 102.939" fill="#0012FF"/>
<path d="M95.0818 111.108C109.07 97.2713 138.039 89.5759 136.958 99.9796C136.248 106.802 120.024 120.121 101.343 123.643C87.2068 125.419 89.3828 118.108 92.5061 113.994C93.2019 113.077 94.2528 111.922 95.067 111.108" fill="#0012FF"/>
<path d="M28.4111 119.944C42.5772 106.506 69.5476 98.3225 69.6364 107.439C69.6956 114.054 51.9621 128.646 32.9703 132.479C18.1233 134.551 23.4078 125.967 24.6068 124.221C25.3025 123.215 26.8272 121.424 28.3963 119.929" fill="#0012FF"/>
<path d="M-36.4404 129.519C-21.5785 115.978 5.00704 107.527 4.19289 116.599C3.60079 123.214 -14.7693 137.984 -33.3022 142.024C-48.0456 144.288 -41.3252 134.92 -40.5111 133.84C-39.6081 132.641 -37.9354 130.865 -36.4552 129.504" fill="#0012FF"/>
<path d="M1885.45 53.2023C1880.49 47.3418 1882.43 43.6125 1890.2 44.1156C1906.67 45.196 1931.7 62.1261 1925.9 68.2677C1923.95 70.3396 1919.15 69.8512 1917.11 69.644C1902.93 67.3206 1890.06 58.6335 1885.46 53.2023" fill="#0012FF"/>
<path d="M1823.65 45.5789C1818.8 39.3485 1822.14 35.4859 1831.37 36.5959C1848.59 38.6529 1870.17 54.3548 1863.89 60.2448C1861.66 62.3315 1856.82 61.9023 1854.75 61.7247C1840.24 59.5344 1827.83 50.9658 1823.65 45.5789Z" fill="#0012FF"/>
<path d="M1760.98 38.5942C1756.25 31.8606 1760.97 27.998 1771.75 29.7887C1789.23 32.6893 1807.47 47.1332 1800.86 52.8605C1798.41 54.9915 1793.48 54.6068 1791.37 54.444C1776.68 52.4017 1764.76 43.9514 1760.98 38.609" fill="#0012FF"/>
<path d="M1697.42 32.2155C1692.91 25.0823 1699.23 21.1605 1711.2 23.632C1728.46 27.1986 1743.84 40.6213 1736.92 46.0674C1734.18 48.2132 1729.12 47.8877 1726.94 47.7397C1712.17 45.8602 1700.78 37.5283 1697.42 32.2155Z" fill="#0012FF"/>
<path d="M1632.88 26.4149C1628.41 18.3494 1637.86 14.5164 1651.95 18.6898C1668.76 23.6622 1679.66 36.0787 1671.06 40.474C1668.04 42.0131 1664.1 41.8059 1661.75 41.6727C1646.71 39.9412 1635.81 31.7129 1632.88 26.4149Z" fill="#0012FF"/>
<path d="M1567.69 21.2222C1563.68 12.8015 1575.27 8.98335 1589.84 13.9262C1605.56 19.2539 1613.95 30.6344 1605.31 34.8965C1602.12 36.4652 1598.13 36.3024 1595.74 36.1988C1580.56 34.6153 1570.2 26.4906 1567.69 21.2222Z" fill="#0012FF"/>
<path d="M1501.79 16.5887C1497.99 7.04328 1513.13 3.6395 1528.81 10.5359C1542.75 16.6775 1547.33 27.0664 1537.54 30.411C1534.42 31.4765 1530.95 31.3581 1528.88 31.2841C1513.68 29.8634 1503.88 21.8276 1501.79 16.5887Z" fill="#0012FF"/>
<path d="M1435.27 12.5484C1432.1 2.55904 1449.58 -0.667147 1464.98 7.05797C1477.46 13.3328 1480.09 22.7154 1470.29 26.0156C1467.03 27.1107 1463.57 27.0367 1461.48 26.9923C1446.16 25.7196 1436.93 17.7873 1435.27 12.5484Z" fill="#0012FF"/>
<path d="M1368.02 9.10047C1365.61 -1.22928 1385.83 -4.2927 1400.3 4.20196C1411.44 10.7283 1411.73 20.0518 1400.9 22.6712C1398.08 23.352 1395.83 23.3224 1393.47 23.2928C1377.94 22.168 1369.23 14.3097 1368.02 9.10047Z" fill="#0012FF"/>
<path d="M1300.4 6.18425C1298.73 -4.76706 1321.32 -7.56409 1334.92 1.90732C1344.82 8.78888 1342.68 17.8163 1330.69 19.7846C1328.5 20.1398 1326.44 20.1398 1324.78 20.1398C1309.3 19.1778 1301.2 11.4083 1300.4 6.18425Z" fill="#0012FF"/>
<path d="M1232.34 3.84503C1231.53 -7.83143 1256.39 -10.3177 1268.8 0.204454C1277.27 7.3968 1272.74 16.0691 1259.83 17.401C1258.61 17.5194 1256.99 17.549 1255.77 17.5638C1240.21 16.7646 1232.71 9.05431 1232.35 3.84503" fill="#0012FF"/>
<path d="M1163.74 2.12774C1163.94 -9.8743 1191.72 -12.0498 1201.85 -0.846862C1208.36 6.36028 1202.9 15.3137 1186.32 15.6245C1170.61 14.9733 1163.65 7.33702 1163.74 2.12774Z" fill="#0012FF"/>
<path d="M1094.97 0.960995C1096.15 -11.0854 1124.25 -13.5421 1133.52 -2.3984C1139.47 4.76435 1133.16 13.777 1116.39 14.2506C1100.77 13.7622 1094.45 6.18507 1094.97 0.960995Z" fill="#0012FF"/>
<path d="M1025.81 0.384695C1028.02 -11.6173 1056.5 -14.37 1064.88 -3.38907C1070.29 3.71448 1063.23 12.8011 1046.33 13.4523C1030.58 13.1267 1024.84 5.60875 1025.8 0.369882" fill="#0012FF"/>
<path d="M956.596 0.369799C959.823 -11.7654 988.48 -14.814 995.911 -3.80353C1000.68 3.25563 992.877 12.4311 976.061 13.2598C960.311 13.097 955.204 5.62347 956.596 0.369799Z" fill="#0012FF"/>
<path d="M887.245 0.944492C891.745 -12.0935 922.534 -14.7721 927.419 -2.56288C929.847 3.53434 922.682 12.6358 905.482 13.6569C889.865 13.6569 885.409 6.22778 887.23 0.959306" fill="#0012FF"/>
<path d="M817.702 2.18925C823.282 -10.8043 854.323 -13.8233 858.202 -1.74729C860.156 4.32033 852.266 13.5253 834.976 14.7093C819.286 14.8721 815.422 7.48731 817.702 2.18925Z" fill="#0012FF"/>
<path d="M748.291 4.02458C754.568 -8.31784 783.862 -12.2692 788.481 -1.40667C791.441 5.54889 781.375 15.0351 764.456 16.3818C748.81 16.7074 745.583 9.35225 748.291 4.02458Z" fill="#0012FF"/>
<path d="M678.956 6.49478C686.21 -5.93644 715.652 -10.2134 719.353 0.63436C721.425 6.73158 712.307 17.0465 693.833 18.704C679.267 19.1628 675.3 12.7548 678.956 6.49478Z" fill="#0012FF"/>
<path d="M609.606 9.64551C617.836 -2.8005 647.501 -7.40302 650.284 3.32631C652.075 10.2375 640.514 19.9753 623.461 21.692C607.963 22.3579 606.024 15.0472 609.606 9.63072" fill="#0012FF"/>
<path d="M540.598 13.4493C549.879 0.840522 579.543 -4.08756 581.29 6.70096C582.415 13.6121 570.159 23.4683 553.284 25.3774C537.874 26.2061 536.586 18.9102 540.598 13.4641" fill="#0012FF"/>
<path d="M471.838 17.9339C482.096 5.19187 511.835 -0.0618119 512.634 10.7267C513.078 16.7943 501.577 27.4645 483.207 29.7435C468.019 30.7351 467.412 23.4391 471.838 17.9339Z" fill="#0012FF"/>
<path d="M403.45 23.1584C414.596 10.4016 444.35 4.80754 444.261 15.4925C444.202 22.3888 430.509 32.5558 413.605 34.8497C398.536 36.0188 398.595 28.7081 403.45 23.1584Z" fill="#0012FF"/>
<path d="M335.314 29.0777C346.978 16.6909 375.237 10.3865 376.169 19.9615C376.776 26.1919 362.788 37.9423 344.388 40.6506C329.852 41.9529 330.311 35.2193 334.174 30.38C334.5 29.9804 334.959 29.4625 335.314 29.0777Z" fill="#0012FF"/>
<path d="M267.799 35.7661C280.366 23.2313 308.654 16.6013 308.713 26.1763C308.743 32.4067 293.896 44.3348 275.511 47.265C261.226 48.7153 262.337 41.9817 266.57 37.0832C266.925 36.6689 267.414 36.1509 267.799 35.7661Z" fill="#0012FF"/>
<path d="M200.847 43.243C214.214 30.649 242.487 23.6935 241.732 33.1797C241.229 39.3953 225.612 51.5009 207.301 54.6531C193.505 56.2366 195.207 49.873 198.39 45.8625C199.056 45.0189 200.062 43.9682 200.847 43.2282" fill="#0012FF"/>
<path d="M135.182 51.395C148.948 39.0674 175.386 31.6235 175.578 40.0145C175.726 46.0674 158.629 59.3273 140.185 62.7607C125.16 64.6846 130.83 56.2639 131.54 55.2872C132.177 54.3992 133.583 52.8009 135.182 51.3802" fill="#0012FF"/>
<path d="M71.5152 60.1996C86.0514 47.7388 112.089 40.0432 111.32 48.4491C110.772 54.5315 93.4823 67.8655 74.831 71.5948C60.6649 73.6075 66.3047 65.7492 67.5778 64.1509C68.2883 63.263 69.8277 61.6351 71.5004 60.1996" fill="#0012FF"/>
<path d="M9.61114 69.7025C24.8579 57.1233 50.5552 49.1762 48.8973 57.5524C47.6835 63.6349 29.1358 77.2796 11.5206 81.083C-0.63232 82.9773 3.02398 76.8208 4.44503 74.8969C5.59964 73.3282 7.33153 71.582 9.61114 69.7025Z" fill="#0012FF"/>
<path d="M1902.68 5.72729C1897.6 0.843601 1898.13 -2.41221 1904.01 -2.38261C1918.28 -2.30862 1946.58 14.2812 1942.33 20.0824C1940.97 21.9323 1936.56 21.4291 1934.68 21.2071C1921.28 18.8689 1907.9 10.7442 1902.68 5.72729Z" fill="#0012FF"/>
<path d="M1844.93 -2.36889C1840.24 -7.22298 1841.14 -10.4936 1847.18 -10.5232C1862.04 -10.5972 1889.43 5.72619 1884.28 11.5866C1882.63 13.4661 1878.07 12.9925 1876.14 12.7853C1862.62 10.5951 1849.74 2.6036 1844.92 -2.36889" fill="#0012FF"/>
<path d="M1786.06 -9.85954C1781.4 -15.0984 1783.43 -18.443 1790.99 -18.0138C1806.87 -17.0963 1830.82 -1.86804 1825.17 3.69641C1823.24 5.59069 1818.64 5.17632 1816.67 4.99873C1802.85 2.94166 1790.46 -4.93145 1786.08 -9.85954" fill="#0012FF"/>
<path d="M239.793 -11.0853C253.293 -22.4805 280.381 -28.9477 278.96 -20.4383C278.013 -14.785 262.352 -3.68572 244.84 -0.681507C230.482 0.990788 235.204 -6.08318 236.299 -7.53348C236.936 -8.36223 238.342 -9.85693 239.793 -11.0853Z" fill="#0012FF"/>
<path d="M177.339 -3.01974C191.254 -14.193 216.64 -21.1042 216.152 -13.5863C215.796 -8.09582 198.596 4.08381 180.922 7.33961C168.561 8.9379 171.507 3.38825 172.706 1.64196C173.372 0.665218 174.719 -0.933087 177.339 -3.03455" fill="#0012FF"/>
<path d="M116.782 5.68207C131.481 -5.63922 156.513 -12.7872 155.062 -5.23963C153.996 0.280421 135.981 12.6524 118.677 16.0858C106.776 17.7877 110.358 12.1789 111.75 10.4178C112.519 9.42625 114.029 7.81313 116.782 5.68207Z" fill="#0012FF"/>
<path d="M57.9115 15.034C72.4773 4.24552 96.2356 -3.302 95.8655 2.9876C95.5695 8.09328 76.178 21.6344 58.3852 25.4378C48.5859 26.9769 49.9773 23.2327 51.6796 20.8501C52.8194 19.2518 55.1582 17.0763 57.9263 15.0192" fill="#0012FF"/>
<path d="M1.01042 24.9953C16.3608 13.9848 39.7786 6.23009 38.4167 12.6085C37.3065 17.7586 17.1157 31.5069 -0.040597 35.4434C-8.12284 36.8346 -7.95999 34.2595 -6.40571 31.8473C-5.70999 30.7817 -3.83004 28.4731 1.01042 24.9953Z" fill="#0012FF"/>
</g>
<defs>
<clipPath id="clip0_1269_3075">
<rect width="4871" height="1462" fill="white" transform="translate(-1418 -280)"/>
</clipPath>
</defs>
</svg>
