<svg width="2551" height="319" viewBox="0 0 2551 319" fill="none" xmlns="http://www.w3.org/2000/svg">
<g clip-path="url(#clip0_835_1729)">
<rect x="650" y="-38" width="1251" height="310" fill="#0000A8"/>
<path d="M82.7173 157.48H170.285V76.7486H265.474V-4.12559H339.323V-85L507.683 -85V-4.12559L692.472 -4.12559V76.7486H845.25V157.48L1023.6 157.48V238.354H1276.31V319.228L-34.9992 319.228V238.354H82.7173V157.48Z" fill="#0000A8"/>
<path d="M2469.6 157.48H2382.03V76.7486H2286.84V-4.12559H2212.99V-85L2044.63 -85V-4.12559L1859.84 -4.12559V76.7486H1707.06V157.48L1528.71 157.48V238.354H1276V319.228L2587.31 319.228V238.354H2469.6V157.48Z" fill="#0000A8"/>
</g>
<defs>
<clipPath id="clip0_835_1729">
<rect width="2551" height="319" fill="white"/>
</clipPath>
</defs>
</svg>
