<svg width="129" height="32" viewBox="0 0 129 32" fill="none" xmlns="http://www.w3.org/2000/svg">
<g clip-path="url(#clip0_928_1434)">
<path d="M52.5648 12.2232C52.2106 10.8435 51.3174 9.83404 49.5709 9.83404C46.9935 9.83404 45.9157 12.1048 45.9157 14.4092C45.9157 16.7137 46.9935 18.9857 49.5709 18.9857C51.4421 18.9857 52.4675 17.5899 52.6347 15.84H54.6894C54.5209 18.7165 52.4837 20.7006 49.5746 20.7006C45.9706 20.7006 43.8149 17.8403 43.8149 14.408C43.8149 10.9756 45.9631 8.11035 49.5671 8.11035C52.2779 8.12655 54.4161 9.62465 54.6694 12.2157L52.5648 12.2232ZM55.933 16.0517C55.933 13.3933 57.5322 11.4764 60.3279 11.4764C63.1236 11.4764 64.7228 13.3933 64.7228 16.0517C64.7228 18.7101 63.1236 20.6456 60.3279 20.6456C57.5322 20.6456 55.933 18.7275 55.933 16.0517ZM62.8029 16.0517C62.8029 14.5561 62.0457 12.9907 60.3279 12.9907C58.6101 12.9907 57.8529 14.5549 57.8529 16.0517C57.8529 17.5485 58.6101 19.1314 60.3279 19.1314C62.0457 19.1314 62.8029 17.5659 62.8029 16.0517ZM66.3708 8.39691H68.2908V10.2141H66.3708V8.39691ZM66.3708 11.7121H68.2908V20.4102H66.3708V11.7121ZM70.3799 11.7123H72.1988V12.991L72.2325 13.0247C72.5082 12.551 72.9041 12.1583 73.3803 11.8863C73.8564 11.6143 74.396 11.4726 74.9445 11.4755C76.8307 11.4755 78.0258 12.4851 78.0258 14.4355V20.4091H76.1059V14.9415C76.0723 13.5793 75.5334 12.991 74.4056 12.991C73.1257 12.991 72.2998 13.9993 72.2998 15.278V20.4104H70.3799V11.7123ZM90.8079 20.4102H89.4604L89.1417 18.9969C88.0186 20.2756 86.9858 20.6956 85.5233 20.6956C81.9225 20.6982 79.7615 17.8316 79.7615 14.403C79.7615 10.9744 81.9225 8.11035 85.5209 8.11035C88.1409 8.11035 90.3542 9.50622 90.6737 12.2157H88.6185C88.4164 10.6341 87.037 9.82654 85.5209 9.82654C82.9441 9.82654 81.8658 12.0973 81.8658 14.4017C81.8658 16.7061 82.9441 18.9782 85.5209 18.9782C87.676 19.0119 88.8541 17.717 88.8893 15.6805H85.6895V14.084H90.8047L90.8079 20.4102ZM94.3297 16.5564C94.3297 17.9199 95.0701 19.1314 96.6692 19.1314C97.7811 19.1314 98.4545 18.6427 98.7899 17.6843H100.61C100.19 19.5849 98.5735 20.6456 96.6692 20.6456C93.9423 20.6456 92.4094 18.7437 92.4094 16.0691C92.4094 13.5952 94.0309 11.4764 96.6197 11.4764C99.3643 11.4764 101.048 13.9491 100.729 16.5564H94.3297ZM98.8091 15.2952C98.742 14.0837 97.9161 12.9907 96.6197 12.9907C95.289 12.9907 94.3808 13.999 94.3297 15.2952H98.8091ZM108.072 14.6222C107.921 13.5615 107.146 12.9907 106.085 12.9907C105.087 12.9907 103.694 13.5116 103.694 16.1526C103.694 17.5996 104.334 19.1314 106 19.1314C107.112 19.1314 107.887 18.391 108.072 17.1459H109.993C109.638 19.4005 108.246 20.6456 106 20.6456C103.273 20.6456 101.774 18.7101 101.774 16.1526C101.774 13.5279 103.206 11.4764 106.068 11.4764C108.089 11.4764 109.81 12.486 109.993 14.6222H108.072ZM111.613 8.39691H113.533V15.228L117.003 11.7121H119.36L116.026 14.9077L119.679 20.4102H117.334L114.673 16.1864L113.528 17.2969V20.4126H111.613V8.39691ZM120.198 16.0517C120.198 13.3933 121.798 11.4764 124.594 11.4764C127.39 11.4764 128.99 13.3933 128.99 16.0517C128.99 18.7101 127.39 20.6456 124.594 20.6456C121.798 20.6456 120.198 18.7275 120.198 16.0517ZM127.07 16.0517C127.07 14.5561 126.311 12.9907 124.594 12.9907C122.876 12.9907 122.119 14.5549 122.119 16.0517C122.119 17.5485 122.876 19.1314 124.594 19.1314C126.311 19.1314 127.07 17.5659 127.07 16.0517Z" fill="black"/>
<path fill-rule="evenodd" clip-rule="evenodd" d="M29.2134 24.6933C30.9511 22.0696 31.8709 18.9899 31.8566 15.8438C31.8371 11.6255 30.1412 7.58754 27.1421 4.61813C24.143 1.64871 20.0861 -0.00904626 15.8637 0.00943015C12.7147 0.023475 9.64058 0.970228 7.03007 2.72983C4.41959 4.4894 2.39001 6.98283 1.19799 9.8948C0.00593942 12.8068 -0.294992 16.0065 0.333249 19.0894C0.762668 21.1968 1.61538 23.1952 2.83984 24.964C5.64389 29.451 12.2425 32.9349 18.3377 31.666C18.4775 31.6404 18.618 31.6125 18.7592 31.5825L18.7579 31.5791L18.7548 31.5715L18.7575 31.5708C19.9025 31.3647 21.0215 31.0339 22.0944 30.5843C24.9982 29.3672 27.4756 27.3171 29.2134 24.6933H29.2134ZM18.7576 31.5708L18.7602 31.5701C18.0928 26.9151 22.1646 22.3561 24.4587 20.023C24.675 19.8043 24.9393 19.5512 25.228 19.2749L25.2281 19.2749H25.2282L26.4761 18.0511C29.5031 15.254 30.1422 11.8982 24.0088 10.2293C22.8622 9.89783 21.6739 9.42884 20.4707 8.95387L20.4435 8.94318L20.4419 8.93647L20.4445 8.93831L20.4367 8.91596C20.4161 8.83792 20.3825 8.75509 20.3348 8.66739C19.6021 7.10808 17.6308 6.91872 15.9935 7.42777L16.0082 7.42888L15.9924 7.43263C14.5728 7.09859 13.1705 6.98024 11.8246 7.30798C5.94127 8.92714 4.98476 11.792 4.75256 15.2427L4.71438 15.7021L4.71422 15.7036C4.42275 19.2205 4.19997 21.9085 2.83984 24.964C3.39822 25.7707 4.0301 26.524 4.7274 27.2143C6.96413 29.4289 9.80797 30.9311 12.8993 31.5309C14.8328 31.9061 16.8191 31.9196 18.7576 31.5708ZM16.2378 13.707C16.5759 13.201 16.7563 12.6062 16.756 11.9978C16.756 11.5939 16.6764 11.194 16.5217 10.8209C16.3669 10.4478 16.1401 10.1087 15.8542 9.82322C15.5683 9.53773 15.2289 9.31128 14.8554 9.1568C14.4818 9.00239 14.0815 8.92299 13.6772 8.92315C13.0682 8.92315 12.4729 9.10358 11.9666 9.44161C11.4602 9.77965 11.0656 10.2601 10.8327 10.8222C10.5997 11.3844 10.5388 12.0029 10.6577 12.5996C10.7766 13.1963 11.0699 13.7443 11.5006 14.1745C11.9313 14.6046 12.48 14.8975 13.0773 15.016C13.6747 15.1346 14.2938 15.0735 14.8563 14.8404C15.4189 14.6074 15.8996 14.213 16.2378 13.707ZM13.6853 14.169C14.9254 14.169 15.9307 13.1645 15.9307 11.9256C15.9307 10.6866 14.9254 9.68221 13.6853 9.68221C12.4451 9.68221 11.4398 10.6867 11.4398 11.9256C11.4398 13.1645 12.4451 14.169 13.6853 14.169Z" fill="black"/>
<path d="M27.7631 16.5367C26.9884 17.242 26.0665 17.7642 25.1283 18.2254C24.1788 18.6758 23.1889 19.0359 22.1718 19.301C21.1539 19.5639 20.0922 19.7621 19.0169 19.6649C17.9415 19.5677 16.8425 19.2025 16.1301 18.3974L16.1638 18.3588C17.0371 18.9246 18.0451 19.124 19.0481 19.1527C20.0647 19.1836 21.0816 19.0999 22.0795 18.9034C23.0875 18.6926 24.0736 18.388 25.0248 17.9936C25.9766 17.601 26.9185 17.1461 27.7293 16.498L27.7631 16.5367Z" fill="black"/>
</g>
<defs>
<clipPath id="clip0_928_1434">
<rect width="129" height="32" fill="white"/>
</clipPath>
</defs>
</svg>
