<svg width="320" height="103" viewBox="0 0 320 103" fill="none" xmlns="http://www.w3.org/2000/svg">
<path d="M0 12C0 5.37258 5.37258 0 12 0H290C296.627 0 302 5.37258 302 12V78C302 84.6274 296.627 90 290 90H12C5.37258 90 0 84.6274 0 78V12Z" fill="#FFE1F4"/>
<path fill-rule="evenodd" clip-rule="evenodd" d="M290 2H12C6.47715 2 2 6.47715 2 12V78C2 83.5229 6.47715 88 12 88H290C295.523 88 300 83.5229 300 78V12C300 6.47715 295.523 2 290 2ZM12 0C5.37258 0 0 5.37258 0 12V78C0 84.6274 5.37258 90 12 90H290C296.627 90 302 84.6274 302 78V12C302 5.37258 296.627 0 290 0H12Z" fill="#FF36AE"/>
<path d="M18 25C18 18.3726 23.3726 13 30 13H308C314.627 13 320 18.3726 320 25V91C320 97.6274 314.627 103 308 103H30C23.3726 103 18 97.6274 18 91V25Z" fill="#FF36AE"/>
<path d="M217.982 67.9995H214.494V52.1915H217.918V54.0155H218.462C218.739 53.4609 219.209 52.9809 219.87 52.5755C220.531 52.1489 221.417 51.9355 222.526 51.9355C223.678 51.9355 224.606 52.1702 225.31 52.6395C226.014 53.1089 226.547 53.7062 226.91 54.4315H227.454C227.817 53.7275 228.339 53.1409 229.022 52.6715C229.705 52.1809 230.675 51.9355 231.934 51.9355C232.937 51.9355 233.833 52.1489 234.622 52.5755C235.433 52.9809 236.073 53.5995 236.542 54.4315C237.011 55.2635 237.246 56.2875 237.246 57.5035V67.9995H233.758V57.7595C233.758 56.8422 233.502 56.1382 232.99 55.6475C232.478 55.1355 231.774 54.8795 230.878 54.8795C229.875 54.8795 229.075 55.1995 228.478 55.8395C227.902 56.4795 227.614 57.3969 227.614 58.5915V67.9995H224.126V57.7595C224.126 56.8422 223.87 56.1382 223.358 55.6475C222.846 55.1355 222.142 54.8795 221.246 54.8795C220.243 54.8795 219.443 55.1995 218.846 55.8395C218.27 56.4795 217.982 57.3969 217.982 58.5915V67.9995Z" fill="#FFE1F4"/>
<path d="M200.822 68.2564C199.628 68.2564 198.561 67.9897 197.622 67.4564C196.684 66.923 195.948 66.1657 195.414 65.1844C194.902 64.1817 194.646 63.0084 194.646 61.6644V52.1924H198.134V61.4084C198.134 62.731 198.465 63.7124 199.126 64.3524C199.788 64.971 200.705 65.2804 201.878 65.2804C203.201 65.2804 204.246 64.8431 205.014 63.9684C205.804 63.0937 206.198 61.835 206.198 60.1924V52.1924H209.686V68.0004H206.262V65.7284H205.718C205.441 66.3257 204.929 66.9017 204.182 67.4564C203.436 67.9897 202.316 68.2564 200.822 68.2564Z" fill="#FFE1F4"/>
<path d="M190.014 67.9997H186.526V52.1917H190.014V67.9997ZM188.254 50.1437C187.593 50.1437 187.038 49.9303 186.59 49.5037C186.142 49.0557 185.918 48.4903 185.918 47.8077C185.918 47.1037 186.142 46.5383 186.59 46.1117C187.038 45.685 187.593 45.4717 188.254 45.4717C188.937 45.4717 189.502 45.685 189.95 46.1117C190.398 46.5383 190.622 47.1037 190.622 47.8077C190.622 48.4903 190.398 49.0557 189.95 49.5037C189.502 49.9303 188.937 50.1437 188.254 50.1437Z" fill="#FFE1F4"/>
<path d="M172.521 68.4476C171.241 68.4476 170.046 68.1276 168.937 67.4876C167.828 66.8476 166.942 65.9303 166.281 64.7356C165.62 63.5196 165.289 62.0583 165.289 60.3516V59.8716C165.289 58.1649 165.62 56.7036 166.281 55.4876C166.942 54.2716 167.817 53.3436 168.905 52.7036C170.014 52.0636 171.22 51.7436 172.521 51.7436C173.524 51.7436 174.366 51.8716 175.049 52.1276C175.753 52.3623 176.318 52.6716 176.745 53.0556C177.172 53.4396 177.502 53.8343 177.737 54.2396H178.249V45.5996H181.769V67.9996H178.313V65.8556H177.801C177.417 66.5169 176.82 67.1143 176.009 67.6476C175.198 68.1809 174.036 68.4476 172.521 68.4476ZM173.545 65.3756C174.91 65.3756 176.041 64.9383 176.937 64.0636C177.854 63.1676 178.313 61.8983 178.313 60.2556V59.9356C178.313 58.2929 177.865 57.0343 176.969 56.1596C176.073 55.2636 174.932 54.8156 173.545 54.8156C172.18 54.8156 171.049 55.2636 170.153 56.1596C169.257 57.0343 168.809 58.2929 168.809 59.9356V60.2556C168.809 61.8983 169.257 63.1676 170.153 64.0636C171.049 64.9383 172.18 65.3756 173.545 65.3756Z" fill="#FFE1F4"/>
<path d="M154.632 68.4481C153.053 68.4481 151.656 68.1175 150.44 67.4561C149.245 66.7735 148.317 65.8241 147.656 64.6081C146.995 63.3708 146.664 61.9308 146.664 60.2881V59.9041C146.664 58.2615 146.995 56.8321 147.656 55.6161C148.317 54.3788 149.235 53.4295 150.408 52.7681C151.603 52.0855 152.979 51.7441 154.536 51.7441C156.072 51.7441 157.405 52.0855 158.536 52.7681C159.688 53.4295 160.584 54.3681 161.224 55.5841C161.864 56.7788 162.184 58.1868 162.184 59.8081V61.0881H150.216C150.259 62.3895 150.707 63.4348 151.56 64.2241C152.413 64.9921 153.469 65.3761 154.728 65.3761C155.944 65.3761 156.851 65.1095 157.448 64.5761C158.045 64.0428 158.504 63.4348 158.824 62.7521L161.736 64.2241C161.416 64.8215 160.968 65.4508 160.392 66.1121C159.837 66.7521 159.091 67.3068 158.152 67.7761C157.235 68.2241 156.061 68.4481 154.632 68.4481ZM150.248 58.4321H158.632C158.547 57.3228 158.131 56.4481 157.384 55.8081C156.637 55.1468 155.677 54.8161 154.504 54.8161C153.309 54.8161 152.339 55.1468 151.592 55.8081C150.867 56.4481 150.419 57.3228 150.248 58.4321Z" fill="#FFE1F4"/>
<path d="M122.855 67.9996H119.271V45.5996H126.151L130.759 65.5356H131.271L135.879 45.5996H142.759V67.9996H139.207V48.2236H138.663L134.087 67.9996H127.943L123.367 48.2236H122.855V67.9996Z" fill="#FFE1F4"/>
<g clip-path="url(#clip0_683_960)">
<path fill-rule="evenodd" clip-rule="evenodd" d="M70.7947 50.1827C70.8347 49.7893 70.684 49.4013 70.3907 49.1373L67.404 45.5373V45H76.6813L83.852 60.7267L90.156 45H99V45.5373L96.4453 47.9867C96.2253 48.1547 96.116 48.4307 96.1613 48.704V66.7013C96.116 66.9733 96.2253 67.2493 96.4453 67.4173L98.94 69.8667V70.404H86.3907V69.8667L88.976 67.3573C89.2293 67.104 89.2293 67.0293 89.2293 66.6413V52.0947L82.044 70.3453H81.0733L72.7067 52.0947V64.3267C72.6373 64.84 72.808 65.3587 73.1693 65.7293L76.5307 69.8067V70.3453H67V69.8067L70.3613 65.7293C70.7213 65.3573 70.8813 64.836 70.7947 64.3267V50.1827Z" fill="#FFE1F4"/>
</g>
<defs>
<clipPath id="clip0_683_960">
<rect width="32" height="32" fill="white" transform="translate(67 41)"/>
</clipPath>
</defs>
</svg>
