<svg width="24" height="24" viewBox="0 0 24 24" fill="none" xmlns="http://www.w3.org/2000/svg">
<path d="M22 9V7H21V5H20V4H19V3H17V2H15V1H9V2H7V3H5V4H4V5H3V7H2V9H1V15H2V17H3V19H4V20H5V21H7V22H9V23H15V22H17V21H19V20H20V19H21V17H22V15H23V9H22ZM9 21V20H7V19H5V17H4V15H3V11H4V12H5V13H6V14H8V17H9V18H10V21H9ZM15 19H14V21H12V18H11V17H10V14H9V13H8V12H7V11H6V10H5V9H4V7H5V6H6V5H7V4H10V3H12V4H13V8H11V11H10V10H8V12H11V13H15V14H16V17H15V19ZM20 17H19V19H17V20H16V19H17V17H18V14H17V13H16V12H15V11H13V9H14V8H15V4H14V3H15V4H17V5H19V7H18V8H17V9H16V12H17V13H18V14H19V15H20V17ZM21 13H19V12H18V9H19V8H20V9H21V13Z" fill="#0000A8"/>
</svg>
