<svg width="32" height="32" viewBox="0 0 32 32" fill="none" xmlns="http://www.w3.org/2000/svg">
<rect width="32" height="32" fill="black"/>
<path d="M21.5518 22.8699C21.2579 23.1282 20.926 23.3739 20.5277 23.6228L18.5396 20.1859L16.6431 23.4621H15.3566L13.457 20.1859L11.4657 23.6291C11.099 23.4023 10.7513 23.1471 10.4258 22.8699L12.8059 18.7526H14.1018L16.0015 22.0288L17.8979 18.7526H19.1654L21.555 22.8762L21.5518 22.8699Z" fill="white"/>
<path d="M24.5468 16.8939C24.5278 17.2783 24.4709 17.6846 24.373 18.1572H19.5338L18.8889 17.0452L20.7886 13.7689H16.9925L16.3477 12.6569L18.8542 8.36319C19.2619 8.51125 19.6507 8.68451 20.0174 8.88297L17.9059 12.5246H21.7021L22.3437 13.6177L20.4472 16.8939H24.5468Z" fill="white"/>
<path d="M14.998 13.7689H11.2018L13.1015 17.0452L12.4662 18.154H7.62065C7.53531 17.7351 7.48157 17.3035 7.45312 16.8719H11.5432L9.64673 13.5957L10.2884 12.5026H14.0845L11.9731 8.86408C12.3397 8.66562 12.7285 8.49236 13.1363 8.3443L15.6428 12.6601L14.998 13.7721V13.7689Z" fill="white"/>
</svg>
