<?xml version="1.0" encoding="UTF-8"?>
<svg id="_图层_1" data-name="图层 1" xmlns="http://www.w3.org/2000/svg" viewBox="0 0 531.89 531.89">
  <defs>
    <style>
      .cls-1 {
        fill: none;
      }

      .cls-2 {
        fill: blue;
      }

      .cls-3 {
        fill: #fff;
      }

      .cls-4 {
        fill: #0808ff;
      }
    </style>
  </defs>
  <rect class="cls-3" width="531.89" height="531.89"/>
  <g>
    <polygon class="cls-1" points="0 531.89 0 0 531.89 0 531.89 0 531.89 531.89 531.89 531.89 0 531.89"/>
    <g>
      <path class="cls-2" d="M381.41,141.74c-33.12-33.13-77.23-51.37-124.21-51.37s-91.08,18.24-124.21,51.37c-33.12,33.13-51.36,77.24-51.36,124.21s18.24,91.09,51.36,124.21c33.12,33.13,77.23,51.37,124.21,51.37s91.08-18.24,124.21-51.37c31.78-31.77,49.68-73.7,51.09-118.53h55.7c12.71,0,15.75-7.35,6.77-16.33l-113.56-113.55Zm.51,129.89c-6.94,0-13.07,4.93-14.13,11.79-3.62,23.3-14.45,44.76-31.41,61.72-21.83,21.82-50.51,32.74-79.18,32.74s-57.35-10.92-79.18-32.74c-21.12-21.11-32.75-49.24-32.75-79.18s11.63-58.06,32.75-79.17c43.66-43.68,114.7-43.67,158.37,0l84.85,84.85h-39.32Z"/>
      <path class="cls-4" d="M195.62,290c-7.31,0-10.81,5.45-7.67,12.04,12.34,25.89,38.66,43.81,69.25,43.81s56.91-17.92,69.25-43.81c3.15-6.6-.36-12.04-7.67-12.04h-123.17Z"/>
    </g>
  </g>
</svg>