<svg width="700" height="134" viewBox="0 0 700 134" fill="none" xmlns="http://www.w3.org/2000/svg">
<g clip-path="url(#clip0_807_278)">
<path d="M199.113 126.155H184.035V15.4414H213.387L239.883 116.045H242.267L268.625 15.4414H297.976V126.155H282.899V26.1868H280.515L254.157 126.155H227.799L201.441 26.1868H199.057V126.155H199.113Z" fill="#0000A8"/>
<path d="M329.878 126.155H313.691L346.397 15.4414H373.863L406.568 126.155H390.382L382.594 99.2501H337.666L329.878 126.155ZM358.924 25.0818L341.463 85.0241H378.769L361.308 25.0818H358.924Z" fill="#0000A8"/>
<path d="M459.396 128.392C451.137 128.392 443.819 126.901 437.417 123.973C431.015 121.017 425.998 116.708 422.339 110.99C418.681 105.3 416.852 98.228 416.852 89.8029V86.0186H432.234V89.8029C432.234 98.228 434.756 104.526 439.773 108.614C444.789 112.73 451.331 114.774 459.368 114.774C467.406 114.774 473.725 112.979 478.021 109.388C482.317 105.797 484.451 101.267 484.451 95.7972C484.451 92.0957 483.481 89.1124 481.513 86.792C479.546 84.4717 476.774 82.5933 473.171 81.1845C469.568 79.7481 465.299 78.4774 460.311 77.3173L453.492 75.7427C446.619 74.0577 440.632 71.986 435.56 69.4999C430.488 67.0138 426.525 63.7819 423.67 59.7765C420.815 55.7712 419.374 50.5504 419.374 44.1142C419.374 37.678 420.954 32.3191 424.141 27.6508C427.328 23.0101 431.763 19.4467 437.472 16.9606C443.182 14.4745 449.862 13.2315 457.484 13.2315C465.105 13.2315 471.924 14.5574 477.966 17.1816C484.008 19.8058 488.747 23.7007 492.24 28.811C495.732 33.9213 497.478 40.3298 497.478 48.0367V54.0585H482.095V48.0367C482.095 42.9817 481.042 38.921 478.908 35.8549C476.802 32.7887 473.891 30.5236 470.178 29.0596C466.464 27.5955 462.251 26.8497 457.484 26.8497C450.499 26.8497 444.984 28.3414 440.965 31.2694C436.946 34.2251 434.923 38.3962 434.923 43.7551C434.923 47.3461 435.782 50.2742 437.528 52.5393C439.274 54.8044 441.796 56.6551 445.067 58.0639C448.337 59.5003 452.356 60.7157 457.123 61.793L463.941 63.5333C470.815 65.0249 476.968 66.9862 482.345 69.4723C487.75 71.9584 491.99 75.2455 495.122 79.3614C498.254 83.4772 499.806 88.8637 499.806 95.4933C499.806 102.123 498.143 107.786 494.817 112.73C491.491 117.675 486.807 121.542 480.765 124.277C474.723 127.011 467.6 128.392 459.34 128.392H459.396Z" fill="#0000A8"/>
<path d="M556.372 128.392C548.113 128.392 540.796 126.901 534.394 123.973C527.991 121.017 522.974 116.708 519.316 110.99C515.657 105.3 513.828 98.228 513.828 89.8029V86.0186H529.211V89.8029C529.211 98.228 531.733 104.526 536.749 108.614C541.766 112.73 548.307 114.774 556.345 114.774C564.382 114.774 570.702 112.979 574.998 109.388C579.294 105.797 581.428 101.267 581.428 95.7972C581.428 92.0957 580.458 89.1124 578.49 86.792C576.522 84.4717 573.751 82.5933 570.147 81.1845C566.544 79.7481 562.276 78.4774 557.287 77.3173L550.469 75.7427C543.595 74.0577 537.609 71.986 532.537 69.4999C527.464 67.0138 523.501 63.7819 520.646 59.7765C517.792 55.7712 516.35 50.5504 516.35 44.1142C516.35 37.678 517.93 32.3191 521.117 27.6508C524.305 23.0101 528.739 19.4467 534.449 16.9606C540.159 14.4745 546.838 13.2315 554.46 13.2315C562.082 13.2315 568.9 14.5574 574.942 17.1816C580.984 19.8058 585.724 23.7007 589.216 28.811C592.708 33.9213 594.455 40.3298 594.455 48.0367V54.0585H579.072V48.0367C579.072 42.9817 578.019 38.921 575.885 35.8549C573.778 32.7887 570.868 30.5236 567.154 29.0596C563.44 27.5955 559.227 26.8497 554.46 26.8497C547.476 26.8497 541.96 28.3414 537.941 31.2694C533.922 34.2251 531.899 38.3962 531.899 43.7551C531.899 47.3461 532.758 50.2742 534.504 52.5393C536.251 54.8044 538.773 56.6551 542.043 58.0639C545.314 59.5003 549.333 60.7157 554.1 61.793L560.918 63.5333C567.792 65.0249 573.945 66.9862 579.321 69.4723C584.726 71.9584 588.967 75.2455 592.099 79.3614C595.231 83.4772 596.783 88.8637 596.783 95.4933C596.783 102.123 595.12 107.786 591.794 112.73C588.468 117.675 583.784 121.542 577.742 124.277C571.7 127.011 564.576 128.392 556.317 128.392H556.372Z" fill="#0000A8"/>
<path d="M623.366 126.155H607.18L639.885 15.4414H667.351L700.057 126.155H683.87L676.082 99.2501H631.154L623.366 126.155ZM652.385 25.0818L634.924 85.0241H672.23L654.768 25.0818H652.385Z" fill="#0000A8"/>
<path d="M123.616 127.37C121.038 129.636 118.128 131.79 114.636 133.972L97.2021 103.836L80.5724 132.564H69.2919L52.6345 103.836L35.1733 134.028C31.9582 132.039 28.9095 129.801 26.0547 127.37L46.925 91.267H58.2886L74.946 119.995L91.5758 91.267H102.69L123.643 127.426L123.616 127.37Z" fill="#0000A8"/>
<path d="M149.888 74.9693C149.722 78.3393 149.223 81.9027 148.364 86.0462H105.93L100.276 76.2952L116.933 47.5671H83.6463L77.9922 37.8161L99.9711 0.165737C103.547 1.46403 106.956 2.9833 110.171 4.72356L91.6563 36.6559H124.943L130.57 46.2412L113.94 74.9693H149.888Z" fill="#0000A8"/>
<path d="M66.1585 47.5671H32.8714L49.5288 76.2952L43.9579 86.0185H1.46896C0.720621 82.3447 0.249446 78.5603 0 74.7759H35.8647L19.235 46.0478L24.8614 36.4626H58.1486L39.6341 4.55782C42.8492 2.81756 46.2583 1.29829 49.8337 0L71.8126 37.8437L66.1585 47.5947V47.5671Z" fill="#0000A8"/>
</g>
<defs>
<clipPath id="clip0_807_278">
<rect width="700" height="134" fill="white"/>
</clipPath>
</defs>
</svg>
