<svg width="1069" height="323" viewBox="0 0 1069 323" fill="none" xmlns="http://www.w3.org/2000/svg">
<path d="M147.113 232.84H159.364L183.886 220.592V232.84L159.364 257.357H134.841L122.591 232.84L110.34 245.087L85.8181 257.335H61.2957L24.5229 245.087L0 196.074V147.061L24.5229 98.0481L61.2957 85.8004H85.8181L110.34 98.0481V36.7653L85.8181 24.5175L147.091 0V232.818L147.113 232.84ZM49.0672 110.296L36.8168 171.557L49.0672 232.818L73.5896 245.066L98.1119 232.818L110.362 208.3V134.77L98.1119 110.252L73.5896 98.0043L49.0672 110.252V110.296Z" fill="white"/>
<path d="M490.319 283.082C490.319 297.152 487.597 307.182 482.174 313.218C476.73 319.255 467.289 322.262 453.831 322.262H260.22C246.345 322.262 236.312 319.145 230.077 312.911C223.842 306.678 220.725 296.734 220.725 283.06V65.8483C220.725 53.1835 224.194 43.438 231.131 36.6117C238.068 29.7854 247.772 26.3613 260.242 26.3613H444.721C458.991 26.3613 470.165 29.6318 478.244 36.1507C486.323 42.6917 490.363 52.5909 490.363 65.8483V283.06L490.319 283.082ZM260.198 37.4458C251.021 37.4458 243.974 39.8822 239.035 44.7769C234.095 49.6716 231.636 56.6954 231.636 65.8703V273.644C231.636 290.589 241.164 299.083 260.22 299.083H435.412C444.589 299.083 451.131 297.13 455.017 293.244C458.903 289.359 460.857 282.819 460.857 273.644V65.8703C460.857 46.9279 452.383 37.4458 435.412 37.4458H260.22H260.198ZM387.97 217.848C391.263 219.648 392.909 222.282 392.909 225.772C388.431 231.852 382.24 236.791 374.358 240.588C366.477 244.385 358.442 246.273 350.275 246.273C333.722 246.273 320.549 241.685 310.78 232.51C301.01 223.336 296.115 211.922 296.115 198.247C296.115 182.093 301.625 168.857 312.646 158.541C323.667 148.225 335.302 143.066 347.575 143.066C361.845 143.066 372.646 147.215 379.957 155.49C387.289 163.765 390.956 173.335 390.956 184.2C390.956 186.899 389.66 188.195 387.07 188.085H325.138C325.138 202.747 328.102 213.524 334.029 220.394C339.957 227.265 346.916 230.711 354.907 230.711C368.98 230.711 380 226.43 387.97 217.848ZM325.731 178.054H358.508C360.791 178.054 361.955 177 361.955 174.915C361.955 167.145 360.725 161.767 358.288 158.826C355.851 155.885 352.273 154.414 347.597 154.414C345.094 154.414 342.635 154.853 340.198 155.753C337.761 156.653 334.995 159.024 331.9 162.865C328.804 166.706 326.762 171.754 325.775 178.054H325.731Z" fill="white"/>
<path d="M539.21 261.023V119.493H570.165V230.403H622.877V119.493H653.525V230.403H706.543V119.493H737.191V233.454H709.616V261.023H650.473V233.454H625.95V261.023H539.232H539.21Z" fill="white"/>
<path d="M919.474 205.578C919.474 215.587 916.466 224.872 910.429 233.454C904.392 242.036 895.764 248.929 884.546 254.131C873.305 259.333 860.331 261.945 845.621 261.945C830.912 261.945 817.476 258.367 805.929 251.233C794.381 244.078 785.446 234.025 779.123 221.053C772.8 208.081 769.617 193.133 769.617 176.166C769.617 159.199 772.778 144.252 779.123 131.28C785.446 118.307 794.293 108.255 805.621 101.099C816.949 93.9436 829.77 90.3878 844.084 90.3878C858.398 90.3878 871.088 93.8997 882.24 100.967C893.371 108.013 902.043 117.978 908.277 130.841C914.512 143.703 917.63 158.826 917.63 176.188V185.078H800.264V234.705H889.134V205.6H919.474V205.578ZM887.619 161.767V117.034H800.594V161.767H887.619Z" fill="white"/>
<path d="M957.938 28.7977C958.245 28.9953 955.632 35.0313 950.122 46.884C944.612 58.627 941.648 64.5533 941.23 64.6411C941.033 64.5314 941.209 63.829 941.757 62.4901C942.306 61.1731 943.206 59.1538 944.436 56.432C945.665 53.7323 947.202 50.374 949.024 46.4011C951.878 40.2772 954.052 35.7776 955.544 32.9242C957.015 30.0708 957.828 28.688 957.916 28.7977H957.938ZM965.38 32.7925C966.763 30.0269 967.553 28.7099 967.751 28.8196C967.949 28.9294 967.422 30.4878 966.148 33.4949C964.875 36.502 962.855 41.0235 960.089 47.0596C954.579 59.0001 951.571 64.8826 951.044 64.685C950.846 64.5753 951.022 63.8729 951.571 62.534C952.142 61.217 953.02 59.1977 954.25 56.476C955.479 53.7762 957.015 50.4179 958.838 46.445C961.801 40.1236 963.975 35.5801 965.358 32.8144L965.38 32.7925ZM987.51 78.1181C986.083 78.3156 982.767 84.0444 977.542 95.2825L975.237 100.331C972.998 103.492 970.386 108.342 967.422 114.883C961.802 126.824 959.65 133.101 960.989 133.716C961.713 134.023 963.536 131.565 966.499 126.363C961.604 137.294 959.76 143.066 960.989 143.681C959.76 149.717 959.76 152.966 960.989 153.492L962.987 152.263C960.441 159.112 959.76 162.843 960.989 163.436L962.219 162.975C960.067 169.208 959.672 172.632 960.989 173.247C959.65 179.173 959.65 182.488 960.989 183.212H961.297C959.65 189.029 959.562 192.299 960.989 193.023C959.452 198.533 959.365 201.803 960.682 202.835C959.957 208.564 959.869 211.768 960.374 212.493C959.145 217.19 959.101 220.35 960.221 221.997C959.101 226.694 958.991 229.855 959.913 231.501C958.794 236.088 958.728 239.315 959.76 241.159C958.75 245.351 958.64 248.512 959.452 250.663C957.718 263.744 958.223 270.878 960.989 272.107C965.577 274.258 970.649 269.407 976.16 257.555C977.279 254.789 978.201 252.287 978.926 250.048L979.233 250.663C977.696 257.401 978.201 261.286 980.77 262.296C982.701 263.218 985.27 261.989 988.431 258.63L990.583 262.296C992.822 263.306 995.742 261.725 999.32 257.555C996.862 265.72 997.279 270.571 1000.55 272.107C1002.59 273.029 1005.14 271.954 1008.21 268.881L1010.36 272.107C1012.3 273.029 1014.86 271.997 1018.03 269.034L1020.33 272.107C1023.91 273.732 1028.23 270.417 1033.35 262.142C1036.51 260.913 1039.67 257.643 1042.86 252.331C1047.05 250.794 1051.02 245.856 1054.8 237.471C1056.42 234.003 1057.65 230.535 1058.46 227.045C1060.51 224.499 1062.39 221.272 1064.13 217.387C1068.94 207.071 1069.99 200.376 1067.36 197.326C1068.67 192.014 1068.63 188.655 1067.2 187.207C1068.74 181.588 1068.63 178.229 1066.89 177.088C1068.63 171.272 1068.59 167.957 1066.74 167.123C1068.28 161.306 1068.28 157.992 1066.74 157.158H1066.28C1067.9 151.341 1068.06 148.071 1066.74 147.347C1066.02 146.93 1064.7 147.764 1062.77 149.805L1056.8 157.158H1056.34C1057.96 151.341 1058.11 148.071 1056.8 147.347H1056.03C1057.87 141.42 1058.11 138.106 1056.8 137.382L1055.57 137.535C1057.61 131.302 1058.03 127.987 1056.8 127.57C1055.87 127.153 1054.29 128.536 1052.05 131.697C1049.59 135.077 1047.31 139.159 1045.16 143.944C1039.54 155.885 1037.85 162.382 1040.11 163.392L1040.88 163.238C1038.84 169.274 1038.57 172.589 1040.11 173.203L1040.73 173.357C1038.88 179.283 1038.68 182.554 1040.11 183.168C1038.57 188.787 1038.53 192.058 1039.96 192.979C1038.53 198.182 1038.42 201.408 1039.65 202.637C1038.42 207.444 1038.38 210.649 1039.5 212.295C1038.88 217.102 1038.68 219.955 1038.88 220.877C1036.33 223.95 1034.07 227.462 1032.14 231.457L1027.09 236.352C1025.16 235.43 1022.59 236.461 1019.43 239.425C1015.65 236.264 1011.92 236.769 1008.26 240.961C1010.91 232.686 1010.61 227.835 1007.33 226.409C1005.29 225.487 1002.75 226.716 999.672 230.074L998.75 227.616C1000.18 221.294 999.76 217.607 997.521 216.575C994.447 215.148 990.583 218.265 985.885 225.926C987.51 222.348 988.651 218.573 989.266 214.578C989.771 210.912 989.529 208.498 988.497 207.378C989.815 202.067 989.727 198.642 988.19 197.106C989.617 191.597 989.573 188.217 988.036 186.987C989.573 181.171 989.464 177.856 987.729 177.022C989.464 171.206 989.42 167.891 987.575 167.057L987.422 166.75C989.573 163.37 991.351 160.121 992.778 156.939C994.513 153.273 995.896 149.695 996.906 146.205L1000.57 143.593C1001.3 144.01 1002.55 142.803 1004.33 139.994C1006.1 137.184 1008.43 132.772 1011.31 126.736C1016.93 114.796 1018.9 108.452 1017.28 107.75C1015.74 107.135 1012.27 112.601 1006.85 124.146L1007.31 117.561C1006.59 117.144 1005.47 118.044 1003.93 120.239C1002.39 122.434 1000.42 125.924 997.96 130.731L997.499 127.504C996.884 127.197 995.654 128.229 993.832 130.577C991.988 132.926 990.166 135.845 988.322 139.313L987.553 137.316L986.017 137.93C988.366 131.609 988.871 128.119 987.553 127.504L985.402 128.734C988.058 121.688 988.783 117.956 987.553 117.561L984.019 120.788C987.4 112.513 988.563 108.167 987.553 107.772C986.829 107.464 985.204 109.462 982.658 113.742C987.049 103.843 988.695 98.5311 987.553 97.8067C986.631 97.3019 984.238 100.814 980.353 108.386L981.121 106.85C986.829 94.9094 988.98 88.6319 987.553 88.0173C986.324 87.5125 982.965 93.1754 977.432 105.028C977.125 105.752 976.664 106.784 976.05 108.167C975.435 109.55 975.084 110.296 974.974 110.384L971.9 115.278C972.91 112.82 973.832 110.691 974.666 108.847C976.401 105.884 978.442 101.911 980.791 96.9068L980.945 96.7532C986.675 84.9005 988.871 78.6888 987.531 78.0742L987.51 78.1181ZM987.51 58.3636C986.17 58.8684 982.965 64.6411 977.85 75.6817L977.542 76.4499L975.852 79.9618C973.503 83.5396 970.803 88.6538 967.729 95.2825C961.999 107.223 959.76 113.457 960.989 113.962C962.109 114.466 965.424 108.76 970.956 96.7971C972.383 93.5266 973.459 91.1341 974.183 89.5976C976.225 86.0199 978.377 81.7836 980.616 76.8889C986.127 64.9484 988.432 58.7587 987.51 58.3636ZM987.51 68.3286C986.17 68.7457 982.921 74.4525 977.696 85.4931L975.545 90.2342C973.503 93.3071 970.846 98.2457 967.575 105.094C962.065 117.034 959.869 123.312 960.989 123.927C962.218 124.431 965.578 118.725 971.11 106.762C975.303 98.4872 978.508 91.9023 980.77 87.0076V86.854C986.478 75.0013 988.739 68.8335 987.51 68.3286ZM987.51 48.5741C986.697 48.2669 983.536 54.0396 978.003 65.8923L977.85 66.1995L976.313 69.7334C974.161 72.8941 971.352 78.162 967.883 85.5151C962.372 97.4555 960.067 103.689 960.989 104.194C961.187 104.304 961.538 104.018 962.065 103.36C962.57 102.701 963.229 101.626 964.063 100.155C964.875 98.6847 965.841 96.8629 966.982 94.7119C968.102 92.5608 969.375 89.9708 970.824 86.8979C972.559 82.925 973.525 80.6642 973.744 80.1594C974.864 78.0083 977.059 73.6185 980.331 66.9897C985.951 55.2468 988.344 49.1229 987.531 48.6181L987.51 48.5741ZM987.51 38.6091C986.785 38.3018 983.668 44.1184 978.157 56.0808L977.85 57.0027C974.996 61.5902 971.724 67.8238 968.036 75.6817C962.416 87.5344 960.067 93.7022 960.989 94.207C961.801 94.5143 964.963 88.7416 970.495 76.8889C972.339 72.9161 973.306 70.8089 973.415 70.6114C975.15 67.6482 977.389 63.1047 980.155 56.9808C985.665 45.0403 988.124 38.9164 987.51 38.6091ZM987.51 28.7977C987.707 28.9075 987.554 29.6098 987.049 30.9487C986.544 32.2657 985.687 34.3289 984.524 37.0726C983.338 39.8383 981.846 43.1526 980.001 47.0377C976.335 54.5005 973.964 59.2416 972.954 61.2829C972.449 62.6218 971.571 64.5094 970.341 66.9458C967.575 72.9819 965.446 77.4157 963.909 80.2691C962.372 83.1226 961.406 84.5054 960.989 84.3956C960.265 84.0883 962.68 77.9206 968.19 65.8703C972.778 56.2784 975.786 50.5935 977.235 48.8595L978.464 46.2475C983.865 34.3948 986.895 28.5782 987.51 28.7757V28.7977ZM977.696 38.6091C977.081 38.4116 974.03 44.2282 968.498 56.0808C962.877 68.0213 960.374 74.1672 960.989 74.4745C961.604 74.7818 964.656 68.9652 970.188 57.0027C975.808 45.0622 978.311 38.9383 977.696 38.6311V38.6091ZM977.696 28.7977C977.894 28.9075 977.74 29.6098 977.235 30.9487C976.73 32.2657 975.852 34.3289 974.622 37.0726C973.393 39.8383 971.856 43.1526 970.034 47.0377C964.524 58.9782 961.516 64.8606 960.989 64.6631C960.791 64.5533 960.945 63.851 961.45 62.5121C961.955 61.1951 962.833 59.1318 964.063 56.3881C965.292 53.6225 966.829 50.3082 968.651 46.4231C974.161 34.4826 977.169 28.6002 977.696 28.7977ZM974.952 118.725L977.564 113.983L974.952 119.954L973.876 121.49L974.952 118.725ZM1026.89 107.838C1025.05 108.035 1021.54 113.61 1016.31 124.541C1010.58 136.482 1008.61 142.869 1010.34 143.681C1011.15 144.098 1012.45 142.891 1014.25 140.081C1016.03 137.272 1018.36 132.86 1021.23 126.824C1026.85 114.883 1028.83 108.54 1027.2 107.838H1026.89ZM1036.84 107.838C1034.91 107.838 1031.33 113.413 1026.1 124.541C1020.59 136.591 1018.64 142.979 1020.29 143.681C1022.02 144.493 1025.64 138.94 1031.18 126.978C1036.69 114.927 1038.64 108.54 1036.99 107.838H1036.84ZM1046.65 117.649C1044.5 117.649 1040.84 123.224 1035.63 134.353C1029.9 146.293 1028.08 152.68 1030.12 153.492L1031.66 152.878C1029.42 159.309 1028.89 162.843 1030.12 163.458C1032.16 164.379 1036.05 158.914 1041.76 147.061C1047.27 135.121 1048.96 128.624 1046.81 127.614L1044.96 128.382C1047.42 121.754 1048.08 118.176 1046.96 117.671H1046.65V117.649Z" fill="white"/>
</svg>
