<svg width="1105" height="323" viewBox="0 0 1105 323" fill="none" xmlns="http://www.w3.org/2000/svg">
<path d="M117.08 257.335V241.707H116.465C104.61 255.184 89.2865 261.923 70.494 261.923C56.3996 261.923 44.0395 258.389 33.4138 251.343C22.7881 244.297 14.5774 234.332 8.73762 221.47C2.89787 208.607 0 193.484 0 176.122C0 158.76 3.11748 144.208 9.35239 131.236C15.5873 118.264 24.0176 108.211 34.6214 101.055C45.2471 93.8997 57.1021 90.3439 70.1646 90.3439C87.7278 90.3439 102.349 97.0824 113.985 110.559H114.599V33.6924H144.325V257.335H117.058H117.08ZM30.0548 117.934V234.969H114.314V117.934H30.0548Z" fill="white"/>
<path d="M215.148 261.023V233.454H187.267V147.369H215.148V119.493H301.559V147.369H329.748V177.703H298.485V150.134H218.2V174.652H273.963V205.6H218.2V230.425H298.485V202.242H329.748V233.191H301.559V261.067H215.148V261.023Z" fill="white"/>
<path d="M367.113 125.902C361.603 137.755 358.639 143.659 358.222 143.659C357.915 143.462 360.527 137.382 366.037 125.441C368.891 119.317 371.065 114.818 372.536 111.964C374.007 109.111 374.819 107.728 374.907 107.838C375.214 108.035 372.602 114.071 367.091 125.924L367.113 125.902ZM384.742 117.649C386.279 118.461 384.237 124.805 378.617 136.635C375.763 142.671 373.458 147.083 371.723 149.893C369.989 152.702 368.76 153.909 368.035 153.492C366.608 152.878 368.694 146.6 374.314 134.66C379.32 123.531 382.744 117.868 384.588 117.649H384.742ZM377.08 126.056C373.919 132.706 371.657 137.316 370.34 139.928C369.023 142.54 368.255 143.791 368.035 143.681C367.728 143.483 370.34 137.403 375.851 125.463C378.814 119.142 380.988 114.576 382.371 111.832C383.754 109.067 384.545 107.75 384.742 107.86C384.94 107.969 384.413 109.528 383.14 112.535C381.866 115.542 379.846 120.063 377.08 126.1V126.056ZM562.766 107.838C563.776 108.255 563.776 111.525 562.766 117.649C563.776 118.066 563.579 120.568 562.152 125.156L562.305 124.848C567.816 112.908 571.241 107.223 572.58 107.838C573.809 108.452 571.658 114.73 566.147 126.67C564.303 130.643 562.701 133.914 561.318 136.482C559.935 139.028 558.793 140.893 557.871 142.079C556.949 143.264 556.29 143.791 555.873 143.681C555.258 143.374 555.829 140.762 557.563 135.867L557.102 136.943C555.258 140.828 553.831 143.637 552.821 145.371C551.899 148.751 550.428 152.68 548.387 157.158C547.267 159.616 545.774 162.426 543.952 165.587C543.228 168.638 541.8 172.632 539.671 177.527C538.441 180.49 536.861 183.344 534.929 186.109L534.468 188.26C537.124 192.036 536.202 198.62 531.702 208.015C529.77 211.702 527.969 214.6 526.345 216.751L525.884 219.67C527.926 224.477 527.113 230.754 523.425 238.503C521.779 242.168 519.693 245.351 517.146 248.007C516.641 251.782 515.61 255.25 514.073 258.433C508.343 270.285 502.525 274.829 496.597 272.063C492.711 270.329 491.592 265.566 493.217 257.818C492.712 255.974 490.56 254.131 486.784 252.309C483.315 250.685 482.393 243.266 484.018 230.096C481.164 232.642 478.749 233.476 476.817 232.554C473.853 231.128 473.195 226.979 474.819 220.153C474.204 217.804 474.358 214.687 475.28 210.802C474.468 208.564 474.556 205.447 475.587 201.452L475.127 197.15C471.548 201.957 468.848 203.888 467.003 202.966C464.962 202.045 464.698 198.533 466.235 192.387C465.203 190.85 465.313 187.69 466.542 182.883C465.423 181.873 465.576 178.646 467.003 173.225L466.542 173.071L464.545 177.505C467.508 180.468 466.542 187.207 461.625 197.721C459.276 202.418 457.388 206.039 455.961 208.607C458.419 213.107 457.585 219.648 453.502 228.208C451.767 231.786 449.836 234.793 447.684 237.251L447.223 240.171C448.847 245.065 447.991 251.145 444.611 258.389C438.881 270.242 433.129 274.785 427.289 272.019C424.325 270.593 423.096 267.059 423.622 261.44C421.383 262.757 419.32 263.02 417.497 262.208C413.831 260.364 412.799 253.121 414.424 240.456C411.658 242.607 409.374 243.266 407.53 242.454C404.457 240.917 403.908 233.52 405.84 220.241C405.532 219.429 405.642 216.356 406.147 211.044L405.686 207.817C402.305 212.01 399.649 213.634 397.717 212.712C395.565 211.702 395.258 208.059 396.795 201.825C395.983 200.201 396.136 197.128 397.256 192.628C396.136 191.202 396.224 188.129 397.563 183.431C393.063 190.675 389.792 193.857 387.75 192.936C386.103 192.211 386.103 188.963 387.75 183.124C386.433 182.4 386.63 179.151 388.365 173.313L387.75 173.159C386.323 172.654 386.323 169.384 387.75 163.348C387.75 163.238 387.596 162.58 387.289 161.35C385.357 165.126 383.513 168.089 381.778 170.24C379.934 172.479 378.661 173.466 377.958 173.159C376.531 172.654 376.531 169.384 377.958 163.348C376.619 162.733 377.387 158.76 380.263 151.407L377.958 153.405C376.531 152.79 378.573 146.513 384.083 134.572C389.594 122.412 393.129 116.749 394.665 117.561C395.675 118.176 394.555 122.412 391.284 130.27L395.126 125.99L395.434 125.222C400.856 113.369 403.864 107.552 404.479 107.75C404.676 107.86 404.566 108.562 404.105 109.901C403.644 111.24 402.81 113.281 401.581 116.025C400.351 118.79 398.814 122.105 396.992 125.99L394.226 133.65C399.539 122.302 402.964 116.947 404.501 117.561C405.62 118.176 404.654 122.258 401.581 129.809L404.193 127.504L405.269 125.2C410.779 113.347 413.853 107.53 414.468 107.728C415.083 108.035 412.58 114.159 406.959 126.121L404.962 130.248C404.764 131.784 404.04 134.331 402.81 137.908L404.501 137.294C405.928 137.908 405.928 141.223 404.501 147.259L405.269 148.334C406.894 145.064 408.694 142.298 410.626 140.059C412.47 137.908 413.743 137.008 414.468 137.294C415.785 137.908 415.434 141.223 413.392 147.259H414.468C415.785 147.983 415.631 151.232 414.007 157.07H414.468C416.092 157.882 416.202 160.911 414.775 166.113C418.968 158.958 422.13 155.951 424.281 157.07C426.125 157.882 426.213 161.263 424.589 167.189C426.213 168.199 426.323 171.579 424.896 177.308C426.63 178.932 426.828 182.422 425.51 187.734L426.433 190.653C429.594 187.185 432.206 185.912 434.248 186.812C436.707 187.843 437.212 191.619 435.785 198.138L436.553 200.289C437.475 197.018 438.485 194.253 439.627 192.014C441.471 187.931 443.71 184.353 446.367 181.302C445.95 177.637 447.64 171.601 451.416 163.238C452.953 159.66 454.797 156.346 456.927 153.273C455.5 152.044 457.497 145.766 462.898 134.44C465.752 128.316 468.079 123.883 469.858 121.117C471.636 118.351 472.953 117.188 473.765 117.583C474.775 118 474.424 121.358 472.689 127.702L473.458 126.012L473.919 125.09C479.649 113.237 482.898 107.464 483.732 107.772C484.654 108.277 482.305 114.466 476.685 126.297L475.456 128.755C477.607 124.673 479.363 121.71 480.747 119.866C482.13 118.022 483.118 117.254 483.732 117.561C484.742 117.978 484.347 121.38 482.503 127.834L483.732 125.068V124.914C485.159 121.951 486.411 119.383 487.486 117.188C488.562 114.993 489.506 113.171 490.318 111.745C491.131 110.318 491.789 109.264 492.316 108.606C492.821 107.947 493.238 107.662 493.546 107.772C494.555 108.189 492.273 114.357 486.652 126.297C486.345 127.021 485.884 128.009 485.269 129.282C484.654 130.555 484.193 131.499 483.886 132.114C482.854 135.384 482.305 137.228 482.196 137.623L483.732 137.316C484.962 137.93 484.655 141.201 482.81 147.127L483.732 147.281C485.159 148.093 485.049 151.363 483.425 157.092H483.732L489.397 149.585C491.438 147.654 492.821 146.886 493.524 147.281C495.06 148.093 494.995 151.363 493.37 157.092H493.524C495.368 158.014 495.522 161.438 493.985 167.364L495.214 172.567C498.683 167.979 501.449 166.135 503.491 167.057C505.533 167.979 505.796 171.491 504.259 177.637C505.796 179.371 505.95 182.839 504.72 188.063C506.147 190.104 506.301 193.572 505.181 198.489L505.642 199.564C508.694 196.799 511.262 195.899 513.304 196.799L514.687 197.721C514.885 193.221 516.312 188.063 518.968 182.246C520.813 178.471 523.008 174.937 525.555 171.689C525.05 168.111 526.784 162.097 530.758 153.624C532.602 149.849 534.49 146.534 536.422 143.659H536.114C534.885 143.044 537.08 136.767 542.7 124.826C548.211 113.084 551.592 107.421 552.821 107.816C553.831 108.233 552.207 113.281 547.926 122.983C548.935 121.358 550.582 119.559 552.821 117.627C553.941 118.242 553.282 121.863 550.824 128.514L552.514 124.826C557.717 113.808 561.098 108.123 562.635 107.816H562.788L562.766 107.838ZM394.248 109.989C393.743 111.328 392.865 113.369 391.636 116.113C390.406 118.878 388.869 122.193 387.047 126.078C381.537 138.018 378.529 143.901 378.002 143.703C377.805 143.615 378.332 142.035 379.605 139.028C380.878 136.021 382.898 131.499 385.664 125.463C391.175 113.523 394.182 107.64 394.709 107.838C394.907 107.947 394.753 108.65 394.248 109.989ZM416.927 126.209C414.16 132.245 412.031 136.679 410.494 139.533C408.957 142.386 407.991 143.769 407.574 143.659C406.96 143.352 409.418 137.228 414.929 125.287C420.439 113.347 423.557 107.53 424.281 107.816C424.896 108.123 422.437 114.247 416.927 126.209ZM446.63 126.209C443.864 132.245 441.735 136.679 440.198 139.533C438.661 142.386 437.695 143.769 437.278 143.659C436.465 143.352 438.858 137.228 444.479 125.287C449.989 113.435 453.151 107.618 453.985 107.816C454.709 108.123 452.25 114.247 446.63 126.209ZM463.952 117.649C465.686 118.461 463.688 124.848 457.98 136.789C455.126 142.825 452.799 147.215 451.021 149.959C449.243 152.724 447.926 153.888 447.113 153.492C445.467 152.768 447.464 146.447 453.085 134.506C458.288 123.488 461.822 117.868 463.666 117.649H463.974H463.952ZM456.751 126.209C451.131 138.15 447.926 143.966 447.091 143.681C446.367 143.264 448.782 137.096 454.292 125.156C459.802 113.303 462.964 107.53 463.798 107.838C464.611 108.342 462.261 114.488 456.751 126.231V126.209ZM473.765 107.838C474.687 108.342 472.338 114.532 466.718 126.363C460.988 138.216 457.783 143.988 457.058 143.681C456.136 143.176 458.485 136.986 464.106 125.156C469.221 114.115 472.382 108.364 473.612 107.838H473.765ZM496.575 126.363C495.148 129.436 493.897 132.026 492.821 134.177C491.745 136.328 490.801 138.128 489.989 139.62C489.177 141.113 488.518 142.167 487.991 142.847C487.487 143.505 487.069 143.791 486.762 143.681C485.73 143.264 487.991 137.052 493.502 125.002C498.705 113.961 501.976 108.255 503.315 107.838C504.545 108.342 502.283 114.532 496.575 126.363ZM533.041 107.838C534.27 108.342 532.009 114.576 526.301 126.517C520.791 138.457 517.475 144.186 516.334 143.681C515.104 143.176 517.344 136.943 523.074 125.002C528.277 113.874 531.548 108.145 532.887 107.838H533.041ZM536.268 126.517C530.845 138.457 527.53 144.186 526.301 143.681C525.181 143.176 527.377 136.943 532.887 125.002C538.09 113.764 541.405 108.057 542.854 107.838C544.172 108.452 541.976 114.686 536.268 126.517ZM582.525 107.838C583.842 108.452 581.757 114.73 576.246 126.67C570.736 138.611 567.267 144.296 565.818 143.681C564.479 143.066 566.586 136.789 572.097 124.848C577.3 113.83 580.725 108.145 582.371 107.838H582.525Z" fill="white"/>
<path d="M889.726 283.06C889.726 297.13 887.004 307.16 881.581 313.197C876.159 319.233 866.697 322.24 853.239 322.24H659.627C645.753 322.24 635.72 319.123 629.485 312.889C623.25 306.656 620.132 296.713 620.132 283.038V65.8703C620.132 53.2054 623.601 43.4599 630.538 36.6336C637.476 29.8073 647.18 26.3832 659.649 26.3832H844.128C858.398 26.3832 869.55 29.6537 877.651 36.1727C885.73 42.7136 889.77 52.6128 889.77 65.8703V283.082L889.726 283.06ZM659.605 37.4457C650.429 37.4457 643.381 39.8821 638.442 44.7769C633.502 49.6716 631.043 56.6954 631.043 65.8703V273.644C631.043 290.589 640.571 299.083 659.627 299.083H834.819C843.996 299.083 850.539 297.13 854.424 293.245C858.31 289.359 860.264 282.818 860.264 273.644V65.8703C860.264 46.9279 851.79 37.4457 834.819 37.4457H659.627H659.605ZM787.377 217.848C790.67 219.648 792.317 222.282 792.317 225.772C787.838 231.852 781.647 236.791 773.766 240.588C765.884 244.385 757.849 246.273 749.682 246.273C733.129 246.273 719.956 241.685 710.187 232.51C700.417 223.336 695.522 211.922 695.522 198.247C695.522 182.093 701.032 168.857 712.053 158.541C723.074 148.225 734.709 143.066 746.982 143.066C761.252 143.066 772.053 147.215 779.364 155.49C786.696 163.765 790.363 173.335 790.363 184.2C790.363 186.899 789.067 188.194 786.477 188.085H724.545C724.545 202.747 727.509 213.524 733.436 220.394C739.364 227.264 746.323 230.711 754.314 230.711C768.387 230.711 779.408 226.43 787.377 217.848ZM725.138 178.054H757.915C760.198 178.054 761.362 177 761.362 174.915C761.362 167.145 760.132 161.767 757.695 158.826C755.258 155.885 751.68 154.414 747.004 154.414C744.501 154.414 742.042 154.853 739.605 155.753C737.168 156.653 734.402 159.024 731.307 162.865C728.211 166.706 726.169 171.776 725.182 178.054H725.138Z" fill="white"/>
<path d="M932.492 24.5175L993.766 0V98.0262L1018.29 85.7784H1042.81L1079.58 98.0262L1104.11 147.039V196.052L1079.58 245.066L1042.81 257.313H1018.29L993.766 245.066L981.515 232.818L969.265 257.335L932.492 232.818L957.015 220.57V36.7653L932.492 24.5175ZM1006.04 110.296L993.788 134.813V208.344L1006.04 232.862L1030.56 245.109L1055.08 232.862L1067.33 171.601L1055.08 110.318L1030.56 98.0701L1006.04 110.318V110.296Z" fill="white"/>
</svg>
