<svg width="525" height="169" viewBox="0 0 525 169" fill="none" xmlns="http://www.w3.org/2000/svg">
<rect x="31" y="22" width="493" height="146" fill="#FF003D" stroke="#00FFCE" stroke-width="2"/>
<rect x="1" y="1" width="494" height="146" fill="#FF003D" stroke="#00FFCE" stroke-width="2"/>
<path d="M61 103V45H94.7562V53.2084H103.082V62.2286H93.8512V54.1104H70.1404V69.535H86.6113V78.465H70.1404V103H61Z" fill="#00FFCE"/>
<path d="M110.403 103V53.2084H118.639V45H144.16V53.2084H152.485V78.465H144.16V86.6734H140.178V93.9798H148.322V103H139.273V94.8818H130.947V86.6734H119.544V103H110.403ZM119.544 77.563H143.255V54.1104H119.544V77.563Z" fill="#00FFCE"/>
<path d="M171.666 103V94.8818H163.43V53.2084H171.666V45H197.186V53.2084H205.512V62.2286H196.281V54.1104H172.571V69.535H189.041V78.465H172.571V93.9798H196.281V85.7714H205.512V94.8818H197.186V103H171.666Z" fill="#00FFCE"/>
<path d="M224.692 103V94.8818H216.457V53.2084H224.692V45H250.213V53.2084H258.539V62.2286H249.308V54.1104H225.597V69.535H242.068V78.465H225.597V93.9798H249.308V85.7714H258.539V94.8818H250.213V103H224.692Z" fill="#00FFCE"/>
<path d="M269.484 103V45H295.095V53.2084H303.24V61.3266H311.566V86.6734H303.24V94.8818H295.095V103H269.484ZM278.624 93.9798H294.19V85.7714H302.335V62.2286H294.19V54.1104H278.624V93.9798Z" fill="#00FFCE"/>
<path d="M330.746 103V94.8818H322.511V53.2084H330.746V45H356.267V53.2084H364.593V94.8818H356.267V103H330.746ZM331.651 93.9798H355.362V54.1104H331.651V93.9798Z" fill="#00FFCE"/>
<path d="M375.538 103V53.2084H383.773V45H392.823V53.2084H401.149V69.535H408.389V53.2084H416.715V45H425.855V53.2084H434V103H424.95V54.1104H417.62V70.3468H409.294V94.8818H400.244V70.3468H391.918V54.1104H384.678V103H375.538Z" fill="#00FFCE"/>
</svg>
