<svg width="302" height="90" viewBox="0 0 302 90" fill="none" xmlns="http://www.w3.org/2000/svg">
<path d="M0 0H302V90H0V0Z" fill="#FF7300"/>
<path d="M211.646 56.4476C210.366 56.4476 209.171 56.1276 208.062 55.4876C206.953 54.8476 206.067 53.9303 205.406 52.7356C204.745 51.5196 204.414 50.0583 204.414 48.3516V47.8716C204.414 46.1649 204.745 44.7036 205.406 43.4876C206.067 42.2716 206.942 41.3436 208.03 40.7036C209.139 40.0636 210.345 39.7436 211.646 39.7436C212.649 39.7436 213.491 39.8716 214.174 40.1276C214.878 40.3623 215.443 40.6716 215.87 41.0556C216.297 41.4396 216.627 41.8343 216.862 42.2396H217.374V33.5996H220.894V55.9996H217.438V53.8556H216.926C216.542 54.5169 215.945 55.1143 215.134 55.6476C214.323 56.1809 213.161 56.4476 211.646 56.4476ZM212.67 53.3756C214.035 53.3756 215.166 52.9383 216.062 52.0636C216.979 51.1676 217.438 49.8983 217.438 48.2556V47.9356C217.438 46.2929 216.99 45.0343 216.094 44.1596C215.198 43.2636 214.057 42.8156 212.67 42.8156C211.305 42.8156 210.174 43.2636 209.278 44.1596C208.382 45.0343 207.934 46.2929 207.934 47.9356V48.2556C207.934 49.8983 208.382 51.1676 209.278 52.0636C210.174 52.9383 211.305 53.3756 212.67 53.3756Z" fill="#5218EF"/>
<path d="M196.795 55.9999H193.307V40.1919H196.731V42.0479H197.275C197.509 41.3866 197.904 40.9066 198.459 40.6079C199.013 40.2879 199.696 40.1279 200.507 40.1279H202.395V43.2639H200.411C199.344 43.2639 198.469 43.5519 197.787 44.1279C197.125 44.7039 196.795 45.5893 196.795 46.7839V55.9999Z" fill="#5218EF"/>
<path d="M181.075 56.4481C179.496 56.4481 178.088 56.1281 176.851 55.4881C175.613 54.8268 174.643 53.8881 173.939 52.6721C173.235 51.4561 172.883 50.0161 172.883 48.3521V47.8721C172.883 46.1868 173.235 44.7361 173.939 43.5201C174.643 42.3041 175.613 41.3761 176.851 40.7361C178.088 40.0748 179.496 39.7441 181.075 39.7441C182.653 39.7441 184.061 40.0748 185.299 40.7361C186.536 41.3761 187.507 42.3041 188.211 43.5201C188.936 44.7361 189.299 46.1868 189.299 47.8721V48.3521C189.299 50.0161 188.936 51.4561 188.211 52.6721C187.507 53.8881 186.536 54.8268 185.299 55.4881C184.061 56.1281 182.653 56.4481 181.075 56.4481ZM181.075 53.3121C182.461 53.3121 183.592 52.8748 184.467 52.0001C185.341 51.1041 185.779 49.8561 185.779 48.2561V47.9361C185.779 46.3361 185.341 45.0988 184.467 44.2241C183.613 43.3281 182.483 42.8801 181.075 42.8801C179.688 42.8801 178.557 43.3281 177.683 44.2241C176.808 45.0988 176.371 46.3361 176.371 47.9361V48.2561C176.371 49.8561 176.808 51.1041 177.683 52.0001C178.557 52.8748 179.688 53.3121 181.075 53.3121Z" fill="#5218EF"/>
<path d="M162.136 56.4481C160.6 56.4481 159.213 56.1281 157.976 55.4881C156.76 54.8481 155.789 53.9201 155.064 52.7041C154.36 51.4881 154.008 50.0268 154.008 48.3201V47.9041C154.008 46.1761 154.36 44.7148 155.064 43.5201C155.789 42.3041 156.76 41.3761 157.976 40.7361C159.213 40.0748 160.6 39.7441 162.136 39.7441C163.65 39.7441 164.941 40.0215 166.008 40.5761C167.074 41.1095 167.928 41.8455 168.568 42.7841C169.229 43.7015 169.666 44.7255 169.88 45.8561L166.456 46.5601C166.37 45.8775 166.157 45.2588 165.816 44.7041C165.496 44.1495 165.037 43.7121 164.44 43.3921C163.842 43.0508 163.096 42.8801 162.2 42.8801C161.304 42.8801 160.504 43.0828 159.8 43.4881C159.096 43.8721 158.53 44.4481 158.104 45.2161C157.698 45.9628 157.496 46.8695 157.496 47.9361V48.2561C157.496 49.3228 157.698 50.2401 158.104 51.0081C158.53 51.7548 159.096 52.3308 159.8 52.7361C160.504 53.1201 161.304 53.3121 162.2 53.3121C163.544 53.3121 164.557 52.9708 165.24 52.2881C165.944 51.5841 166.392 50.6881 166.584 49.6001L169.976 50.4001C169.72 51.5095 169.261 52.5228 168.6 53.4401C167.938 54.3575 167.074 55.0935 166.008 55.6481C164.941 56.1815 163.65 56.4481 162.136 56.4481Z" fill="#5218EF"/>
<path d="M144.426 56.4481C142.421 56.4481 140.746 56.0001 139.402 55.1041C138.079 54.2081 137.279 52.8748 137.002 51.1041L140.266 50.3041C140.415 51.1361 140.682 51.7975 141.066 52.2881C141.471 52.7788 141.962 53.1308 142.538 53.3441C143.135 53.5361 143.765 53.6321 144.426 53.6321C145.45 53.6321 146.229 53.4401 146.762 53.0561C147.295 52.6721 147.562 52.1815 147.562 51.5841C147.562 50.9868 147.306 50.5495 146.794 50.2721C146.303 49.9735 145.557 49.7281 144.554 49.5361L143.498 49.3761C142.431 49.1628 141.45 48.8748 140.554 48.5121C139.679 48.1495 138.975 47.6481 138.442 47.0081C137.909 46.3468 137.642 45.5148 137.642 44.5121C137.642 42.9975 138.207 41.8241 139.338 40.9921C140.469 40.1601 141.951 39.7441 143.786 39.7441C145.557 39.7441 147.018 40.1495 148.17 40.9601C149.322 41.7495 150.069 42.8055 150.41 44.1281L147.146 45.0881C146.975 44.1708 146.591 43.5201 145.994 43.1361C145.397 42.7521 144.661 42.5601 143.786 42.5601C142.911 42.5601 142.229 42.7201 141.738 43.0401C141.269 43.3601 141.034 43.7975 141.034 44.3521C141.034 44.9495 141.269 45.3975 141.738 45.6961C142.229 45.9735 142.89 46.1868 143.722 46.3361L144.746 46.4961C145.919 46.7095 146.975 46.9868 147.914 47.3281C148.853 47.6695 149.599 48.1601 150.154 48.8001C150.709 49.4401 150.986 50.3041 150.986 51.3921C150.986 52.9921 150.389 54.2401 149.194 55.1361C148.021 56.0108 146.431 56.4481 144.426 56.4481Z" fill="#5218EF"/>
<path d="M133.17 55.9997H129.682V40.1917H133.17V55.9997ZM131.41 38.1437C130.749 38.1437 130.194 37.9303 129.746 37.5037C129.298 37.0557 129.074 36.4903 129.074 35.8077C129.074 35.1037 129.298 34.5383 129.746 34.1117C130.194 33.685 130.749 33.4717 131.41 33.4717C132.093 33.4717 132.658 33.685 133.106 34.1117C133.554 34.5383 133.778 35.1037 133.778 35.8077C133.778 36.4903 133.554 37.0557 133.106 37.5037C132.658 37.9303 132.093 38.1437 131.41 38.1437Z" fill="#5218EF"/>
<path d="M116.528 55.9996H107.504V52.7356H110.512V36.8316H107.504V33.5996H116.528C119.515 33.5996 121.797 34.3569 123.376 35.8716C124.976 37.3863 125.776 39.6583 125.776 42.6876V46.9116C125.776 49.9409 124.976 52.2129 123.376 53.7276C121.797 55.2423 119.515 55.9996 116.528 55.9996ZM114.192 36.9596V52.6396H116.592C118.448 52.6396 119.824 52.1703 120.72 51.2316C121.637 50.2716 122.096 48.8636 122.096 47.0076V42.5916C122.096 40.7143 121.637 39.3063 120.72 38.3676C119.824 37.4289 118.448 36.9596 116.592 36.9596H114.192Z" fill="#5218EF"/>
<path d="M85.334 43.6663V39.6663H84.0006V36.9997H82.6673V35.6663H80.0006V34.333H76.0006V35.6663H68.0007V34.333H64.0007V35.6663H61.334V36.9997H60.0007V39.6663H58.6673V43.6663H57.334V52.9997H60.0007V54.333H62.6673V55.6663H65.334V52.9997H64.0007V51.6663H66.6673V52.9997H68.0007V54.333H76.0006V52.9997H77.334V51.6663H80.0006V52.9997H78.6673V55.6663H81.334V54.333H84.0006V52.9997H86.6673V43.6663H85.334ZM68.0007 48.9997H65.334V47.6663H64.0007V44.9997H65.334V43.6663H68.0007V44.9997H69.334V47.6663H68.0007V48.9997ZM80.0006 47.6663H78.6673V48.9997H76.0006V47.6663H74.6673V44.9997H76.0006V43.6663H78.6673V44.9997H80.0006V47.6663Z" fill="#5218EF"/>
</svg>
