<svg width="525" height="169" viewBox="0 0 525 169" fill="none" xmlns="http://www.w3.org/2000/svg">
<rect x="30" y="21" width="495" height="148" rx="12" fill="#5218EF"/>
<rect x="1" y="1" width="494" height="146" rx="11" fill="#FF7300" stroke="#5218EF" stroke-width="2"/>
<path d="M62.1107 97C57.6085 97 53.7066 96.1438 50.405 94.4314C47.1034 92.6854 44.5355 90.3518 42.7013 87.4307C40.9004 84.5095 40 81.3029 40 77.8109V47.1891C40 43.6635 40.9004 40.4569 42.7013 37.5693C44.5355 34.6482 47.1034 32.3314 50.405 30.619C53.7066 28.873 57.6085 28 62.1107 28H77.5181C82.0202 28 85.9221 28.873 89.2237 30.619C92.5587 32.3314 95.1266 34.6482 96.9274 37.5693C98.7283 40.4569 99.6287 43.6635 99.6287 47.1891V77.8109C99.6287 81.3029 98.7283 84.5095 96.9274 87.4307C95.1266 90.3518 92.5587 92.6854 89.2237 94.4314C85.9221 96.1438 82.0202 97 77.5181 97H62.1107ZM60.0597 74.1847H65.4122V55.1467H82.1203V49.8584H65.4122V37.8715H84.9717V32.5328H60.0597V74.1847Z" fill="#5218EF"/>
<path d="M121.339 97C116.837 97 112.935 96.1438 109.634 94.4314C106.332 92.6854 103.764 90.3518 101.93 87.4307C100.129 84.5095 99.2285 81.3029 99.2285 77.8109V47.1891C99.2285 43.6635 100.129 40.4569 101.93 37.5693C103.764 34.6482 106.332 32.3314 109.634 30.619C112.935 28.873 116.837 28 121.339 28H136.747C141.249 28 145.151 28.873 148.452 30.619C151.787 32.3314 154.355 34.6482 156.156 37.5693C157.957 40.4569 158.857 43.6635 158.857 47.1891V77.8109C158.857 81.3029 157.957 84.5095 156.156 87.4307C154.355 90.3518 151.787 92.6854 148.452 94.4314C145.151 96.1438 141.249 97 136.747 97H121.339ZM116.637 74.1847H121.99V57.4131H134.996L138.547 59.0248L139.298 61.7445V74.1847H144.6V61.1905L142.85 56.5569L137.147 54.492L142.649 51.8226L144.2 47.2898V41.6993L143.6 37.4686L140.298 33.238L135.296 32.5328H116.637V74.1847ZM121.99 52.0241V37.8715H134.996L138.547 39.4328L138.898 42.354V47.6927L138.147 50.4628L134.996 52.0241H121.99Z" fill="#5218EF"/>
<path d="M180.568 97C176.066 97 172.164 96.1438 168.862 94.4314C165.561 92.6854 162.993 90.3518 161.158 87.4307C159.358 84.5095 158.457 81.3029 158.457 77.8109V47.1891C158.457 43.6635 159.358 40.4569 161.158 37.5693C162.993 34.6482 165.561 32.3314 168.862 30.619C172.164 28.873 176.066 28 180.568 28H195.975C200.477 28 204.379 28.873 207.681 30.619C211.016 32.3314 213.584 34.6482 215.385 37.5693C217.185 40.4569 218.086 43.6635 218.086 47.1891V77.8109C218.086 81.3029 217.185 84.5095 215.385 87.4307C213.584 90.3518 211.016 92.6854 207.681 94.4314C204.379 96.1438 200.477 97 195.975 97H180.568ZM178.767 74.1847H203.929V68.846H183.969V56.0533H200.677V50.765H183.969V37.8715H203.229V32.5328H178.767V74.1847Z" fill="#5218EF"/>
<path d="M239.796 97C235.294 97 231.392 96.1438 228.091 94.4314C224.789 92.6854 222.221 90.3518 220.387 87.4307C218.586 84.5095 217.686 81.3029 217.686 77.8109V47.1891C217.686 43.6635 218.586 40.4569 220.387 37.5693C222.221 34.6482 224.789 32.3314 228.091 30.619C231.392 28.873 235.294 28 239.796 28H255.204C259.706 28 263.608 28.873 266.909 30.619C270.244 32.3314 272.812 34.6482 274.613 37.5693C276.414 40.4569 277.314 43.6635 277.314 47.1891V77.8109C277.314 81.3029 276.414 84.5095 274.613 87.4307C272.812 90.3518 270.244 92.6854 266.909 94.4314C263.608 96.1438 259.706 97 255.204 97H239.796ZM237.995 74.1847H263.158V68.846H243.198V56.0533H259.906V50.765H243.198V37.8715H262.457V32.5328H237.995V74.1847Z" fill="#5218EF"/>
<path d="M299.025 97C294.523 97 290.621 96.1438 287.319 94.4314C284.018 92.6854 281.45 90.3518 279.615 87.4307C277.815 84.5095 276.914 81.3029 276.914 77.8109V47.1891C276.914 43.6635 277.815 40.4569 279.615 37.5693C281.45 34.6482 284.018 32.3314 287.319 30.619C290.621 28.873 294.523 28 299.025 28H314.432C318.934 28 322.836 28.873 326.138 30.619C329.473 32.3314 332.041 34.6482 333.842 37.5693C335.642 40.4569 336.543 43.6635 336.543 47.1891V77.8109C336.543 81.3029 335.642 84.5095 333.842 87.4307C332.041 90.3518 329.473 92.6854 326.138 94.4314C322.836 96.1438 318.934 97 314.432 97H299.025ZM293.522 74.1847H315.833L320.985 73.5803L324.137 70.4073L324.837 66.0759V40.692L324.137 36.4613L320.985 33.238L315.833 32.5328H293.522V74.1847ZM298.725 68.846V37.8715H315.533L319.034 38.4255L319.535 41.3971V65.5219L318.834 68.3423L315.533 68.846H298.725Z" fill="#5218EF"/>
<path d="M358.253 97C353.751 97 349.849 96.1438 346.548 94.4314C343.246 92.6854 340.678 90.3518 338.844 87.4307C337.043 84.5095 336.143 81.3029 336.143 77.8109V47.1891C336.143 43.6635 337.043 40.4569 338.844 37.5693C340.678 34.6482 343.246 32.3314 346.548 30.619C349.849 28.873 353.751 28 358.253 28H373.661C378.163 28 382.065 28.873 385.366 30.619C388.701 32.3314 391.269 34.6482 393.07 37.5693C394.871 40.4569 395.771 43.6635 395.771 47.1891V77.8109C395.771 81.3029 394.871 84.5095 393.07 87.4307C391.269 90.3518 388.701 92.6854 385.366 94.4314C382.065 96.1438 378.163 97 373.661 97H358.253ZM361.555 74.1847H374.961L380.114 73.5803L383.265 70.4073L383.966 66.0759V40.692L383.265 36.4613L380.114 33.238L374.961 32.5328H361.555L356.453 33.238L353.251 36.4613L352.651 40.692V66.0759L353.251 70.4073L356.553 73.5803L361.555 74.1847ZM361.855 68.846L358.604 68.3423L357.853 65.3204V41.1956L358.353 38.4255L361.855 37.8715H374.661L378.163 38.4255L378.663 41.3971V65.5219L377.963 68.3423L374.661 68.846H361.855Z" fill="#5218EF"/>
<path d="M417.482 97C412.98 97 409.078 96.1438 405.776 94.4314C402.475 92.6854 399.907 90.3518 398.073 87.4307C396.272 84.5095 395.371 81.3029 395.371 77.8109V47.1891C395.371 43.6635 396.272 40.4569 398.073 37.5693C399.907 34.6482 402.475 32.3314 405.776 30.619C409.078 28.873 412.98 28 417.482 28H432.889C437.392 28 441.293 28.873 444.595 30.619C447.93 32.3314 450.498 34.6482 452.299 37.5693C454.1 40.4569 455 43.6635 455 47.1891V77.8109C455 81.3029 454.1 84.5095 452.299 87.4307C450.498 90.3518 447.93 92.6854 444.595 94.4314C441.293 96.1438 437.392 97 432.889 97H417.482ZM408.378 74.1847H413.73V38.3248L416.181 37.8715H421.884L424.035 38.3248V59.6796H429.388V38.3248L431.539 37.8715H437.291L439.743 38.3248V74.1847H445.045V36.4613L441.894 33.238L437.692 32.5328H431.138L428.437 33.3387L426.736 36.8139L425.086 33.3387L422.334 32.5328H415.781L411.579 33.238L408.378 36.4613V74.1847Z" fill="#5218EF"/>
</svg>
