<svg width="495" height="147" viewBox="0 0 495 147" fill="none" xmlns="http://www.w3.org/2000/svg">
<rect width="495" height="147" fill="#FF36AE"/>
<path d="M56.3707 78.5V113.331H49V43.669H91.3568V50.5371H56.3707V71.6319H89.6861V78.5H56.3707Z" fill="#FFE1F4"/>
<path d="M153.429 113.331H143.994L126.501 81.7378H113.136V113.331H105.765V43.669H132.103C138.327 43.669 143.11 45.3369 146.451 48.6729C149.858 51.9434 151.561 56.6856 151.561 62.8996C151.561 68.2633 150.186 72.5476 147.434 75.7528C144.748 78.9579 140.882 80.8875 135.837 81.5416L153.429 113.331ZM113.136 50.5371V74.8697H132.103C136.099 74.8697 139.146 73.8559 141.242 71.8281C143.339 69.735 144.322 66.7588 144.191 62.8996C144.191 58.9096 143.142 55.868 141.046 53.7749C138.949 51.6163 135.968 50.5371 132.103 50.5371H113.136Z" fill="#FFE1F4"/>
<path d="M166.068 113.331V43.669H209.211V50.5371H173.439V73.0055H207.54V80.3642H173.439V106.463H209.211V113.331H166.068Z" fill="#FFE1F4"/>
<path d="M224.995 113.331V43.669H268.138V50.5371H232.366V73.0055H266.467V80.3642H232.366V106.463H268.138V113.331H224.995Z" fill="#FFE1F4"/>
<path d="M301.612 113.331H283.136V43.669H301.612C311.701 43.669 319.039 46.4489 323.625 52.0088C328.277 57.5687 330.603 66.3991 330.603 78.5C330.603 90.6009 328.277 99.4313 323.625 104.991C319.039 110.551 311.701 113.331 301.612 113.331ZM290.506 51.0276V105.972H301.612C309.146 105.972 314.617 103.781 318.024 99.3986C321.496 95.0161 323.232 88.0499 323.232 78.5C323.232 68.9501 321.496 61.9839 318.024 57.6014C314.617 53.2189 309.146 51.0276 301.612 51.0276H290.506Z" fill="#FFE1F4"/>
<path d="M336.952 78.5C336.952 66.7915 339.147 57.7976 343.537 51.5182C347.992 45.2388 354.314 42.0664 362.504 42.001C370.694 41.9356 376.983 45.0753 381.373 51.4201C385.763 57.6995 387.957 66.7261 387.957 78.5C387.957 90.2739 385.763 99.3332 381.373 105.678C376.983 111.957 370.694 115.064 362.504 114.999C354.314 114.934 347.992 111.761 343.537 105.482C339.147 99.137 336.952 90.143 336.952 78.5ZM380.587 78.5C380.587 68.9501 379.014 61.6241 375.87 56.5221C372.79 51.4201 368.335 48.8691 362.504 48.8691C356.673 48.8691 352.185 51.4201 349.04 56.5221C345.895 61.6241 344.323 68.9501 344.323 78.5C344.323 87.9845 345.895 95.3105 349.04 100.478C352.185 105.58 356.673 108.131 362.504 108.131C368.335 108.131 372.79 105.58 375.87 100.478C379.014 95.3105 380.587 87.9845 380.587 78.5Z" fill="#FFE1F4"/>
<path d="M398.631 113.331V43.669H445.902L446 113.331H438.629L438.531 50.5371H425.952V113.331H418.581V50.5371H406.002V113.331H398.631Z" fill="#FFE1F4"/>
</svg>
