<svg width="1089" height="94" viewBox="0 0 1089 94" fill="none" xmlns="http://www.w3.org/2000/svg">
<rect x="92.5" y="1.5" width="91" height="91" transform="rotate(90 92.5 1.5)" fill="#ECECEC"/>
<rect x="92.5" y="1.5" width="91" height="91" transform="rotate(90 92.5 1.5)" stroke="#0000A8" stroke-width="3"/>
<path fill-rule="evenodd" clip-rule="evenodd" d="M45.25 33C38.4845 33 33 38.4845 33 45.25C33 52.0155 38.4845 57.5 45.25 57.5C52.0155 57.5 57.5 52.0155 57.5 45.25C57.5 38.4845 52.0155 33 45.25 33ZM29.5 45.25C29.5 36.5515 36.5515 29.5 45.25 29.5C53.9485 29.5 61 36.5515 61 45.25C61 53.9485 53.9485 61 45.25 61C36.5515 61 29.5 53.9485 29.5 45.25Z" fill="#0000A8"/>
<path fill-rule="evenodd" clip-rule="evenodd" d="M53.8993 53.9C54.5827 53.2166 55.6907 53.2166 56.3742 53.9L63.9867 61.5125C64.6701 62.1959 64.6701 63.304 63.9867 63.9874C63.3032 64.6708 62.1952 64.6708 61.5118 63.9874L53.8993 56.3749C53.2159 55.6915 53.2159 54.5834 53.8993 53.9Z" fill="#0000A8"/>
<path d="M91 94L91 -1.52588e-05L1089 -3.35776e-06L1089 94L91 94Z" fill="#ECECEC"/>
<path fill-rule="evenodd" clip-rule="evenodd" d="M94.3773 3.35713L94.3773 90.6429L1085.62 90.6429L1085.62 3.35714L94.3773 3.35713ZM91 94L1089 94L1089 -3.35776e-06L91 -1.52588e-05L91 94Z" fill="#0000A8"/>
</svg>
