<svg width="24" height="24" viewBox="0 0 24 24" fill="none" xmlns="http://www.w3.org/2000/svg">
<path d="M8 3H4V7H8V3Z" fill="#0000A8"/>
<path d="M22 4H18V8H22V4Z" fill="#0000A8"/>
<path d="M21 17H17V21H21V17Z" fill="#0000A8"/>
<path d="M6 11H2V15H6V11Z" fill="#0000A8"/>
<path d="M10 8H9V9H10V8Z" fill="#0000A8"/>
<path d="M16 15H15V16H16V15Z" fill="#0000A8"/>
<path d="M18 8H17V9H18V8Z" fill="#0000A8"/>
<path d="M9 7H8V8H9V7Z" fill="#0000A8"/>
<path d="M8 12H7V13H8V12Z" fill="#0000A8"/>
<path d="M15.3 9.7V9H9.7V9.7H9V15.3H9.7V16H15.3V15.3H16V9.7H15.3ZM10.4 14.6V10.4H14.6V14.6H10.4Z" fill="#0000A8"/>
<path d="M17 9H16V10H17V9Z" fill="#0000A8"/>
<path d="M17 16H16V17H17V16Z" fill="#0000A8"/>
</svg>
