<svg width="24" height="24" viewBox="0 0 24 24" fill="none" xmlns="http://www.w3.org/2000/svg">
<g clip-path="url(#clip0_918_1706)">
<path d="M15.5082 8.70828C15.0406 8.66617 14.5669 8.56693 14.1082 8.61354C13.9579 8.62858 13.7368 9.01655 13.7338 9.2376C13.7128 10.3684 13.809 10.2602 12.6481 10.2677C12.0962 10.2722 11.5428 10.3023 10.9955 10.2617C10.4285 10.2196 10.2541 10.4436 10.2601 10.994C10.2691 11.994 10.2421 11.9955 9.23606 11.9955C8.46463 11.9955 7.69471 11.9955 6.83305 11.9955C6.83305 12.3384 6.80448 12.585 6.83907 12.8241C6.94584 13.5699 6.6135 13.7865 5.90824 13.7218C5.31275 13.6662 4.70523 13.6812 4.10523 13.7188C3.58343 13.7519 3.36087 13.5805 3.41802 13.0436C3.4511 12.7293 3.42403 12.4075 3.42403 11.9549C1.93531 12.3338 1.38193 11.7278 1.69922 10.3624C1.49621 10.3173 1.40148 10.2812 1.30523 10.2767C0.437064 10.2246 0.00247769 9.75389 0.00147519 8.86467C0.00147519 8.36392 0.0135053 7.86166 -2.85725e-05 7.36091C-0.0105549 6.96993 0.15937 6.8376 0.542829 6.84512C1.46463 6.86467 2.38644 6.85114 3.32027 6.85114C3.36538 6.69324 3.40899 6.60302 3.41501 6.50978C3.46614 5.5965 3.94183 5.13986 4.84208 5.13986C5.84358 5.13986 6.84809 5.1158 7.84809 5.15339C8.39847 5.17294 8.60147 5.00302 8.58493 4.43159C8.55787 3.4361 8.59095 3.43459 9.59696 3.43459C10.7488 3.43459 11.9022 3.41354 13.0541 3.44512C13.5894 3.46016 13.7534 3.26166 13.7368 2.74587C13.6977 1.58647 13.6992 1.7173 14.8075 1.71279C15.9353 1.70828 17.0631 1.69023 18.1894 1.72181C18.7233 1.73685 18.8797 1.53986 18.8737 1.02256C18.8616 0.00752732 18.8887 0.00752729 19.8857 0.00752729C21.0376 0.00752729 22.1909 0.0255724 23.3428 8.49049e-06C23.827 -0.0105178 24.009 0.144369 23.9985 0.643618C23.9714 1.92031 23.9654 3.20001 23.997 4.4767C24.0105 5.03459 23.7819 5.14437 23.2797 5.12933C22.2872 5.09926 22.2857 5.12482 22.2857 6.14287C22.2857 7.27068 22.2661 8.3985 22.2992 9.52482C22.3143 10.0556 22.1849 10.3023 21.594 10.2812C20.4857 10.2421 20.5654 10.1594 20.5639 11.3459C20.5624 12.6677 20.5639 13.9895 20.5639 15.2962C20.424 15.3534 20.3579 15.4 20.2902 15.4045C19.3248 15.4627 18.8401 15.988 18.8361 16.9805C18.8331 18.1293 18.8361 19.2782 18.8361 20.4677C18.6195 20.5083 18.4571 20.5609 18.2947 20.5669C17.1353 20.615 17.1353 20.612 17.1338 21.7399C17.1338 22.3158 17.1699 22.8962 17.1128 23.4662C17.0932 23.6556 16.8406 23.9639 16.6827 23.9714C15.7383 24.0196 14.7909 23.9955 13.8316 23.9955C13.7879 23.8376 13.7458 23.7474 13.7398 23.6541C13.6631 22.4256 13.6616 22.4436 12.4496 22.2647C12.2767 22.2391 12.0511 21.9609 12.012 21.7669C11.9413 21.412 11.9925 21.0331 11.9925 20.6602C11.8195 20.6181 11.7248 20.5805 11.63 20.5744C10.7248 20.5133 10.2722 20.0336 10.2722 19.1353C10.2722 18.9594 10.2722 18.785 10.2722 18.609C10.2722 17.3248 10.2752 17.3414 11.5458 17.1444C11.7173 17.1173 11.9594 16.8181 11.9714 16.6316C12.021 15.8827 12.018 15.1278 11.9849 14.379C11.9624 13.8887 12.1278 13.7098 12.624 13.7278C13.8646 13.7729 13.7248 13.7534 13.7278 12.5654C13.7278 11.9895 13.7383 11.412 13.7263 10.8361C13.7173 10.4707 13.8361 10.3053 14.2361 10.2782C15.3789 10.203 15.3759 10.185 15.4225 9.05414C15.427 8.93234 15.4676 8.81204 15.4887 8.68723C15.9789 8.63911 16.6511 8.76843 16.9143 8.49926C17.2015 8.20602 17.1067 7.54136 17.1834 7.03911C17.1909 6.99399 17.2346 6.9564 17.2797 6.88572C17.7714 6.85865 18.2827 6.83159 18.8737 6.7985C18.7158 6.18798 19.2406 5.50377 18.4947 5.1579C18.1879 5.01505 17.5112 5.01204 17.427 5.17144C17.1699 5.65414 17.1188 6.24662 17.006 6.72332C16.4661 6.84362 15.7188 6.80001 15.5112 7.11279C15.2661 7.48422 15.4887 8.16241 15.5082 8.70828Z" fill="#0000A8"/>
</g>
<defs>
<clipPath id="clip0_918_1706">
<rect width="24" height="24" fill="white"/>
</clipPath>
</defs>
</svg>
