<svg width="24" height="23" viewBox="0 0 24 23" fill="none" xmlns="http://www.w3.org/2000/svg">
<path d="M16 9.2V8.05H17.1429V6.9H18.2857V5.75H19.4286V4.6H20.5714V3.45H21.7143V2.3H22.8571V1.15H24V0H20.5714V1.15H19.4286V2.3H18.2857V3.45H17.1429V4.6H16V5.75H14.8571V6.9H12.5714V5.75H11.4286V4.6H10.2857V2.3H9.14286V1.15H8V0H0V1.15H1.14286V2.3H2.28571V3.45H3.42857V5.75H4.57143V6.9H5.71429V9.2H6.85714V10.35H8V12.65H9.14286V13.8H8V14.95H6.85714V16.1H5.71429V17.25H4.57143V18.4H3.42857V19.55H2.28571V20.7H1.14286V21.85H0V23H3.42857V21.85H4.57143V20.7H5.71429V19.55H6.85714V18.4H8V17.25H9.14286V16.1H11.4286V17.25H12.5714V18.4H13.7143V20.7H14.8571V21.85H16V23H24V21.85H22.8571V20.7H21.7143V19.55H20.5714V17.25H19.4286V16.1H18.2857V13.8H17.1429V12.65H16V10.35H14.8571V9.2H16ZM16 13.8V14.95H17.1429V17.25H18.2857V18.4H19.4286V20.7H16V18.4H14.8571V17.25H13.7143V16.1H12.5714V13.8H11.4286V12.65H10.2857V11.5H9.14286V9.2H8V8.05H6.85714V5.75H5.71429V4.6H4.57143V2.3H8V3.45H9.14286V5.75H10.2857V6.9H11.4286V9.2H12.5714V10.35H13.7143V11.5H14.8571V13.8H16Z" fill="#0000A8"/>
</svg>
