<svg width="496" height="147" viewBox="0 0 496 147" fill="none" xmlns="http://www.w3.org/2000/svg">
<rect width="496" height="147" rx="73.5" fill="#00FFCE"/>
<path d="M129.21 54.6479V61.1915H104.943V74.0197H127.523V80.4986H104.943V74.0845C101.115 74.0845 98 70.9746 98 67.1521V61.5803C98 57.7577 101.115 54.6479 104.943 54.6479H129.21ZM98 100V87.431C98 83.6084 101.115 80.4986 104.943 80.4986V100H98Z" fill="#FF003D"/>
<path d="M171.683 61.5803V70.4563C171.683 74.2789 168.569 77.3887 164.741 77.3887V83.8028H143.912V100H136.969V61.5803C136.969 57.7577 140.084 54.6479 143.912 54.6479H164.741C168.569 54.6479 171.683 57.7577 171.683 61.5803ZM143.912 61.1268V77.3239H164.741V61.1268H143.912ZM171.683 90.7352V100H164.741V83.8028C168.569 83.8028 171.683 86.9127 171.683 90.7352Z" fill="#FF003D"/>
<path d="M210.762 54.6479V61.1268H186.43V74.0197C182.602 74.0197 179.487 70.9099 179.487 67.0873V61.5155C179.487 57.693 182.602 54.5831 186.43 54.5831V54.6479H210.762ZM209.075 74.0197V80.5634H186.43V74.0197H209.075ZM179.487 93.0676V87.4958C179.487 83.6732 182.602 80.5634 186.43 80.5634V93.5211H210.762V100H186.43C182.602 100 179.487 96.8901 179.487 93.0676Z" fill="#FF003D"/>
<path d="M249.795 54.6479V61.1268H225.463V74.0197C221.635 74.0197 218.52 70.9099 218.52 67.0873V61.5155C218.52 57.693 221.635 54.5831 225.463 54.5831V54.6479H249.795ZM248.108 74.0197V80.5634H225.463V74.0197H248.108ZM218.52 93.0676V87.4958C218.52 83.6732 221.635 80.5634 225.463 80.5634V93.5211H249.795V100H225.463C221.635 100 218.52 96.8901 218.52 93.0676Z" fill="#FF003D"/>
<path d="M264.561 54.6479H285.389C289.217 54.6479 292.332 57.7577 292.332 61.5803V93.0676C292.332 96.8901 289.217 100 285.389 100H264.561V93.5211H285.389V61.1268H264.561V54.6479ZM257.553 86.5887V68.0592C257.553 64.2366 260.668 61.1268 264.496 61.1268V93.5211C260.668 93.5211 257.553 90.4113 257.553 86.5887Z" fill="#FF003D"/>
<path d="M327.906 60.5437H307.077V93.5211C303.249 93.5211 300.134 90.4113 300.134 86.5887V60.4789C300.199 56.9155 303.054 54 306.688 54H321.417C324.986 54 327.906 56.9803 327.906 60.5437ZM327.906 60.4789H334.848V93.5211C334.848 97.0845 331.928 100 328.36 100H307.077V93.5211H327.906V60.4789Z" fill="#FF003D"/>
<path d="M381.195 54.6479H391.057V61.1268H381.195V93.0676C381.195 96.8901 378.08 100 374.252 100H366.076C362.183 100 359.133 96.8901 359.133 93.0676V61.1268H349.92V100H342.977V61.5803C342.977 57.7577 346.091 54.6479 349.92 54.6479H359.133C362.962 54.6479 366.076 57.7577 366.076 61.5803V93.5211H374.252V61.5803C374.252 57.7577 377.301 54.6479 381.195 54.6479ZM391.057 100V61.1268H398V100H391.057Z" fill="#FF003D"/>
</svg>
